<?xml version="1.0" standalone="no"?>
<!DOCTYPE svg PUBLIC "-//W3C//DTD SVG 1.1//EN" "http://www.w3.org/Graphics/SVG/1.1/DTD/svg11.dtd" >
<svg xmlns="http://www.w3.org/2000/svg" xmlns:xlink="http://www.w3.org/1999/xlink" version="1.1">
<metadata>
Created by FontForge 20170731 at Sat Sep 18 15:59:06 2021
 By Aleksey,,,
Copyright (c) 1993, 1994, 2001 Adobe Systems Incorporated.  All Rights Reserved.
</metadata>
<defs>
<font id="ITCAvantGardeStd-XLt" horiz-adv-x="1136" >
  <font-face 
    font-family="ITC Avant Garde Std XLt"
    font-weight="275"
    font-stretch="normal"
    units-per-em="2048"
    panose-1="2 11 3 2 2 2 2 2 2 4"
    ascent="1516"
    descent="-532"
    x-height="1085"
    cap-height="1516"
    bbox="-281 -561 2288 1937"
    underline-thickness="102"
    underline-position="-307"
    unicode-range="U+0020-FB02"
  />
<missing-glyph horiz-adv-x="1024" 
d="M0 0v1434h1024v-1434h-1024zM512 809l348 522h-696zM573 717l349 -522v1044zM164 102h696l-348 523zM102 1239v-1044l349 522z" />
    <glyph glyph-name="fi" unicode="fi" horiz-adv-x="804" 
d="M588 1032h-338v-1032h-57v1032h-179v53h179v109q0 69 15.5 125t39 91.5t57 61.5t63 38.5t65 20t55 9t39.5 2.5h5v-55q-89 -6 -130 -22q-152 -58 -152 -287v-93h395v-1085h-57v1032zM645 1329h-57v187h57v-187z" />
    <glyph glyph-name="fl" unicode="fl" horiz-adv-x="804" 
d="M588 1032h-338v-1032h-57v1032h-179v53h179v109q0 69 15.5 125t39 91.5t57 61.5t63 38.5t65 20t55 9t39.5 2.5h5v-55q-89 -6 -130 -22q-152 -58 -152 -287v-93h338v431h57v-1516h-57v1032z" />
    <glyph glyph-name=".notdef" horiz-adv-x="1024" 
d="M0 0v1434h1024v-1434h-1024zM512 809l348 522h-696zM573 717l349 -522v1044zM164 102h696l-348 523zM102 1239v-1044l349 522z" />
    <glyph glyph-name=".null" horiz-adv-x="0" 
 />
    <glyph glyph-name="nonmarkingreturn" horiz-adv-x="682" 
 />
    <glyph glyph-name="space" unicode=" " horiz-adv-x="567" 
 />
    <glyph glyph-name="exclam" unicode="!" horiz-adv-x="530" 
d="M297 1516v-1176h-61v1176h61zM297 166v-166h-61v166h61z" />
    <glyph glyph-name="quotedbl" unicode="&#x22;" horiz-adv-x="681" 
d="M254 909h-61v607h61v-607zM489 909h-61v607h61v-607z" />
    <glyph glyph-name="numbersign" unicode="#" 
d="M739 555l-69 -492h-49l67 492h-293l-67 -492h-52l70 492h-309v47h315l39 281h-309v47h317l64 452h49l-63 -452h292l64 452h49l-63 -452h309v-47h-318l-39 -281h312v-47h-316zM694 602l41 281h-293l-41 -281h293z" />
    <glyph glyph-name="dollar" unicode="$" 
d="M606 1659v-164q83 -10 146.5 -43.5t101 -81.5t57.5 -99.5t25 -107.5h-62q-9 75 -42.5 131.5t-78.5 86.5t-89 44.5t-84 14.5q-111 0 -200 -82.5t-89 -212.5q0 -43 10 -79.5t24.5 -62t42.5 -48.5t50.5 -37t64 -29.5t67.5 -23t75 -21.5q28 -8 40.5 -12t45 -16t51 -21.5
t49.5 -28.5t50 -37.5t42 -47t35.5 -60t21.5 -73t9 -87.5q0 -93 -44.5 -178t-129 -141.5t-189.5 -63.5v-195h-61v195q-157 14 -261.5 120.5t-113.5 266.5h61q7 -84 41.5 -149t85 -103t107 -57t115.5 -19q137 0 232 95t95 231q0 39 -7.5 73.5t-17.5 60.5t-31 50t-37.5 40.5
t-48.5 33.5t-51.5 26.5t-59 22.5t-59.5 19t-63 18t-78 25.5t-79 41t-74 62t-51 89t-21 120.5q0 138 87.5 234.5t228.5 115.5v164h61z" />
    <glyph glyph-name="percent" unicode="%" horiz-adv-x="1472" 
d="M45 1208v2q0 143 95 237.5t239 94.5q145 0 239.5 -94.5t94.5 -239.5t-94.5 -239.5t-239.5 -94.5t-239.5 94.5t-94.5 239.5zM102 1208v-2q0 -122 77.5 -201t199.5 -79t199 79t77 203t-77 203.5t-199 79.5t-199.5 -79.5t-77.5 -203.5zM760 307v2q0 143 95 237.5t239 94.5
q145 0 239 -94.5t94 -239.5t-94 -239.5t-239 -94.5t-239.5 94.5t-94.5 239.5zM817 307v-2q0 -122 77.5 -201t199.5 -79t199 79t77 203t-77 203.5t-199 79.5t-199.5 -79.5t-77.5 -203.5zM1235 1516l-936 -1516h-66l936 1516h66z" />
    <glyph glyph-name="ampersand" unicode="&#x26;" horiz-adv-x="1476" 
d="M1253 956h64l-279 -534l394 -404l-43 -41l-379 388q-53 -107 -98 -175t-102 -120t-125.5 -74.5t-158.5 -22.5q-120 0 -216.5 63t-146.5 159t-50 202q0 76 26.5 144t66.5 117t96.5 92t107.5 70t108 50q-16 18 -57 62t-59.5 66.5t-44 60.5t-37 77.5t-13.5 84.5
q0 130 92 225.5t228 95.5q139 0 237.5 -98t98.5 -232q0 -50 -12.5 -91.5t-36 -74t-53.5 -59t-69 -49t-78.5 -41.5t-85.5 -40q-8 -3 -12 -5l379 -387zM629 1481h-2q-80 0 -140.5 -40t-89 -96.5t-28.5 -115.5q0 -34 10.5 -68.5t22 -59t38 -58t40.5 -49t49.5 -51.5t45.5 -46
q65 29 102.5 46.5t80.5 42t65 45t42.5 49t28 61t7.5 73.5q0 107 -77 187t-195 80zM965 408l-406 419q-92 -40 -161 -84.5t-111 -86t-67.5 -88t-35 -87t-10.5 -86.5q1 -94 44 -176.5t126 -135t188 -52.5q79 0 141.5 23.5t113.5 75t91.5 115.5t86.5 163z" />
    <glyph glyph-name="quotesingle" unicode="'" horiz-adv-x="454" 
d="M258 909h-61v607h61v-607z" />
    <glyph glyph-name="parenleft" unicode="(" horiz-adv-x="870" 
d="M805 1542v-72q-148 -92 -266 -236.5t-190.5 -339t-72.5 -400.5q0 -207 72.5 -402t190.5 -340t266 -237v-76q-280 182 -437 454.5t-157 600.5q0 322 164 607t430 441z" />
    <glyph glyph-name="parenright" unicode=")" horiz-adv-x="870" 
d="M66 -561v69q148 93 266 238.5t190 340t72 400.5q0 308 -150 573t-378 406v76q280 -183 436.5 -455.5t156.5 -599.5q0 -322 -164 -608t-429 -440z" />
    <glyph glyph-name="asterisk" unicode="*" horiz-adv-x="1173" 
d="M616 1516v-252l218 127l28 -52l-215 -125l219 -129l-28 -49l-222 125v-252h-59v254l-217 -127l-31 51l219 127l-219 123l31 54l217 -127v252h59z" />
    <glyph glyph-name="plus" unicode="+" horiz-adv-x="1228" 
d="M643 1026v-485h483v-58h-483v-483h-57v483h-484v58h484v485h57z" />
    <glyph glyph-name="comma" unicode="," horiz-adv-x="567" 
d="M319 168l-129 -315h-65l129 315h65z" />
    <glyph glyph-name="hyphen" unicode="-" horiz-adv-x="544" 
d="M0 596h545v-59h-545v59z" />
    <glyph glyph-name="period" unicode="." horiz-adv-x="567" 
d="M315 166v-166h-61v166h61z" />
    <glyph glyph-name="slash" unicode="/" horiz-adv-x="1060" 
d="M137 -205l719 1721h68l-719 -1721h-68z" />
    <glyph glyph-name="zero" unicode="0" 
d="M80 455v587q0 90 21 165.5t54.5 125.5t79 89t90.5 61t92.5 36t81.5 18.5t62 4.5q100 0 190 -34.5t157.5 -96.5t107 -153t39.5 -197v-606q0 -80 -20 -149t-52.5 -117t-76 -86.5t-89 -62.5t-92.5 -39.5t-85 -21.5t-69 -6q-57 0 -119 14t-129.5 49.5t-120.5 88t-87.5 138.5
t-34.5 192zM141 1049v-594q0 -99 36 -181.5t96 -135t136 -81t158 -28.5q49 0 102 12t112 43.5t105.5 77.5t76.5 122.5t30 170.5v606q0 78 -26 152t-77 136t-136.5 100t-192.5 38q-83 0 -158 -28.5t-134 -81.5t-93.5 -138t-34.5 -190z" />
    <glyph glyph-name="one" unicode="1" 
d="M563 0v1460h-336v56h398v-1516h-62z" />
    <glyph glyph-name="two" unicode="2" 
d="M117 0v55q91 93 273.5 279.5t273.5 279.5l55.5 55.5t61.5 62.5t53.5 59t53.5 69t39 67.5t32 79t12 80.5q1 175 -109 287.5t-276 112.5q-75 0 -142 -27t-120.5 -79.5t-86 -137t-34.5 -190.5h-62q6 241 152 374q124 115 301 115q190 0 315.5 -132.5t122.5 -332.5
q-7 -105 -59 -191t-164 -210q-508 -517 -610 -621h833v-55h-915z" />
    <glyph glyph-name="three" unicode="3" 
d="M258 1198h-61q5 83 38 150.5t84 108.5t111 63t123 22q69 0 131.5 -23t112.5 -66t80 -111t30 -152q0 -98 -52.5 -182t-160.5 -140q74 -26 131.5 -68t91 -87t55 -96.5t29 -93t7.5 -79.5q0 -211 -130 -341t-337 -130q-103 0 -199.5 45t-161.5 127q-100 125 -100 295h61
q3 -103 41 -184.5t98 -129.5t128.5 -72.5t138.5 -24.5q179 0 289 116.5t110 286.5q0 53 -15 108t-48.5 109t-82.5 96.5t-123 68.5t-163 26h-82v55h80q87 0 152 25.5t98.5 60.5t54 80.5t25 75.5t4.5 55q0 129 -80.5 212t-206.5 83q-130 0 -211.5 -83.5t-89.5 -205.5z" />
    <glyph glyph-name="four" unicode="4" 
d="M801 0v295h-793v53l770 1168h84v-1166h154v-55h-154v-295h-61zM80 350h721v1092z" />
    <glyph glyph-name="five" unicode="5" 
d="M289 1516h680v-56h-631l-111 -571q31 23 53.5 37.5t65.5 36.5t95.5 33.5t111.5 11.5q142 0 258.5 -72.5t180 -190t63.5 -251.5q0 -145 -71 -265.5t-187.5 -188t-249.5 -67.5q-60 0 -124 17t-128 54.5t-116 91.5t-89 133.5t-47 174.5h61q11 -98 55 -178.5t106.5 -131
t136 -78t147.5 -27.5q117 0 219.5 61.5t163.5 167.5t61 229q0 129 -62.5 236.5t-164 168t-217.5 60.5q-203 0 -346 -176l-53 15z" />
    <glyph glyph-name="six" unicode="6" 
d="M655 1516h66l-318 -474q-27 -38 -79 -118q114 77 249 77q132 0 244.5 -63t181 -181t68.5 -265q0 -137 -63.5 -255.5t-179.5 -191t-257 -72.5q-237 0 -381 168q-59 70 -88.5 157t-29.5 171q0 118 34.5 204.5t94.5 174.5zM129 473v-2q0 -117 50.5 -216.5t152 -162.5
t233.5 -63q95 0 178 37t140.5 99t90 145t32.5 175q0 90 -26 167t-69.5 130t-99.5 91t-116 55.5t-120 17.5q-56 0 -114.5 -15.5t-118.5 -52t-107 -89t-76.5 -135t-29.5 -181.5z" />
    <glyph glyph-name="seven" unicode="7" 
d="M178 1516h805v-56l-676 -1460h-63l674 1460h-740v56z" />
    <glyph glyph-name="eight" unicode="8" 
d="M203 1186v2q0 142 107.5 248t256.5 106q151 0 258 -103.5t107 -252.5q0 -105 -61.5 -195.5t-159.5 -132.5q138 -43 226 -160.5t91 -269.5q-5 -191 -138 -323t-323 -132t-323 132t-138 323q3 151 91 268t227 162q-98 42 -159.5 132.5t-61.5 195.5zM264 1184v-2
q0 -125 88 -212t215 -87t215 87.5t88 213.5q0 128 -88 215.5t-215 87.5t-215 -87.5t-88 -215.5zM168 428v-2q0 -166 116 -281.5t283 -115.5t283.5 116t116.5 283t-116.5 283t-283.5 116t-283 -116t-116 -283z" />
    <glyph glyph-name="nine" unicode="9" 
d="M481 0h-65l317 473q47 71 80 119q-46 -31 -106 -53q-73 -25 -144 -25q-132 0 -244 63.5t-180.5 181.5t-68.5 265q0 137 63 255t179 190.5t257 72.5q237 0 381 -168q59 -71 89 -157t30 -170q0 -118 -34.5 -204.5t-94.5 -174.5zM1008 1042v2q0 117 -51 217t-152.5 163
t-233.5 63q-127 0 -228.5 -63t-156.5 -167t-55 -227q0 -112 39.5 -202.5t103 -145.5t138 -84t149.5 -29q56 0 114.5 15.5t119 52t107 89t76.5 135t30 181.5z" />
    <glyph glyph-name="colon" unicode=":" horiz-adv-x="567" 
d="M315 1085v-165h-61v165h61zM315 166v-166h-61v166h61z" />
    <glyph glyph-name="semicolon" unicode=";" horiz-adv-x="567" 
d="M313 1085v-165h-61v165h61zM319 168l-129 -315h-65l129 315h65z" />
    <glyph glyph-name="less" unicode="&#x3c;" horiz-adv-x="1228" 
d="M102 547l1024 481v-63l-956 -451l956 -451v-63l-1024 481v66z" />
    <glyph glyph-name="equal" unicode="=" horiz-adv-x="1228" 
d="M102 739h1024v-57h-1024v57zM102 342h1024v-57h-1024v57z" />
    <glyph glyph-name="greater" unicode="&#x3e;" horiz-adv-x="1228" 
d="M102 63l957 451l-957 451v63l1024 -481v-66l-1024 -481v63z" />
    <glyph glyph-name="question" unicode="?" horiz-adv-x="1097" 
d="M559 340h-61q2 53 4 81.5t12 78.5t28.5 87.5t54.5 87.5t87 99q15 16 51 52t51 52t40 48.5t36 56.5t21.5 59.5t11.5 73.5q0 150 -106 256.5t-265 106.5q-58 0 -115.5 -17t-111.5 -51t-94 -95t-53 -140q-7 -35 -7 -62h-61q0 19 4 55q12 82 47 148t81 107t102 68.5t107 38.5
t99 11q114 0 212.5 -53t160 -153t61.5 -224q0 -35 -8.5 -69.5t-18 -60.5t-34 -61t-37.5 -53t-48 -54.5t-46 -47.5t-51 -49q-45 -44 -76 -90.5t-46 -80.5t-22.5 -79t-8.5 -66t-1 -61zM557 166v-166h-59v166h59z" />
    <glyph glyph-name="at" unicode="@" horiz-adv-x="1630" 
d="M1481 383h51q-36 -86 -96.5 -156.5t-130.5 -116.5t-150 -78t-154.5 -45.5t-144.5 -13.5q-160 0 -303.5 61t-246 164.5t-162.5 247t-60 302.5q0 162 61 308.5t165 253t250.5 169.5t309.5 63q84 0 167.5 -18.5t162 -53.5t146.5 -90t118.5 -124t79.5 -160t29 -193
q0 -115 -36 -213.5t-91 -163t-121.5 -110.5t-126 -66t-106.5 -20q-20 0 -41 4t-52 17.5t-50.5 47.5t-20.5 84q-19 -26 -36.5 -45t-50 -45t-77.5 -40.5t-98 -14.5q-24 0 -50 6t-58 24t-56.5 46t-41 77t-16.5 113q0 140 61 274t162.5 218t211.5 84q93 0 141.5 -42.5
t79.5 -127.5l47 137h57l-196 -557q0 -1 -5 -13.5t-9.5 -26.5t-8.5 -32.5t-4 -32.5q-1 -34 10 -56t32 -31t36.5 -12t34.5 -3q46 0 100.5 20.5t111.5 63.5t103.5 102.5t76.5 146.5t30 185q0 116 -38.5 214t-102 166t-147 115.5t-173.5 70t-181 22.5q-116 0 -226 -34
t-201.5 -100t-160 -155t-107 -205.5t-38.5 -246.5q0 -160 60 -297.5t159 -229t227.5 -143t266.5 -51.5q84 0 172 21t173.5 62.5t160.5 112t121 160.5zM502 604v-2q0 -61 16 -105t43 -65.5t53.5 -31t55.5 -9.5q215 0 303 273q3 8 22 54t31.5 80t24.5 78t12 70q-1 49 -20.5 86
t-48.5 56.5t-57 28.5t-54 9q-63 0 -130.5 -41.5t-123 -110.5t-91.5 -167.5t-36 -202.5z" />
    <glyph glyph-name="A" unicode="A" horiz-adv-x="1406" 
d="M307 528l-227 -528h-66l650 1516h79l650 -1516h-66l-227 528h-793zM1073 584l-371 874l-368 -874h739z" />
    <glyph glyph-name="B" unicode="B" horiz-adv-x="1105" 
d="M158 0v1516h321q172 0 266 -56q96 -51 137.5 -139t41.5 -186q0 -60 -14.5 -110.5t-34.5 -83.5t-52 -62t-56.5 -44.5t-57.5 -31.5q81 -23 141.5 -66.5t91.5 -88t49.5 -98t22.5 -85.5t4 -62q-3 -266 -240 -368q-100 -35 -241 -35h-379zM219 1460v-639h275q144 0 215 39
q88 50 120.5 120.5t32.5 162.5q0 97 -45 170.5t-108 101.5q-73 43 -230 45h-260zM219 766v-711h320q129 0 217 33q197 84 200 315q0 113 -54.5 198.5t-149.5 127.5q-58 25 -107 31t-151 6h-275z" />
    <glyph glyph-name="C" unicode="C" horiz-adv-x="1609" 
d="M1462 330h70q-40 -68 -103 -130t-146.5 -113.5t-191 -82.5t-221.5 -31q-161 0 -305.5 59t-250.5 162t-168 250t-62 314t62 314t168 249.5t250.5 161.5t305.5 59q116 -1 223.5 -33t190 -86t144.5 -115t106 -130h-72q-22 31 -51 63.5t-85 78.5t-118.5 81t-152.5 60t-185 26
q-149 0 -282.5 -55.5t-231 -151t-154.5 -232t-57 -290.5t57 -290.5t154.5 -232t231 -151t282.5 -55.5q100 0 193.5 26.5t155.5 61.5t118 82.5t81 75.5t44 55z" />
    <glyph glyph-name="D" unicode="D" horiz-adv-x="1435" 
d="M158 0v1516h428q360 0 561 -201q203 -200 203 -557t-203 -557.5t-561 -200.5h-428zM219 1460v-1405h367q329 0 515.5 185.5t186.5 513.5q0 333 -184 520q-186 186 -518 186h-367z" />
    <glyph glyph-name="E" unicode="E" horiz-adv-x="1120" 
d="M158 0v1516h831v-56h-770v-669h770v-56h-770v-680h770v-55h-831z" />
    <glyph glyph-name="F" unicode="F" horiz-adv-x="976" 
d="M158 0v1516h743v-56h-682v-669h682v-56h-682v-735h-61z" />
    <glyph glyph-name="G" unicode="G" horiz-adv-x="1746" 
d="M1559 1180h-74q-91 119 -213 194q-179 113 -402 113q-149 0 -282.5 -55.5t-231 -151t-154.5 -232t-57 -290.5t57 -290.5t154.5 -232t231 -151t282.5 -55.5q276 0 490 172q96 78 160 178.5t84 206.5h-904v55h977q-12 -117 -65 -223q-96 -198 -296.5 -321.5t-445.5 -123.5
q-161 0 -305.5 59t-250.5 162t-168 250t-62 314t62 314t168 249.5t250.5 161.5t305.5 59q211 0 399 -97.5t290 -264.5z" />
    <glyph glyph-name="H" unicode="H" horiz-adv-x="1286" 
d="M219 0h-61v1516h61v-725h848v725h61v-1516h-61v735h-848v-735z" />
    <glyph glyph-name="I" unicode="I" horiz-adv-x="378" 
d="M158 0v1516h61v-1516h-61z" />
    <glyph glyph-name="J" unicode="J" horiz-adv-x="927" 
d="M772 1516v-1082q0 -159 -37 -250q-42 -85 -104 -133q-105 -78 -242 -78q-122 0 -224 70t-140 197q-2 4 -13 49h68q1 -4 3 -11.5t3 -11.5q17 -60 49.5 -106t66.5 -70t74 -38.5t66.5 -18.5t50.5 -4q110 3 184.5 55t100.5 123q33 83 33 227v1082h61z" />
    <glyph glyph-name="K" unicode="K" horiz-adv-x="1097" 
d="M186 0v1516h62v-760l706 760h74l-700 -758l770 -758h-82l-768 752v-752h-62z" />
    <glyph glyph-name="L" unicode="L" horiz-adv-x="866" 
d="M158 0v1516h61v-1461h641v-55h-702z" />
    <glyph glyph-name="M" unicode="M" horiz-adv-x="1910" 
d="M219 0h-61v1516h98l700 -1418l699 1418h96v-1516h-61v1454l-717 -1454h-35l-719 1454v-1454z" />
    <glyph glyph-name="N" unicode="N" horiz-adv-x="1511" 
d="M250 1516l1042 -1434v1434h62v-1516h-78l-1057 1454v-1454h-61v1516h92z" />
    <glyph glyph-name="O" unicode="O" horiz-adv-x="1742" 
d="M84 758v2q0 166 62 312.5t168 249t250.5 161.5t305.5 59q129 0 248.5 -37.5t216.5 -108t169.5 -165.5t112.5 -217t40 -256q0 -223 -106 -403.5t-286 -281t-395 -100.5q-161 0 -305.5 59t-250.5 162t-168 250t-62 314zM145 758v-2q0 -154 57 -289.5t154.5 -231t231.5 -151
t282 -55.5q149 0 282.5 55.5t231 151t154.5 232t57 290.5t-57 290.5t-154.5 232t-231 151t-282.5 55.5t-282.5 -55.5t-231 -151t-154.5 -232t-57 -290.5z" />
    <glyph glyph-name="P" unicode="P" horiz-adv-x="1046" 
d="M137 1516h352q141 0 224 -18.5t155 -72.5q68 -50 111 -144t43 -196t-43 -196t-111 -144q-72 -53 -155.5 -71.5t-223.5 -18.5h-290v-655h-62v1516zM199 1460v-749h293q128 0 204 18.5t140 65.5q55 40 90 120.5t35 167.5q0 90 -35 171.5t-90 121.5q-65 47 -140 65.5
t-204 18.5h-293z" />
    <glyph glyph-name="Q" unicode="Q" horiz-adv-x="1806" 
d="M1812 37v-64q-56 6 -137 23q-65 15 -120.5 36.5t-87 38.5t-93.5 54q-212 -152 -467 -152q-176 0 -326.5 64t-251.5 172.5t-157.5 250.5t-56.5 298q0 167 62 314t168 249.5t250.5 161.5t305.5 59q129 0 248.5 -37.5t216.5 -108t169.5 -165.5t112.5 -217t40 -256
q0 -94 -20.5 -182t-46.5 -146.5t-68 -117.5t-67 -86t-61 -62q89 -53 172.5 -81t214.5 -46zM901 1487h-2q-148 0 -281 -55.5t-230.5 -151t-154.5 -232t-57 -290.5q0 -137 43 -254q185 61 352 61q248 0 451 -110q50 -26 104.5 -65.5t249.5 -188.5q123 106 186.5 250t63.5 307
q0 154 -57 290.5t-154.5 232t-231 151t-282.5 55.5zM909 29h2q125 0 235 40.5t181 94.5q-18 12 -79.5 58.5t-115.5 87.5t-55 42q-241 158 -514 158q-68 0 -132.5 -11.5t-97 -22t-89.5 -32.5q37 -77 86 -140t98.5 -105.5t106.5 -74.5t107 -49.5t103 -28.5t90 -14t74 -3z" />
    <glyph glyph-name="R" unicode="R" horiz-adv-x="1134" 
d="M137 0v1516h346q170 0 257.5 -15t146.5 -49q94 -46 156.5 -159.5t62.5 -243.5q3 -76 -21 -158.5t-75 -149.5q-77 -100 -169 -132.5t-241 -37.5l408 -571h-78l-445 627h43q60 0 97.5 2t98.5 10t109 29t82 55q129 134 129 324q0 102 -47.5 199.5t-132.5 152.5
q-63 40 -143.5 50.5t-237.5 10.5h-284v-1460h-62z" />
    <glyph glyph-name="S" unicode="S" horiz-adv-x="1060" 
d="M92 383h62q11 -83 42.5 -148t71 -102.5t89 -62t91 -33t80.5 -8.5q96 0 182.5 44t142.5 128t56 188q0 56 -13.5 104t-35 82t-54 62t-63.5 46.5t-71.5 34t-70.5 24.5t-67 19l-12 3q-33 8 -49.5 12.5t-53.5 16t-59.5 21.5t-57 28.5t-56 37.5t-47.5 47.5t-40 59.5t-24 72.5
t-10 87.5q-4 181 117.5 288t294.5 107q69 0 132 -20.5t117.5 -62t92 -110.5t49.5 -159h-62q-56 297 -334 297q-148 0 -247 -91.5t-99 -238.5q0 -44 8 -82t26 -68t38.5 -54t53 -44t60.5 -34.5t70.5 -28.5t73 -22.5t78.5 -20.5q4 -1 15 -4q31 -8 51 -13.5t61.5 -22t70.5 -35
t65.5 -50.5t59 -69.5t38.5 -92.5t16 -119q0 -121 -63.5 -219.5t-164 -151.5t-213.5 -53q-56 0 -113.5 14.5t-113.5 47.5t-100.5 79.5t-74.5 116t-36 152.5z" />
    <glyph glyph-name="T" unicode="T" horiz-adv-x="907" 
d="M422 0v1460h-412v56h885v-56h-412v-1460h-61z" />
    <glyph glyph-name="U" unicode="U" horiz-adv-x="1239" 
d="M156 1516h61v-984q0 -70 1.5 -104.5t10 -84t28.5 -90t54 -85.5q49 -64 134.5 -101.5t177.5 -37.5q88 0 172 37.5t133 101.5q34 45 54 85.5t28.5 90t10 84t1.5 104.5v984h61v-984q1 -66 -3 -115.5t-20 -119t-56 -128.5t-103 -103q-127 -93 -283 -93q-153 0 -280 93
q-63 44 -103 103t-56 128.5t-20 119t-3 115.5v984z" />
    <glyph glyph-name="V" unicode="V" horiz-adv-x="1363" 
d="M659 0l-645 1516h70l598 -1414l600 1414h68l-648 -1516h-43z" />
    <glyph glyph-name="W" unicode="W" horiz-adv-x="1818" 
d="M457 0l-432 1516h65l410 -1432l387 1432h43l395 -1432l406 1432h63l-434 -1516h-80l-371 1354l-370 -1354h-82z" />
    <glyph glyph-name="X" unicode="X" 
d="M16 0l516 770l-497 746h74l456 -689l461 689h72l-498 -746l520 -770h-71l-484 717l-481 -717h-68z" />
    <glyph glyph-name="Y" unicode="Y" horiz-adv-x="1134" 
d="M537 0v522l-506 994h67l469 -924l467 924h70l-506 -994v-522h-61z" />
    <glyph glyph-name="Z" unicode="Z" horiz-adv-x="1021" 
d="M967 1479l-854 -1424h897v-55h-969v37l854 1423h-883v56h955v-37z" />
    <glyph glyph-name="bracketleft" unicode="[" horiz-adv-x="870" 
d="M727 -315v-62h-442v1893h442v-62h-381v-1769h381z" />
    <glyph glyph-name="backslash" unicode="\" horiz-adv-x="1060" 
d="M856 -205l-719 1721h68l719 -1721h-68z" />
    <glyph glyph-name="bracketright" unicode="]" horiz-adv-x="870" 
d="M143 -377v62h381v1769h-381v62h443v-1893h-443z" />
    <glyph glyph-name="asciicircum" unicode="^" horiz-adv-x="1228" 
d="M229 768l353 748h65l352 -748h-65l-320 680l-319 -680h-66z" />
    <glyph glyph-name="underscore" unicode="_" horiz-adv-x="1024" 
d="M1024 -256h-1024v102h1024v-102z" />
    <glyph glyph-name="grave" unicode="`" 
d="M324 1538l485 -283l-27 -47l-487 283z" />
    <glyph glyph-name="a" unicode="a" horiz-adv-x="1380" 
d="M1221 1085v-1085h-58v281q-74 -147 -205.5 -227.5t-302.5 -80.5q-129 0 -238.5 48t-181 127.5t-111.5 182t-40 212.5q0 151 68.5 279.5t201 209t301.5 80.5q125 0 234 -47.5t176.5 -117t97.5 -148.5v286h58zM141 543v-2q1 -75 21 -147.5t63 -139t103 -117t146 -80.5
t188 -30q169 0 296 93t181 245q33 85 30 190q0 106 -36 188q-56 143 -185 229.5t-293 86.5q-141 0 -258 -64.5t-186.5 -183.5t-69.5 -268z" />
    <glyph glyph-name="b" unicode="b" horiz-adv-x="1380" 
d="M160 0v1516h57v-431v-286q65 137 194 223.5t314 89.5q169 0 301.5 -80.5t201 -209t68.5 -279.5q0 -110 -40 -212.5t-111.5 -182t-181 -127.5t-238.5 -48q-171 0 -302.5 80.5t-205.5 227.5v-281h-57zM1239 543v2q0 148 -69.5 266.5t-186.5 183t-258 64.5
q-219 0 -366.5 -147t-147.5 -369q0 -140 64 -257.5t181 -188t263 -70.5q126 0 227.5 45.5t163.5 120.5t95 165t34 185z" />
    <glyph glyph-name="c" unicode="c" horiz-adv-x="1267" 
d="M1130 342h64q-57 -166 -201.5 -267.5t-326.5 -101.5q-140 0 -253.5 50t-183.5 132t-107.5 181.5t-37.5 204.5q0 159 73.5 290t204.5 206t293 75q114 0 219 -40t193 -128t129 -211h-63q-30 86 -86 152t-123 102.5t-134.5 54.5t-132.5 17q-113 -1 -196 -35t-170 -111
q-67 -61 -108.5 -161.5t-41.5 -208.5q0 -149 71 -268.5t188 -183.5t255 -64q89 1 170 27.5t140.5 70.5t102 99.5t62.5 117.5z" />
    <glyph glyph-name="d" unicode="d" horiz-adv-x="1386" 
d="M1221 1516v-1516h-58v281q-74 -147 -205.5 -227.5t-302.5 -80.5q-129 0 -238.5 48t-181 127.5t-111.5 182t-40 212.5q0 151 68.5 279.5t201 209t301.5 80.5q125 0 234 -47.5t176.5 -117t97.5 -148.5v286v431h58zM141 543v-2q1 -75 21 -147.5t63 -139t103 -117t146 -80.5
t188 -30q106 0 200 39.5t164 111.5t108 167.5t35 201.5q0 217 -147 364q-70 70 -165 109t-202 39q-141 0 -258 -64.5t-186.5 -183.5t-69.5 -268z" />
    <glyph glyph-name="e" unicode="e" horiz-adv-x="1267" 
d="M1204 537h-1081q1 -102 34.5 -188.5t86.5 -145t121 -99.5t137 -59.5t135 -17.5q153 0 276 75t187 211h63q-71 -166 -219 -258q-137 -82 -309 -82q-118 0 -216.5 36t-162.5 94t-109 133.5t-64.5 152t-19.5 152.5q0 160 75.5 291.5t207 205.5t291.5 74q109 0 210 -37.5
t179 -107.5q90 -80 137.5 -195t40.5 -235zM125 590h1022q-6 128 -79.5 238.5t-189.5 173t-241 57.5q-204 0 -352 -133t-160 -336z" />
    <glyph glyph-name="f" unicode="f" horiz-adv-x="538" 
d="M193 0v1032h-179v53h179v109q0 69 15.5 125t39 91.5t57 61.5t63 38.5t65 20t55 9t39.5 2.5h5v-55q-89 -6 -130 -22q-152 -58 -152 -287v-93h282v-53h-282v-1032h-57z" />
    <glyph glyph-name="g" unicode="g" horiz-adv-x="1382" 
d="M1225 1085v-964q0 -299 -213 -463q-81 -61 -173.5 -91t-164.5 -30q-169 0 -318 89t-217 245h66q1 -2 11.5 -19t15 -23.5t15.5 -22.5t19.5 -26t21.5 -24.5t27.5 -27.5t30.5 -25q71 -57 156 -85t164 -28q95 0 185.5 37.5t160.5 104t112.5 166t42.5 213.5v176
q-74 -151 -205.5 -232.5t-302.5 -81.5q-106 0 -199 31t-161 85.5t-117.5 126.5t-74.5 155.5t-25 171.5q0 112 40.5 215t113.5 181.5t183 125.5t240 47q125 0 234 -47.5t176.5 -117t97.5 -148.5v286h58zM139 543v-2q1 -75 21.5 -147.5t63.5 -139t103.5 -117t148 -80.5
t190.5 -30q219 0 364 151q68 71 106 167t38 202q0 77 -28 164t-85 161q-144 187 -402 187q-144 0 -262.5 -64.5t-188 -183.5t-69.5 -268z" />
    <glyph glyph-name="h" unicode="h" horiz-adv-x="1310" 
d="M160 0v1516h57v-435v-215q35 81 107.5 138.5t158 83.5t174.5 24q251 0 379 -147q119 -136 119 -392v-573h-57v573q0 230 -103 353q-114 133 -338 133q-204 -3 -321 -117q-119 -116 -119 -317v-625h-57z" />
    <glyph glyph-name="i" unicode="i" horiz-adv-x="376" 
d="M160 1329v187h57v-187h-57zM160 0v1085h57v-1085h-57z" />
    <glyph glyph-name="j" unicode="j" horiz-adv-x="448" 
d="M195 1327v189h57v-189h-57zM252 1085v-1073q0 -37 -0.5 -57.5t-2.5 -59t-6.5 -62t-13 -58t-20.5 -57.5t-31.5 -50t-44 -44.5t-58.5 -32.5t-75 -23q-4 -1 -14 -2t-15 -2v61q4 1 12 2t11 2q53 11 90 36t58.5 56t33.5 79.5t15.5 95.5t3.5 116v1073h57z" />
    <glyph glyph-name="k" unicode="k" horiz-adv-x="956" 
d="M160 0v1516h57v-906l584 475h78l-580 -477l625 -608h-78l-629 606v-606h-57z" />
    <glyph glyph-name="l" unicode="l" horiz-adv-x="374" 
d="M160 0v1516h57v-1516h-57z" />
    <glyph glyph-name="m" unicode="m" horiz-adv-x="1943" 
d="M160 0v1085h57v-202q30 59 72 103.5t81 67.5t83.5 37t73 17.5t55.5 3.5q207 0 319 -133q14 -15 32.5 -46.5t30.5 -56.5l11 -24q28 73 78 127q57 63 140 98t175 35q189 0 297 -108q125 -122 125 -396v-608h-57v608q0 248 -111 359q-89 92 -254 92q-79 0 -156 -31.5
t-125 -93.5q-51 -66 -67 -130.5t-16 -195.5v-608h-58v608q3 122 -15.5 192.5t-62.5 129.5q-94 123 -286 129q-78 3 -151 -31t-114 -88q-100 -115 -100 -322v-618h-57z" />
    <glyph glyph-name="n" unicode="n" horiz-adv-x="1312" 
d="M160 0v1085h57q0 -145 -2 -235q53 134 177 199.5t278 62.5q240 -6 362.5 -143t122.5 -385v-584h-57v584q0 226 -111.5 352t-329.5 123q-200 -3 -320 -114.5t-120 -319.5v-625h-57z" />
    <glyph glyph-name="o" unicode="o" horiz-adv-x="1312" 
d="M84 543v2q0 119 43.5 224t119 180.5t182 119t226.5 43.5q244 0 408 -163t164 -406q0 -161 -74.5 -291.5t-205.5 -204.5t-292 -74t-291.5 74t-205 204.5t-74.5 291.5zM141 543v-2q0 -220 147 -367t367 -147t367 147.5t147 368.5t-147 368.5t-367 147.5t-367 -147.5
t-147 -368.5z" />
    <glyph glyph-name="p" unicode="p" horiz-adv-x="1386" 
d="M160 -436v1521h57v-280q74 147 205.5 227t302.5 80q129 0 238.5 -47.5t181 -127t111.5 -182t40 -212.5q0 -112 -40.5 -215t-113 -182t-181 -126t-236.5 -47q-184 0 -322.5 94.5t-185.5 219.5v-287v-436h-57zM1239 543v2q-1 75 -21 147.5t-62.5 139t-102.5 117t-146 80.5
t-188 30q-215 0 -365 -150q-143 -149 -143 -368q0 -107 38.5 -202t108.5 -165t165 -108.5t202 -38.5q141 0 258 64.5t186.5 183.5t69.5 268z" />
    <glyph glyph-name="q" unicode="q" horiz-adv-x="1380" 
d="M1221 1085v-1521h-58v436v276q-48 -118 -186.5 -210.5t-321.5 -92.5q-128 0 -236.5 47t-181 126t-113 182t-40.5 215q0 110 40 212.5t111.5 182t181 127t238.5 47.5q170 0 301.5 -78.5t206.5 -218.5v270h58zM141 543v-2q0 -148 69.5 -266.5t186.5 -183t258 -64.5
q107 0 202 38.5t165 108.5t108.5 165t38.5 202q3 105 -35 199.5t-108 166.5t-164.5 112t-199.5 40q-102 0 -188 -30t-146 -80.5t-103 -117.5t-63 -140t-21 -148z" />
    <glyph glyph-name="r" unicode="r" horiz-adv-x="618" 
d="M160 0v1085h57v-206q24 51 56 91t69 64t68.5 39.5t72.5 23.5t62 10.5t55 4.5v-55h-16q-174 0 -270.5 -121t-96.5 -342v-594h-57z" />
    <glyph glyph-name="s" unicode="s" horiz-adv-x="872" 
d="M719 829h-57q0 115 -67 173.5t-163 56.5q-108 0 -175 -65t-62 -163q4 -94 59 -141.5t178 -81.5q126 -34 176 -62q133 -75 142 -247q8 -134 -85.5 -230t-232.5 -96q-91 0 -169 39.5t-124.5 116t-40.5 172.5h58q0 -127 77 -200.5t199 -73.5q118 0 190.5 77.5t69.5 186.5
q-3 110 -65 170t-197 90q-58 17 -94 29.5t-77 35.5t-64.5 50t-39.5 69t-18 96q0 131 84.5 206t210.5 75q125 -2 206 -75.5t81 -207.5z" />
    <glyph glyph-name="t" unicode="t" horiz-adv-x="606" 
d="M254 0v1032h-240v53h240v431h57v-431h279v-53h-279v-1032h-57z" />
    <glyph glyph-name="u" unicode="u" horiz-adv-x="1312" 
d="M1153 1085v-1085h-57q0 146 2 236q-53 -134 -177 -200t-278 -63q-240 6 -362.5 143.5t-122.5 385.5v583h57v-583q0 -226 111 -352t329 -123q200 3 320.5 114.5t120.5 319.5v624h57z" />
    <glyph glyph-name="v" unicode="v" horiz-adv-x="985" 
d="M975 1085l-447 -1085h-73l-447 1085h64l420 -1019l419 1019h64z" />
    <glyph glyph-name="w" unicode="w" horiz-adv-x="1552" 
d="M420 0l-400 1085h64l369 -1007l301 860h45l303 -860l366 1007h64l-399 -1085h-66l-293 836l-289 -836h-65z" />
    <glyph glyph-name="x" unicode="x" horiz-adv-x="833" 
d="M20 0l363 545l-363 540h74l324 -485l325 485h70l-360 -540l360 -545h-70l-325 489l-324 -489h-74z" />
    <glyph glyph-name="y" unicode="y" horiz-adv-x="985" 
d="M260 -436l193 438l-430 1083h63l401 -1005l428 1005h68l-657 -1521h-66z" />
    <glyph glyph-name="z" unicode="z" horiz-adv-x="833" 
d="M25 0v49l673 983h-637v53h711v-55l-674 -977h709v-53h-782z" />
    <glyph glyph-name="braceleft" unicode="{" horiz-adv-x="870" 
d="M705 1542v-53h-111q-80 0 -103.5 -45.5t-23.5 -190.5v-379q0 -116 -42 -229.5t-124 -159.5q75 -33 120.5 -137.5t45.5 -236.5v-375q0 -106 11 -155.5t36 -67t80 -17.5h111v-53h-136q-94 0 -131 61t-37 197v375q0 153 -34.5 243t-130.5 138v57q74 19 119.5 126.5
t45.5 266.5v383q0 134 37 193t131 59h136z" />
    <glyph glyph-name="bar" unicode="|" 
d="M539 1536h61v-2048h-61v2048z" />
    <glyph glyph-name="braceright" unicode="}" horiz-adv-x="870" 
d="M166 1489v53h135q94 0 131 -59t37 -193v-383q0 -159 46 -266.5t120 -126.5v-57q-96 -48 -131 -138.5t-35 -242.5v-375q0 -136 -37 -197t-131 -61h-135v53h110q55 0 80 17.5t36 67t11 155.5v375q0 132 45.5 236.5t120.5 137.5q-82 46 -124 159.5t-42 229.5v379
q0 145 -23.5 190.5t-103.5 45.5h-110z" />
    <glyph glyph-name="asciitilde" unicode="~" horiz-adv-x="1228" 
d="M1032 594l39 -39q-37 -67 -91.5 -106t-111.5 -39q-36 0 -80.5 12.5t-70.5 23.5t-82 37q-58 27 -83.5 38t-69.5 24.5t-76 13.5q-62 3 -113.5 -23.5t-97.5 -103.5l-39 37q39 74 106.5 113.5t143.5 33.5q13 0 26.5 -1t28.5 -4.5t26 -6t28 -8.5l25.5 -9t28 -11.5t25.5 -11
t27.5 -12t25.5 -11.5q5 -3 23 -11t24.5 -11t22.5 -10t23 -10t21.5 -8.5t22.5 -8t20 -6.5t21 -5.5t19.5 -2.5t19.5 -1q37 0 71 21.5t53 44.5t44 61z" />
    <glyph glyph-name="uni00A0" unicode="&#xa0;" horiz-adv-x="567" 
 />
    <glyph glyph-name="exclamdown" unicode="&#xa1;" horiz-adv-x="530" 
d="M236 922v165h61v-165h-61zM236 -428v1176h61v-1176h-61z" />
    <glyph glyph-name="cent" unicode="&#xa2;" 
d="M629 80h-62v221q-105 6 -189.5 51t-135 111.5t-77 142t-26.5 150.5q0 58 14.5 116.5t48 116.5t82 104.5t121.5 78.5t162 40v195h62v-197q53 -6 95.5 -18t95 -37.5t98 -74.5t79.5 -119h-67q-104 192 -334 192q-178 0 -286.5 -114.5t-108.5 -276.5q0 -77 25.5 -148t73 -128
t124 -91.5t170.5 -34.5q70 0 130 18.5t100 48t65.5 58.5t40.5 58h69q-30 -59 -73 -104t-82.5 -69.5t-85 -40.5t-74 -21t-55.5 -7v-221z" />
    <glyph glyph-name="sterling" unicode="&#xa3;" 
d="M827 805v-55h-499q35 -26 67.5 -60t67.5 -83.5t56.5 -116t21.5 -138.5q0 -156 -92 -297h188q129 0 193 21.5t116 70.5q109 117 109 261q0 40 -15 102h64q12 -58 12 -100q0 -100 -38.5 -177.5t-84.5 -123.5q-75 -66 -145.5 -87.5t-220.5 -21.5h-553v55h303q1 2 17.5 25.5
t27.5 44.5t26 55t23 77.5t8 92.5q0 119 -57.5 211.5t-179.5 188.5h-230v55h176q-81 106 -84 252q0 206 138 345.5t350 139.5q164 0 297.5 -99.5t177.5 -275.5h-63q-40 141 -153 230.5t-259 89.5q-186 -3 -303 -120.5t-123 -309.5q4 -142 102 -252h559z" />
    <glyph glyph-name="currency" unicode="&#xa4;" 
d="M1008 215l-156 156q-130 -105 -285 -105q-154 0 -284 105l-158 -156l-41 43l158 158q-115 127 -115 286q0 162 111 283l-158 158l43 43l158 -158q126 111 286 111q162 0 287 -109l156 156l45 -43l-156 -158q109 -122 109 -283q0 -162 -115 -286l158 -158zM188 702v-2
q0 -152 114 -262t265 -110q153 0 266 110t113 264q0 157 -112.5 266t-266.5 109q-152 0 -265.5 -109t-113.5 -266z" />
    <glyph glyph-name="yen" unicode="&#xa5;" 
d="M1042 838v-54h-419l-27 -53v-168h446v-53h-446v-510h-61v510h-439v53h439v168l-29 53h-410v54h379l-409 678h65l434 -717l443 717h65l-418 -678h387z" />
    <glyph glyph-name="brokenbar" unicode="&#xa6;" 
d="M539 1382h61v-716h-61v716zM539 358h61v-716h-61v716z" />
    <glyph glyph-name="section" unicode="&#xa7;" horiz-adv-x="1173" 
d="M975 1200h-57q-7 83 -34.5 140.5t-72.5 87t-95 41.5t-114 12q-138 0 -222.5 -77t-86.5 -202q1 -40 10 -73t26.5 -58.5t34.5 -44t45 -35.5t45 -26t46 -23l307 -145q244 -115 244 -316q0 -97 -53 -181t-142 -136q143 -101 143 -260q0 -156 -114 -258.5t-293 -102.5
q-223 0 -337 121t-97 338h57q-11 -191 81.5 -294t293.5 -103q157 0 252.5 80t99.5 219q-5 88 -50.5 147.5t-162.5 112.5l-399 184q-2 1 -17.5 9.5t-23 12.5t-25.5 16t-28.5 21t-27 25.5t-27 32t-23 38t-19 46t-11.5 53t-5 62.5q0 90 52 175t155 138q-94 89 -94 219
q0 159 104 252.5t262 93.5q169 0 271 -90.5t102 -251.5zM993 477v2q0 39 -9.5 73t-29 60t-36.5 44.5t-47.5 37t-46 26.5t-46.5 23l-405 195q-87 -42 -139.5 -113.5t-53.5 -167.5q1 -83 43 -146t115 -99l461 -213q67 28 130 106t64 172z" />
    <glyph glyph-name="dieresis" unicode="&#xa8;" 
d="M428 1483v-238h-59v238h59zM768 1483v-238h-59v238h59z" />
    <glyph glyph-name="copyright" unicode="&#xa9;" horiz-adv-x="1638" 
d="M819 1538h2q163 0 308 -61.5t248 -166t162.5 -248.5t59.5 -304q0 -163 -61.5 -308.5t-166 -249t-248.5 -163.5t-304 -60q-162 0 -306.5 59.5t-249 162t-165.5 248.5t-61 311q0 212 100 390.5t280 284t402 105.5zM819 1485h-2q-154 0 -289.5 -58.5t-230 -157t-149 -231.5
t-54.5 -280q0 -151 56 -285.5t152.5 -231.5t231 -153.5t285.5 -56.5q149 0 282.5 56t230.5 152.5t153.5 231.5t56.5 287q0 147 -54.5 280.5t-149 232t-230 156.5t-289.5 58zM1229 924h-58q-17 88 -74 147.5t-124 83t-142 23.5q-165 0 -275 -113t-110 -307q0 -89 23.5 -161
t61.5 -119t89 -79t103 -45.5t106 -13.5q22 0 47.5 3.5t67 13.5t78.5 33.5t73 57.5t61.5 92t33.5 132h57q-9 -119 -70 -208t-152.5 -133t-197.5 -44q-82 0 -158 28.5t-139.5 83t-102 147.5t-38.5 210q0 211 123 343t322 132q154 0 266 -86.5t129 -220.5z" />
    <glyph glyph-name="ordfeminine" unicode="&#xaa;" horiz-adv-x="899" 
d="M795 1526v-682h-58v170q-45 -91 -127 -139t-186 -48q-162 0 -266.5 107t-104.5 252q0 148 107.5 252t263.5 104q103 0 184.5 -49.5t128.5 -140.5v174h58zM111 1178v-2q0 -50 21 -101.5t59.5 -95t100 -71t134.5 -27.5q94 0 167.5 45t111.5 118q32 69 32 140q0 62 -26 125
q-39 81 -116.5 130.5t-170.5 49.5q-125 0 -219 -84.5t-94 -226.5z" />
    <glyph glyph-name="guillemotleft" unicode="&#xab;" horiz-adv-x="718" 
d="M94 565l234 398h71l-233 -398l233 -391h-71zM322 565l233 398h72l-234 -398l234 -391h-72z" />
    <glyph glyph-name="logicalnot" unicode="&#xac;" horiz-adv-x="1228" 
d="M102 739h1024v-454h-57v397h-967v57z" />
    <glyph glyph-name="uni00AD" unicode="&#xad;" horiz-adv-x="544" 
d="M0 596h545v-59h-545v59z" />
    <glyph glyph-name="registered" unicode="&#xae;" horiz-adv-x="1638" 
d="M819 1538h2q163 0 308 -61.5t248 -166t162.5 -248.5t59.5 -304q0 -163 -61.5 -308.5t-166 -249t-248.5 -163.5t-304 -60q-162 0 -306.5 59.5t-249 162t-165.5 248.5t-61 311q0 212 100 390.5t280 284t402 105.5zM819 1485h-2q-154 0 -289.5 -58.5t-230 -157t-149 -231.5
t-54.5 -280q0 -151 56 -285.5t152.5 -231.5t231 -153.5t285.5 -56.5q149 0 282.5 56t230.5 152.5t153.5 231.5t56.5 287q0 147 -54.5 280.5t-149 232t-230 156.5t-289.5 58zM481 1206h379q20 0 35 -0.5t50 -5t61.5 -13t60 -26.5t55 -43t37 -65t15.5 -90q0 -161 -177 -224
q88 -23 120.5 -73.5t37.5 -133.5q9 -142 13.5 -175.5t17.5 -57.5h-60q-10 16 -13 43.5t-11 161.5q-2 29 -4 46t-6.5 39.5t-13 36t-21.5 29.5t-33 24.5t-47 16.5t-64 11.5t-84 3.5h-290v-412h-58v907zM850 1153h-311v-389h286q6 1 31 3t43 4t47 8t50 14t45 23.5t39.5 34.5
t25.5 48t10 64q0 190 -266 190z" />
    <glyph glyph-name="macron" unicode="&#xaf;" 
d="M932 1382v-61h-729v61h729z" />
    <glyph glyph-name="degree" unicode="&#xb0;" horiz-adv-x="819" 
d="M702 1159v-2q0 -122 -84.5 -206.5t-207.5 -84.5t-208 85t-85 208t85 208t208 85t207.5 -85t84.5 -208zM174 1159v-2q0 -97 68.5 -165t167.5 -68t167 68t68 167t-68 167.5t-167 68.5t-167.5 -68.5t-68.5 -167.5z" />
    <glyph glyph-name="plusminus" unicode="&#xb1;" horiz-adv-x="1228" 
d="M586 633v403h57v-403h487v-58h-487v-403h-57v403h-488v58h488zM98 0v57h1032v-57h-1032z" />
    <glyph glyph-name="twosuperior" unicode="&#xb2;" horiz-adv-x="718" 
d="M629 657v-51h-555v47q61 63 187.5 195.5t191.5 200.5q60 66 86 114.5t26 98.5q0 41 -10.5 77.5t-33.5 69.5t-65.5 52.5t-99.5 19.5q-96 0 -153.5 -67.5t-57.5 -184.5h-57q0 126 59 201q38 51 95 76.5t118 25.5q118 0 190.5 -72.5t72.5 -197.5q0 -63 -32.5 -121
t-98.5 -129q-54 -55 -338 -355h475z" />
    <glyph glyph-name="threesuperior" unicode="&#xb3;" horiz-adv-x="718" 
d="M68 881h57q1 -64 24 -113t58 -75t72 -39t73 -13q105 0 166.5 64t61.5 165q0 38 -14 76t-41.5 73.5t-76.5 58t-112 22.5h-55v51h55q49 0 86 14.5t55 34t29 45.5t13.5 41.5t2.5 28.5q0 69 -43.5 117t-116.5 49t-118.5 -45t-48.5 -121h-58q3 56 25 100t55.5 68.5t70.5 36.5
t74 12q87 0 152.5 -61t65.5 -154q0 -129 -117 -189q77 -31 125.5 -100.5t48.5 -153.5q0 -124 -80 -204t-205 -80q-68 0 -130.5 30t-102.5 87q-51 74 -51 174z" />
    <glyph glyph-name="acute" unicode="&#xb4;" 
d="M328 1255l485 283l29 -47l-488 -283z" />
    <glyph glyph-name="mu" unicode="&#xb5;" horiz-adv-x="1148" 
d="M160 -371v1456h57v-614q0 -54 2 -88t8.5 -82.5t24 -88t45.5 -71.5q96 -114 272 -114q173 0 271 133q104 135 104 409v516h57v-1085h-57v244q-13 -35 -26.5 -63t-45 -69.5t-69 -69.5t-99 -48.5t-135.5 -20.5q-65 0 -120.5 13.5t-90.5 32t-65.5 47t-45 47.5t-30.5 45v-189
v-340h-57z" />
    <glyph glyph-name="paragraph" unicode="&#xb6;" horiz-adv-x="1148" 
d="M489 -258v960q-97 0 -180 24t-147 72t-100.5 127t-36.5 181q0 104 38 184t104.5 128.5t151.5 73t185 24.5h504v-58h-131v-1716h-62v1712h-264v-1712h-62z" />
    <glyph glyph-name="periodcentered" unicode="&#xb7;" horiz-adv-x="567" 
d="M315 606v-166h-61v166h61z" />
    <glyph glyph-name="cedilla" unicode="&#xb8;" 
d="M594 0l-49 -117q12 6 26 6q68 0 108 -44t40 -101q0 -61 -40 -108.5t-110 -47.5q-12 0 -24.5 1.5t-34 8.5t-38.5 19.5t-32.5 38t-21.5 59.5h55q18 -71 96 -71q37 0 65.5 26t29.5 74q-1 40 -29 66t-66 26q-55 0 -84 -51l-45 10l95 205h59z" />
    <glyph glyph-name="onesuperior" unicode="&#xb9;" horiz-adv-x="718" 
d="M403 1516v-910h-57v858h-194v52h251z" />
    <glyph glyph-name="ordmasculine" unicode="&#xba;" horiz-adv-x="899" 
d="M90 1178v2q0 154 102 257t254 105q158 0 260.5 -105t102.5 -251q0 -104 -53 -188t-135.5 -127.5t-174.5 -43.5q-146 0 -251 103t-105 248zM147 1180v-2q0 -120 88 -208.5t211 -88.5q80 0 149.5 38.5t112.5 109t44 157.5q-2 125 -87.5 214t-213.5 89q-124 0 -214 -86
t-90 -223z" />
    <glyph glyph-name="guillemotright" unicode="&#xbb;" horiz-adv-x="718" 
d="M391 961l234 -398l-234 -391h-72l234 391l-234 398h72zM164 961l233 -398l-233 -391h-72l234 391l-234 398h72z" />
    <glyph glyph-name="onequarter" unicode="&#xbc;" horiz-adv-x="1433" 
d="M1028 1516l-676 -1516h-59l674 1516h61zM1260 909v-684h86v-51h-86v-174h-58v174h-467v43l457 692h68zM342 1516v-910h-57v858h-195v52h252zM1202 834l-397 -609h397v609z" />
    <glyph glyph-name="onehalf" unicode="&#xbd;" horiz-adv-x="1536" 
d="M342 1516v-910h-57v858h-195v52h252zM1028 1516l-676 -1516h-59l674 1516h61zM1448 51v-51h-555v47q62 65 188.5 196.5t190.5 198.5q60 66 86 114.5t26 98.5q0 41 -10.5 77.5t-33 69.5t-65 52.5t-99.5 19.5q-96 0 -153.5 -67t-57.5 -184h-58q0 111 47 184q38 60 99 89.5
t127 29.5q118 0 190 -73t72 -198q0 -63 -32.5 -120.5t-98.5 -128.5q-53 -55 -338 -355h475z" />
    <glyph glyph-name="threequarters" unicode="&#xbe;" horiz-adv-x="1652" 
d="M1481 909v-684h86v-51h-86v-174h-58v174h-467v43l457 692h68zM1249 1516l-676 -1516h-59l674 1516h61zM1423 834l-397 -609h397v609zM82 881h57q1 -64 24 -113t58.5 -75t72 -39t73.5 -13q105 0 166 64t61 165q0 38 -14 76t-41.5 73.5t-76.5 58t-112 22.5h-55v51h55
q49 0 86 14.5t55.5 34.5t29.5 45.5t13.5 41t2.5 28.5q0 69 -43.5 117t-116.5 49t-119 -45.5t-49 -120.5h-57q3 56 25 100t55.5 68.5t70.5 36.5t74 12q87 0 152 -60.5t65 -154.5q0 -129 -117 -189q77 -31 125.5 -100.5t48.5 -153.5q0 -124 -79.5 -204t-204.5 -80
q-71 0 -135.5 32t-102.5 93q-47 70 -47 166z" />
    <glyph glyph-name="questiondown" unicode="&#xbf;" horiz-adv-x="1097" 
d="M541 920v165h59v-165h-59zM539 745h61q-2 -53 -4 -81.5t-12 -78.5t-28.5 -87.5t-54.5 -87.5t-87 -99q-15 -16 -50.5 -52t-51 -52t-40.5 -48t-36.5 -56t-21.5 -59t-11 -73q0 -150 105.5 -256t264.5 -106q45 0 91 10t93 33.5t85 57.5t66.5 86t39.5 116q6 30 6 61h62
q0 -19 -4 -55q-12 -82 -47 -148t-81 -107t-102.5 -68.5t-107.5 -38.5t-99 -11q-114 0 -212.5 53t-160 153t-61.5 224q0 30 4.5 58.5t18.5 58t23 50t34 51.5t35.5 45t43 47t41 41t44.5 43q55 54 89 107.5t47 107t15.5 82.5t2.5 79z" />
    <glyph glyph-name="Agrave" unicode="&#xc0;" horiz-adv-x="1406" 
d="M307 528l-227 -528h-66l650 1516h79l650 -1516h-66l-227 528h-793zM1073 584l-371 874l-368 -874h739zM449 1927l485 -282l-27 -48l-487 283z" />
    <glyph glyph-name="Aacute" unicode="&#xc1;" horiz-adv-x="1406" 
d="M307 528l-227 -528h-66l650 1516h79l650 -1516h-66l-227 528h-793zM1073 584l-371 874l-368 -874h739zM473 1645l485 282l29 -47l-487 -283z" />
    <glyph glyph-name="Acircumflex" unicode="&#xc2;" horiz-adv-x="1406" 
d="M307 528l-227 -528h-66l650 1516h79l650 -1516h-66l-227 528h-793zM1073 584l-371 874l-368 -874h739zM731 1874l373 -240h-92l-310 195l-307 -195h-92l371 240h57z" />
    <glyph glyph-name="Atilde" unicode="&#xc3;" horiz-adv-x="1406" 
d="M307 528l-227 -528h-66l650 1516h79l650 -1516h-66l-227 528h-793zM1073 584l-371 874l-368 -874h739zM1036 1802l41 -41q-71 -82 -194 -82q-88 0 -197 41q-93 35 -162 35q-98 0 -153 -65l-41 41q70 81 194 81q91 0 197 -40q93 -35 162 -35q98 0 153 65z" />
    <glyph glyph-name="Adieresis" unicode="&#xc4;" horiz-adv-x="1406" 
d="M307 528l-227 -528h-66l650 1516h79l650 -1516h-66l-227 528h-793zM1073 584l-371 874l-368 -874h739zM563 1872v-238h-59v238h59zM903 1872v-238h-59v238h59z" />
    <glyph glyph-name="Aring" unicode="&#xc5;" horiz-adv-x="1406" 
d="M307 528l-227 -528h-66l650 1516h79l650 -1516h-66l-227 528h-793zM1073 584l-371 874l-368 -874h739zM702 1929h3q77 0 131.5 -54.5t54.5 -131.5t-55.5 -132t-133.5 -55q-76 0 -131 55t-55 132t55 131.5t131 54.5zM702 1876h-2q-52 0 -89.5 -38.5t-37.5 -92.5
q0 -53 37.5 -91t91.5 -38q55 0 93.5 38t38.5 91q0 54 -38.5 92.5t-93.5 38.5z" />
    <glyph glyph-name="AE" unicode="&#xc6;" horiz-adv-x="1933" 
d="M-16 0l1048 1516h750v-56h-647v-669h647v-56h-647v-680h647v-55h-709v541h-645l-375 -541h-69zM473 596h600v883z" />
    <glyph glyph-name="Ccedilla" unicode="&#xc7;" horiz-adv-x="1609" 
d="M860 -27l-41 -90q24 6 31 6q68 0 107.5 -44t39.5 -101q0 -61 -39.5 -108.5t-109.5 -47.5q-16 0 -33.5 3.5t-44 14t-47 39t-27.5 70.5h56q18 -71 96 -71q37 0 65 26t29 74q-1 40 -28.5 66t-65.5 26q-55 0 -84 -51l-45 10l84 182q-149 12 -281 75t-229 164.5t-153 242
t-56 299.5q0 167 62 314t168 249.5t250.5 161.5t305.5 59q116 -1 223.5 -33t190 -86t144.5 -115t106 -130h-72q-22 31 -51 63.5t-85 78.5t-118.5 81t-152.5 60t-185 26q-149 0 -282.5 -55.5t-231 -151t-154.5 -232t-57 -290.5t57 -290.5t154.5 -232t231 -151t282.5 -55.5
q100 0 193.5 26.5t155.5 61.5t118 82.5t81 75.5t44 55h70q-40 -68 -103 -129.5t-147 -113.5t-194 -83t-228 -31z" />
    <glyph glyph-name="Egrave" unicode="&#xc8;" horiz-adv-x="1120" 
d="M158 0v1516h831v-56h-770v-669h770v-56h-770v-680h770v-55h-831zM315 1937l486 -282l-27 -47l-487 282z" />
    <glyph glyph-name="Eacute" unicode="&#xc9;" horiz-adv-x="1120" 
d="M158 0v1516h831v-56h-770v-669h770v-56h-770v-680h770v-55h-831zM319 1655l486 282l29 -47l-488 -282z" />
    <glyph glyph-name="Ecircumflex" unicode="&#xca;" horiz-adv-x="1120" 
d="M158 0v1516h831v-56h-770v-669h770v-56h-770v-680h770v-55h-831zM588 1884l373 -239h-93l-309 194l-307 -194h-92l370 239h58z" />
    <glyph glyph-name="Edieresis" unicode="&#xcb;" horiz-adv-x="1120" 
d="M158 0v1516h831v-56h-770v-669h770v-56h-770v-680h770v-55h-831zM420 1882v-237h-60v237h60zM760 1882v-237h-60v237h60z" />
    <glyph glyph-name="Igrave" unicode="&#xcc;" horiz-adv-x="378" 
d="M158 0v1516h61v-1516h-61zM-96 1927l485 -282l-27 -48l-487 283z" />
    <glyph glyph-name="Iacute" unicode="&#xcd;" horiz-adv-x="378" 
d="M158 0v1516h61v-1516h-61zM-10 1645l485 282l29 -47l-488 -283z" />
    <glyph glyph-name="Icircumflex" unicode="&#xce;" horiz-adv-x="378" 
d="M158 0v1516h61v-1516h-61zM217 1864l373 -240h-92l-310 195l-307 -195h-92l371 240h57z" />
    <glyph glyph-name="Idieresis" unicode="&#xcf;" horiz-adv-x="378" 
d="M158 0v1516h61v-1516h-61zM49 1872v-238h-59v238h59zM389 1872v-238h-59v238h59z" />
    <glyph glyph-name="Eth" unicode="&#xd0;" horiz-adv-x="1435" 
d="M158 791v725h428q360 0 561 -201q203 -200 203 -557t-203 -557.5t-561 -200.5h-428v735h-158v56h158zM219 1460v-669h514v-56h-514v-680h367q329 0 515.5 185.5t186.5 513.5q0 333 -184 520q-186 186 -518 186h-367z" />
    <glyph glyph-name="Ntilde" unicode="&#xd1;" horiz-adv-x="1511" 
d="M250 1516l1042 -1434v1434h62v-1516h-78l-1057 1454v-1454h-61v1516h92zM1090 1792l40 -41q-71 -82 -194 -82q-88 0 -197 41q-93 35 -161 35q-98 0 -154 -66l-41 41q71 82 195 82q87 0 196 -41q93 -35 162 -35q98 0 154 66z" />
    <glyph glyph-name="Ograve" unicode="&#xd2;" horiz-adv-x="1742" 
d="M84 758v2q0 166 62 312.5t168 249t250.5 161.5t305.5 59q129 0 248.5 -37.5t216.5 -108t169.5 -165.5t112.5 -217t40 -256q0 -223 -106 -403.5t-286 -281t-395 -100.5q-161 0 -305.5 59t-250.5 162t-168 250t-62 314zM145 758v-2q0 -154 57 -289.5t154.5 -231t231.5 -151
t282 -55.5q149 0 282.5 55.5t231 151t154.5 232t57 290.5t-57 290.5t-154.5 232t-231 151t-282.5 55.5t-282.5 -55.5t-231 -151t-154.5 -232t-57 -290.5zM627 1937l485 -282l-27 -47l-487 282z" />
    <glyph glyph-name="Oacute" unicode="&#xd3;" horiz-adv-x="1742" 
d="M84 758v2q0 166 62 312.5t168 249t250.5 161.5t305.5 59q129 0 248.5 -37.5t216.5 -108t169.5 -165.5t112.5 -217t40 -256q0 -223 -106 -403.5t-286 -281t-395 -100.5q-161 0 -305.5 59t-250.5 162t-168 250t-62 314zM145 758v-2q0 -154 57 -289.5t154.5 -231t231.5 -151
t282 -55.5q149 0 282.5 55.5t231 151t154.5 232t57 290.5t-57 290.5t-154.5 232t-231 151t-282.5 55.5t-282.5 -55.5t-231 -151t-154.5 -232t-57 -290.5zM631 1655l485 282l29 -47l-488 -282z" />
    <glyph glyph-name="Ocircumflex" unicode="&#xd4;" horiz-adv-x="1742" 
d="M84 758v2q0 166 62 312.5t168 249t250.5 161.5t305.5 59q129 0 248.5 -37.5t216.5 -108t169.5 -165.5t112.5 -217t40 -256q0 -223 -106 -403.5t-286 -281t-395 -100.5q-161 0 -305.5 59t-250.5 162t-168 250t-62 314zM145 758v-2q0 -154 57 -289.5t154.5 -231t231.5 -151
t282 -55.5q149 0 282.5 55.5t231 151t154.5 232t57 290.5t-57 290.5t-154.5 232t-231 151t-282.5 55.5t-282.5 -55.5t-231 -151t-154.5 -232t-57 -290.5zM899 1874l373 -240h-92l-310 195l-307 -195h-92l371 240h57z" />
    <glyph glyph-name="Otilde" unicode="&#xd5;" horiz-adv-x="1742" 
d="M84 758v2q0 166 62 312.5t168 249t250.5 161.5t305.5 59q129 0 248.5 -37.5t216.5 -108t169.5 -165.5t112.5 -217t40 -256q0 -223 -106 -403.5t-286 -281t-395 -100.5q-161 0 -305.5 59t-250.5 162t-168 250t-62 314zM145 758v-2q0 -154 57 -289.5t154.5 -231t231.5 -151
t282 -55.5q149 0 282.5 55.5t231 151t154.5 232t57 290.5t-57 290.5t-154.5 232t-231 151t-282.5 55.5t-282.5 -55.5t-231 -151t-154.5 -232t-57 -290.5zM1204 1792l41 -41q-71 -82 -194 -82q-88 0 -197 41q-93 35 -162 35q-97 0 -153 -66l-41 41q71 82 194 82q88 0 197 -41
q93 -35 162 -35q97 0 153 66z" />
    <glyph glyph-name="Odieresis" unicode="&#xd6;" horiz-adv-x="1742" 
d="M84 758v2q0 166 62 312.5t168 249t250.5 161.5t305.5 59q129 0 248.5 -37.5t216.5 -108t169.5 -165.5t112.5 -217t40 -256q0 -223 -106 -403.5t-286 -281t-395 -100.5q-161 0 -305.5 59t-250.5 162t-168 250t-62 314zM145 758v-2q0 -154 57 -289.5t154.5 -231t231.5 -151
t282 -55.5q149 0 282.5 55.5t231 151t154.5 232t57 290.5t-57 290.5t-154.5 232t-231 151t-282.5 55.5t-282.5 -55.5t-231 -151t-154.5 -232t-57 -290.5zM731 1882v-237h-59v237h59zM1071 1882v-237h-59v237h59z" />
    <glyph glyph-name="multiply" unicode="&#xd7;" horiz-adv-x="1228" 
d="M143 0l-41 43l469 471l-469 463l41 45l471 -467l471 467l41 -45l-469 -463l469 -471l-41 -43l-471 473z" />
    <glyph glyph-name="Oslash" unicode="&#xd8;" horiz-adv-x="1742" 
d="M1319 1409l151 209h76l-178 -246q136 -110 212.5 -268t76.5 -346q0 -223 -106 -403.5t-286 -281t-395 -100.5q-241 0 -430 125l-147 -200h-76l172 233q-142 107 -223.5 270t-81.5 357q0 167 62 314t168 249.5t250.5 161.5t305.5 59q251 0 449 -133zM424 178l858 1182
q-181 127 -412 127q-149 0 -282.5 -55.5t-231 -151t-154.5 -232t-57 -290.5q0 -179 74.5 -330t204.5 -250zM1335 1327l-860 -1182q176 -116 395 -116q149 0 282.5 55.5t231 151t154.5 232t57 290.5q0 173 -69.5 320.5t-190.5 248.5z" />
    <glyph glyph-name="Ugrave" unicode="&#xd9;" horiz-adv-x="1239" 
d="M156 1516h61v-984q0 -70 1.5 -104.5t10 -84t28.5 -90t54 -85.5q49 -64 134.5 -101.5t177.5 -37.5q88 0 172 37.5t133 101.5q34 45 54 85.5t28.5 90t10 84t1.5 104.5v984h61v-984q1 -66 -3 -115.5t-20 -119t-56 -128.5t-103 -103q-127 -93 -283 -93q-153 0 -280 93
q-63 44 -103 103t-56 128.5t-20 119t-3 115.5v984zM313 1907l486 -283l-27 -47l-487 283z" />
    <glyph glyph-name="Uacute" unicode="&#xda;" horiz-adv-x="1239" 
d="M156 1516h61v-984q0 -70 1.5 -104.5t10 -84t28.5 -90t54 -85.5q49 -64 134.5 -101.5t177.5 -37.5q88 0 172 37.5t133 101.5q34 45 54 85.5t28.5 90t10 84t1.5 104.5v984h61v-984q1 -66 -3 -115.5t-20 -119t-56 -128.5t-103 -103q-127 -93 -283 -93q-153 0 -280 93
q-63 44 -103 103t-56 128.5t-20 119t-3 115.5v984zM379 1624l485 283l29 -47l-487 -283z" />
    <glyph glyph-name="Ucircumflex" unicode="&#xdb;" horiz-adv-x="1239" 
d="M156 1516h61v-984q0 -70 1.5 -104.5t10 -84t28.5 -90t54 -85.5q49 -64 134.5 -101.5t177.5 -37.5q88 0 172 37.5t133 101.5q34 45 54 85.5t28.5 90t10 84t1.5 104.5v984h61v-984q1 -66 -3 -115.5t-20 -119t-56 -128.5t-103 -103q-127 -93 -283 -93q-153 0 -280 93
q-63 44 -103 103t-56 128.5t-20 119t-3 115.5v984zM647 1853l373 -239h-92l-310 194l-307 -194h-92l371 239h57z" />
    <glyph glyph-name="Udieresis" unicode="&#xdc;" horiz-adv-x="1239" 
d="M156 1516h61v-984q0 -70 1.5 -104.5t10 -84t28.5 -90t54 -85.5q49 -64 134.5 -101.5t177.5 -37.5q88 0 172 37.5t133 101.5q34 45 54 85.5t28.5 90t10 84t1.5 104.5v984h61v-984q1 -66 -3 -115.5t-20 -119t-56 -128.5t-103 -103q-127 -93 -283 -93q-153 0 -280 93
q-63 44 -103 103t-56 128.5t-20 119t-3 115.5v984zM479 1851v-237h-59v237h59zM819 1851v-237h-59v237h59z" />
    <glyph glyph-name="Yacute" unicode="&#xdd;" horiz-adv-x="1134" 
d="M537 0v522l-506 994h67l469 -924l467 924h70l-506 -994v-522h-61zM389 1624l485 283l29 -47l-487 -283z" />
    <glyph glyph-name="Thorn" unicode="&#xde;" horiz-adv-x="1046" 
d="M137 0v1516h62v-320h290q151 0 228 -18t151 -72q68 -50 111 -144t43 -196t-43 -196t-111 -144q-74 -54 -151 -72t-228 -18h-290v-336h-62zM199 1141v-750h293q132 0 205.5 18t138.5 66q54 42 89.5 122.5t35.5 166.5q0 88 -35 169.5t-90 123.5q-65 48 -138.5 66t-205.5 18
h-293z" />
    <glyph glyph-name="germandbls" unicode="&#xdf;" horiz-adv-x="1144" 
d="M156 0v969q0 174 17 261t63 150q50 76 134.5 119t176.5 43q185 0 293 -111t108 -292q0 -118 -57 -215t-170 -154q83 -11 149.5 -49.5t106.5 -93.5t61 -118.5t21 -129.5q0 -180 -127 -293t-316 -113q-69 1 -132 20.5t-122 61.5t-99 120.5t-50 184.5v-360h-57zM213 969
v-578h53q3 -84 29 -150t63 -104.5t85.5 -64t92 -35t87.5 -10.5q164 0 271 96t107 246q0 176 -129 282q-56 40 -119 59.5t-190 20.5h-57v53h55q130 0 230 102t100 253q0 165 -94 257.5t-248 92.5q-77 0 -149.5 -35.5t-110.5 -93.5q-49 -72 -62.5 -151.5t-13.5 -239.5z" />
    <glyph glyph-name="agrave" unicode="&#xe0;" horiz-adv-x="1380" 
d="M1221 1085v-1085h-58v281q-74 -147 -205.5 -227.5t-302.5 -80.5q-129 0 -238.5 48t-181 127.5t-111.5 182t-40 212.5q0 151 68.5 279.5t201 209t301.5 80.5q125 0 234 -47.5t176.5 -117t97.5 -148.5v286h58zM141 543v-2q1 -75 21 -147.5t63 -139t103 -117t146 -80.5
t188 -30q169 0 296 93t181 245q33 85 30 190q0 106 -36 188q-56 143 -185 229.5t-293 86.5q-141 0 -258 -64.5t-186.5 -183.5t-69.5 -268zM446 1538l486 -283l-27 -47l-487 283z" />
    <glyph glyph-name="aacute" unicode="&#xe1;" horiz-adv-x="1380" 
d="M1221 1085v-1085h-58v281q-74 -147 -205.5 -227.5t-302.5 -80.5q-129 0 -238.5 48t-181 127.5t-111.5 182t-40 212.5q0 151 68.5 279.5t201 209t301.5 80.5q125 0 234 -47.5t176.5 -117t97.5 -148.5v286h58zM141 543v-2q1 -75 21 -147.5t63 -139t103 -117t146 -80.5
t188 -30q169 0 296 93t181 245q33 85 30 190q0 106 -36 188q-56 143 -185 229.5t-293 86.5q-141 0 -258 -64.5t-186.5 -183.5t-69.5 -268zM440 1255l486 283l28 -47l-487 -283z" />
    <glyph glyph-name="acircumflex" unicode="&#xe2;" horiz-adv-x="1380" 
d="M1221 1085v-1085h-58v281q-74 -147 -205.5 -227.5t-302.5 -80.5q-129 0 -238.5 48t-181 127.5t-111.5 182t-40 212.5q0 151 68.5 279.5t201 209t301.5 80.5q125 0 234 -47.5t176.5 -117t97.5 -148.5v286h58zM141 543v-2q1 -75 21 -147.5t63 -139t103 -117t146 -80.5
t188 -30q169 0 296 93t181 245q33 85 30 190q0 106 -36 188q-56 143 -185 229.5t-293 86.5q-141 0 -258 -64.5t-186.5 -183.5t-69.5 -268zM719 1485l373 -240h-93l-309 195l-307 -195h-92l371 240h57z" />
    <glyph glyph-name="atilde" unicode="&#xe3;" horiz-adv-x="1380" 
d="M1221 1085v-1085h-58v281q-74 -147 -205.5 -227.5t-302.5 -80.5q-129 0 -238.5 48t-181 127.5t-111.5 182t-40 212.5q0 151 68.5 279.5t201 209t301.5 80.5q125 0 234 -47.5t176.5 -117t97.5 -148.5v286h58zM141 543v-2q1 -75 21 -147.5t63 -139t103 -117t146 -80.5
t188 -30q169 0 296 93t181 245q33 85 30 190q0 106 -36 188q-56 143 -185 229.5t-293 86.5q-141 0 -258 -64.5t-186.5 -183.5t-69.5 -268zM1024 1403l41 -41q-71 -82 -195 -82q-87 0 -196 41q-93 35 -162 35q-98 0 -154 -66l-41 41q71 82 195 82q88 0 197 -41
q93 -35 161 -35q98 0 154 66z" />
    <glyph glyph-name="adieresis" unicode="&#xe4;" horiz-adv-x="1380" 
d="M1221 1085v-1085h-58v281q-74 -147 -205.5 -227.5t-302.5 -80.5q-129 0 -238.5 48t-181 127.5t-111.5 182t-40 212.5q0 151 68.5 279.5t201 209t301.5 80.5q125 0 234 -47.5t176.5 -117t97.5 -148.5v286h58zM141 543v-2q1 -75 21 -147.5t63 -139t103 -117t146 -80.5
t188 -30q169 0 296 93t181 245q33 85 30 190q0 106 -36 188q-56 143 -185 229.5t-293 86.5q-141 0 -258 -64.5t-186.5 -183.5t-69.5 -268zM530 1483v-238h-59v238h59zM870 1483v-238h-59v238h59z" />
    <glyph glyph-name="aring" unicode="&#xe5;" horiz-adv-x="1380" 
d="M1221 1085v-1085h-58v281q-74 -147 -205.5 -227.5t-302.5 -80.5q-129 0 -238.5 48t-181 127.5t-111.5 182t-40 212.5q0 151 68.5 279.5t201 209t301.5 80.5q125 0 234 -47.5t176.5 -117t97.5 -148.5v286h58zM141 543v-2q1 -75 21 -147.5t63 -139t103 -117t146 -80.5
t188 -30q169 0 296 93t181 245q33 85 30 190q0 106 -36 188q-56 143 -185 229.5t-293 86.5q-141 0 -258 -64.5t-186.5 -183.5t-69.5 -268zM670 1561h2q76 0 131 -55t55 -132t-55 -131.5t-133 -54.5q-77 0 -132 55t-55 131q0 77 55.5 132t131.5 55zM670 1507h-2
q-52 0 -89.5 -38.5t-37.5 -92.5q0 -53 37.5 -91t91.5 -38q55 0 93 38t38 91q0 54 -38 92.5t-93 38.5z" />
    <glyph glyph-name="ae" unicode="&#xe6;" horiz-adv-x="2363" 
d="M2279 537h-1060q9 -101 39.5 -183.5t75 -136t95.5 -92.5t107 -59.5t102 -29.5t88 -9q80 0 153 25t129 68t98 91t73 102h68q-65 -144 -204 -242t-310 -98q-183 0 -316 94t-198 265v-332h-58v332q-39 -149 -184 -254t-322 -105q-118 0 -216 36.5t-162.5 95t-109 134
t-64 152t-19.5 150.5q0 120 43.5 226.5t119 182t180.5 119t224 43.5q187 0 311 -88t199 -256v317h58v-315q142 342 491 342q129 0 235 -46.5t181 -129.5q73 -79 112 -182.5t41 -216.5zM141 543v-2q0 -220 147.5 -367t368.5 -147q136 0 253.5 72t185 191t67.5 253
q0 102 -38.5 195.5t-108.5 164.5q-153 156 -359 156q-221 0 -368.5 -147.5t-147.5 -368.5zM1221 590h995q-36 227 -170.5 348t-331.5 121q-218 0 -364 -168q-45 -51 -73 -108t-37 -93.5t-19 -99.5z" />
    <glyph glyph-name="ccedilla" unicode="&#xe7;" horiz-adv-x="1267" 
d="M651 -27l-41 -90q24 6 31 6q68 0 107.5 -44t39.5 -101q0 -61 -39.5 -108.5t-109.5 -47.5q-16 0 -33.5 3.5t-44 14t-47 39t-27.5 70.5h56q18 -71 96 -71q37 0 65 26t29 74q-1 40 -28.5 66t-65.5 26q-55 0 -84 -51l-45 10l84 185q-220 19 -365 174.5t-145 388.5
q1 119 44.5 224.5t118.5 181t181 119.5t227 44q114 0 219 -40t193 -128t129 -211h-63q-30 86 -86 152t-123 102.5t-134.5 54.5t-132.5 17q-113 -1 -196 -35t-170 -111q-67 -61 -108.5 -161.5t-41.5 -208.5q0 -149 71 -268.5t188 -183.5t255 -64q89 1 170 27.5t140.5 70.5
t102 99.5t62.5 117.5h64q-57 -167 -202.5 -266.5t-340.5 -102.5z" />
    <glyph glyph-name="egrave" unicode="&#xe8;" horiz-adv-x="1267" 
d="M1204 537h-1081q1 -102 34.5 -188.5t86.5 -145t121 -99.5t137 -59.5t135 -17.5q153 0 276 75t187 211h63q-71 -166 -219 -258q-137 -82 -309 -82q-118 0 -216.5 36t-162.5 94t-109 133.5t-64.5 152t-19.5 152.5q0 160 75.5 291.5t207 205.5t291.5 74q109 0 210 -37.5
t179 -107.5q90 -80 137.5 -195t40.5 -235zM125 590h1022q-6 128 -79.5 238.5t-189.5 173t-241 57.5q-204 0 -352 -133t-160 -336zM389 1538l485 -283l-26 -47l-488 283z" />
    <glyph glyph-name="eacute" unicode="&#xe9;" horiz-adv-x="1267" 
d="M1204 537h-1081q1 -102 34.5 -188.5t86.5 -145t121 -99.5t137 -59.5t135 -17.5q153 0 276 75t187 211h63q-71 -166 -219 -258q-137 -82 -309 -82q-118 0 -216.5 36t-162.5 94t-109 133.5t-64.5 152t-19.5 152.5q0 160 75.5 291.5t207 205.5t291.5 74q109 0 210 -37.5
t179 -107.5q90 -80 137.5 -195t40.5 -235zM125 590h1022q-6 128 -79.5 238.5t-189.5 173t-241 57.5q-204 0 -352 -133t-160 -336zM383 1255l485 283l29 -47l-487 -283z" />
    <glyph glyph-name="ecircumflex" unicode="&#xea;" horiz-adv-x="1267" 
d="M1204 537h-1081q1 -102 34.5 -188.5t86.5 -145t121 -99.5t137 -59.5t135 -17.5q153 0 276 75t187 211h63q-71 -166 -219 -258q-137 -82 -309 -82q-118 0 -216.5 36t-162.5 94t-109 133.5t-64.5 152t-19.5 152.5q0 160 75.5 291.5t207 205.5t291.5 74q109 0 210 -37.5
t179 -107.5q90 -80 137.5 -195t40.5 -235zM125 590h1022q-6 128 -79.5 238.5t-189.5 173t-241 57.5q-204 0 -352 -133t-160 -336zM662 1485l372 -240h-92l-309 195l-307 -195h-93l371 240h58z" />
    <glyph glyph-name="edieresis" unicode="&#xeb;" horiz-adv-x="1267" 
d="M1204 537h-1081q1 -102 34.5 -188.5t86.5 -145t121 -99.5t137 -59.5t135 -17.5q153 0 276 75t187 211h63q-71 -166 -219 -258q-137 -82 -309 -82q-118 0 -216.5 36t-162.5 94t-109 133.5t-64.5 152t-19.5 152.5q0 160 75.5 291.5t207 205.5t291.5 74q109 0 210 -37.5
t179 -107.5q90 -80 137.5 -195t40.5 -235zM125 590h1022q-6 128 -79.5 238.5t-189.5 173t-241 57.5q-204 0 -352 -133t-160 -336zM483 1483v-238h-59v238h59zM823 1483v-238h-59v238h59z" />
    <glyph glyph-name="igrave" unicode="&#xec;" horiz-adv-x="376" 
d="M160 0v1085h57v-1085h-57zM-98 1538l485 -283l-27 -47l-487 283z" />
    <glyph glyph-name="iacute" unicode="&#xed;" horiz-adv-x="376" 
d="M160 0v1085h57v-1085h-57zM-12 1255l485 283l29 -47l-488 -283z" />
    <glyph glyph-name="icircumflex" unicode="&#xee;" horiz-adv-x="376" 
d="M160 0v1085h57v-1085h-57zM217 1485l373 -240h-92l-310 195l-307 -195h-92l371 240h57z" />
    <glyph glyph-name="idieresis" unicode="&#xef;" horiz-adv-x="376" 
d="M160 0v1085h57v-1085h-57zM49 1483v-238h-59v238h59zM389 1483v-238h-59v238h59z" />
    <glyph glyph-name="eth" unicode="&#xf0;" horiz-adv-x="1312" 
d="M643 1305l-459 -168v61l391 143q-172 84 -348 144l70 31q187 -63 348 -150l410 150v-62l-340 -125q294 -169 420 -395q94 -170 94 -389q0 -107 -33 -200t-89 -159.5t-129.5 -114.5t-155.5 -72t-167 -26q-110 0 -211 37t-181 106.5t-129 179.5t-50 245q3 169 78 298.5
t203.5 199.5t291.5 73q117 0 226.5 -48t179.5 -132q-38 72 -109 143q-136 141 -311 230zM141 543v-2q-1 -220 146 -367t368 -147q223 0 369.5 148.5t146.5 369.5q0 140 -71 259t-188.5 187t-252.5 68q-147 -1 -266 -68.5t-186 -185t-66 -262.5z" />
    <glyph glyph-name="ntilde" unicode="&#xf1;" horiz-adv-x="1312" 
d="M160 0v1085h57q0 -145 -2 -235q53 134 177 199.5t278 62.5q240 -6 362.5 -143t122.5 -385v-584h-57v584q0 226 -111.5 352t-329.5 123q-200 -3 -320 -114.5t-120 -319.5v-625h-57zM989 1403l41 -41q-71 -82 -194 -82q-88 0 -197 41q-93 35 -162 35q-97 0 -153 -66l-41 41
q71 82 194 82q88 0 197 -41q93 -35 162 -35q97 0 153 66z" />
    <glyph glyph-name="ograve" unicode="&#xf2;" horiz-adv-x="1312" 
d="M84 543v2q0 119 43.5 224t119 180.5t182 119t226.5 43.5q244 0 408 -163t164 -406q0 -161 -74.5 -291.5t-205.5 -204.5t-292 -74t-291.5 74t-205 204.5t-74.5 291.5zM141 543v-2q0 -220 147 -367t367 -147t367 147.5t147 368.5t-147 368.5t-367 147.5t-367 -147.5
t-147 -368.5zM412 1538l485 -283l-27 -47l-487 283z" />
    <glyph glyph-name="oacute" unicode="&#xf3;" horiz-adv-x="1312" 
d="M84 543v2q0 119 43.5 224t119 180.5t182 119t226.5 43.5q244 0 408 -163t164 -406q0 -161 -74.5 -291.5t-205.5 -204.5t-292 -74t-291.5 74t-205 204.5t-74.5 291.5zM141 543v-2q0 -220 147 -367t367 -147t367 147.5t147 368.5t-147 368.5t-367 147.5t-367 -147.5
t-147 -368.5zM406 1255l485 283l29 -47l-488 -283z" />
    <glyph glyph-name="ocircumflex" unicode="&#xf4;" horiz-adv-x="1312" 
d="M84 543v2q0 119 43.5 224t119 180.5t182 119t226.5 43.5q244 0 408 -163t164 -406q0 -161 -74.5 -291.5t-205.5 -204.5t-292 -74t-291.5 74t-205 204.5t-74.5 291.5zM141 543v-2q0 -220 147 -367t367 -147t367 147.5t147 368.5t-147 368.5t-367 147.5t-367 -147.5
t-147 -368.5zM684 1485l373 -240h-92l-310 195l-307 -195h-92l371 240h57z" />
    <glyph glyph-name="otilde" unicode="&#xf5;" horiz-adv-x="1312" 
d="M84 543v2q0 119 43.5 224t119 180.5t182 119t226.5 43.5q244 0 408 -163t164 -406q0 -161 -74.5 -291.5t-205.5 -204.5t-292 -74t-291.5 74t-205 204.5t-74.5 291.5zM141 543v-2q0 -220 147 -367t367 -147t367 147.5t147 368.5t-147 368.5t-367 147.5t-367 -147.5
t-147 -368.5zM989 1403l41 -41q-71 -82 -194 -82q-88 0 -197 41q-93 35 -162 35q-97 0 -153 -66l-41 41q71 82 194 82q88 0 197 -41q93 -35 162 -35q97 0 153 66z" />
    <glyph glyph-name="odieresis" unicode="&#xf6;" horiz-adv-x="1312" 
d="M84 543v2q0 119 43.5 224t119 180.5t182 119t226.5 43.5q244 0 408 -163t164 -406q0 -161 -74.5 -291.5t-205.5 -204.5t-292 -74t-291.5 74t-205 204.5t-74.5 291.5zM141 543v-2q0 -220 147 -367t367 -147t367 147.5t147 368.5t-147 368.5t-367 147.5t-367 -147.5
t-147 -368.5zM516 1483v-238h-59v238h59zM856 1483v-238h-59v238h59z" />
    <glyph glyph-name="divide" unicode="&#xf7;" horiz-adv-x="1228" 
d="M645 1024v-166h-61v166h61zM102 483v58h1024v-58h-1024zM645 166v-166h-61v166h61z" />
    <glyph glyph-name="oslash" unicode="&#xf8;" horiz-adv-x="1312" 
d="M1065 1157h70l-119 -166q100 -81 155.5 -196.5t55.5 -251.5q0 -161 -74.5 -291.5t-205.5 -204.5t-292 -74q-174 0 -313 90l-98 -135h-70l123 168q-100 76 -156.5 193t-56.5 254q0 243 163.5 406t407.5 163q178 0 314 -90zM328 139l608 838q-124 82 -281 82
q-220 0 -367 -147.5t-147 -368.5q0 -123 49.5 -228.5t137.5 -175.5zM983 946l-610 -840q127 -79 282 -79q220 0 367 147.5t147 368.5q0 123 -48.5 227.5t-137.5 175.5z" />
    <glyph glyph-name="ugrave" unicode="&#xf9;" horiz-adv-x="1312" 
d="M1153 1085v-1085h-57q0 146 2 236q-53 -134 -177 -200t-278 -63q-240 6 -362.5 143.5t-122.5 385.5v583h57v-583q0 -226 111 -352t329 -123q200 3 320.5 114.5t120.5 319.5v624h57zM350 1538l486 -283l-27 -47l-487 283z" />
    <glyph glyph-name="uacute" unicode="&#xfa;" horiz-adv-x="1312" 
d="M1153 1085v-1085h-57q0 146 2 236q-53 -134 -177 -200t-278 -63q-240 6 -362.5 143.5t-122.5 385.5v583h57v-583q0 -226 111 -352t329 -123q200 3 320.5 114.5t120.5 319.5v624h57zM416 1255l485 283l29 -47l-488 -283z" />
    <glyph glyph-name="ucircumflex" unicode="&#xfb;" horiz-adv-x="1312" 
d="M1153 1085v-1085h-57q0 146 2 236q-53 -134 -177 -200t-278 -63q-240 6 -362.5 143.5t-122.5 385.5v583h57v-583q0 -226 111 -352t329 -123q200 3 320.5 114.5t120.5 319.5v624h57zM684 1485l373 -240h-92l-310 195l-307 -195h-92l371 240h57z" />
    <glyph glyph-name="udieresis" unicode="&#xfc;" horiz-adv-x="1312" 
d="M1153 1085v-1085h-57q0 146 2 236q-53 -134 -177 -200t-278 -63q-240 6 -362.5 143.5t-122.5 385.5v583h57v-583q0 -226 111 -352t329 -123q200 3 320.5 114.5t120.5 319.5v624h57zM516 1483v-238h-59v238h59zM856 1483v-238h-59v238h59z" />
    <glyph glyph-name="yacute" unicode="&#xfd;" horiz-adv-x="985" 
d="M260 -436l193 438l-430 1083h63l401 -1005l428 1005h68l-657 -1521h-66zM313 1255l486 283l28 -47l-487 -283z" />
    <glyph glyph-name="thorn" unicode="&#xfe;" horiz-adv-x="1394" 
d="M160 -436v1952h57v-555v-168q46 96 117.5 163.5t148 99t137.5 44t115 12.5q120 0 226.5 -43.5t183 -119t120.5 -181t44 -225.5q0 -161 -75 -291.5t-206.5 -204.5t-292.5 -74q-171 0 -308.5 87.5t-209.5 226.5v-140v-583h-57zM1251 543v2q0 220 -146.5 367t-367.5 147
q-100 0 -194 -37.5t-166 -106.5q-160 -150 -160 -378q0 -95 39.5 -187.5t108.5 -163.5q71 -74 167 -116.5t205 -42.5q221 0 367.5 147.5t146.5 368.5z" />
    <glyph glyph-name="ydieresis" unicode="&#xff;" horiz-adv-x="985" 
d="M260 -436l193 438l-430 1083h63l401 -1005l428 1005h68l-657 -1521h-66zM352 1483v-238h-59v238h59zM692 1483v-238h-59v238h59z" />
    <glyph glyph-name="dotlessi" unicode="&#x131;" horiz-adv-x="376" 
d="M160 0v1085h57v-1085h-57z" />
    <glyph glyph-name="Lslash" unicode="&#x141;" horiz-adv-x="866" 
d="M0 573v72l166 123v748h61v-703l322 236v-72l-322 -242v-680h641v-55h-702v696z" />
    <glyph glyph-name="lslash" unicode="&#x142;" horiz-adv-x="448" 
d="M195 782l-162 -118v61l162 119v672h57v-639l199 145v-59l-199 -148v-815h-57v782z" />
    <glyph glyph-name="OE" unicode="&#x152;" horiz-adv-x="2412" 
d="M1642 1460v-669h646v-56h-646v-680h646v-55h-707v236v233q-66 -218 -265 -357t-452 -139q-162 0 -305.5 58t-248 160t-165.5 249.5t-61 317.5q0 226 103.5 406.5t279.5 279t389 98.5q258 0 457.5 -137.5t267.5 -357.5v235v234h707v-56h-646zM145 758v-2q0 -209 95.5 -376
t258.5 -259t361 -92q201 0 367 97.5t260 265t94 368.5q-4 152 -58.5 285.5t-148.5 231t-227 154t-287 56.5q-148 0 -279.5 -54t-227.5 -149t-152 -232t-56 -294z" />
    <glyph glyph-name="oe" unicode="&#x153;" horiz-adv-x="2367" 
d="M2286 539h-1061q6 -125 52 -225t118 -161.5t158 -93.5t178 -32q146 0 272 75t176 215h64q-16 -38 -27.5 -61t-36 -61t-59 -72t-80.5 -64q-147 -86 -309 -86q-197 0 -337.5 108t-199.5 284q-43 -107 -107 -186.5t-137.5 -122.5t-146.5 -63t-148 -20q-96 0 -177.5 23
t-138.5 60t-103 87.5t-73.5 103t-46 108.5t-25.5 101.5t-7 84.5q0 161 74.5 291.5t205 205t291.5 74.5q189 0 331.5 -108t203.5 -289q12 43 34.5 89t66.5 101.5t100.5 98t143 71.5t187.5 29q120 0 223.5 -45t180.5 -125q76 -79 118 -181.5t42 -213.5zM141 543v-2
q0 -220 147 -367t367 -147q143 0 261.5 74.5t182.5 191.5t64 246q0 94 -36.5 186t-100.5 166.5t-161.5 121t-209.5 46.5q-220 0 -367 -147.5t-147 -368.5zM1227 592h991q-3 53 -22.5 112.5t-60.5 121.5t-97 112t-139 81.5t-179 31.5q-192 0 -331 -129t-162 -330z" />
    <glyph glyph-name="Scaron" unicode="&#x160;" horiz-adv-x="1060" 
d="M92 383h62q11 -83 42.5 -148t71 -102.5t89 -62t91 -33t80.5 -8.5q96 0 182.5 44t142.5 128t56 188q0 56 -13.5 104t-35 82t-54 62t-63.5 46.5t-71.5 34t-70.5 24.5t-67 19l-12 3q-33 8 -49.5 12.5t-53.5 16t-59.5 21.5t-57 28.5t-56 37.5t-47.5 47.5t-40 59.5t-24 72.5
t-10 87.5q-4 181 117.5 288t294.5 107q69 0 132 -20.5t117.5 -62t92 -110.5t49.5 -159h-62q-56 297 -334 297q-148 0 -247 -91.5t-99 -238.5q0 -44 8 -82t26 -68t38.5 -54t53 -44t60.5 -34.5t70.5 -28.5t73 -22.5t78.5 -20.5q4 -1 15 -4q31 -8 51 -13.5t61.5 -22t70.5 -35
t65.5 -50.5t59 -69.5t38.5 -92.5t16 -119q0 -121 -63.5 -219.5t-164 -151.5t-213.5 -53q-56 0 -113.5 14.5t-113.5 47.5t-100.5 79.5t-74.5 116t-36 152.5zM131 1853h92l309 -194l308 194h92l-369 -235h-61z" />
    <glyph glyph-name="scaron" unicode="&#x161;" horiz-adv-x="872" 
d="M719 829h-57q0 115 -67 173.5t-163 56.5q-108 0 -175 -65t-62 -163q4 -94 59 -141.5t178 -81.5q126 -34 176 -62q133 -75 142 -247q8 -134 -85.5 -230t-232.5 -96q-91 0 -169 39.5t-124.5 116t-40.5 172.5h58q0 -127 77 -200.5t199 -73.5q118 0 190.5 77.5t69.5 186.5
q-3 110 -65 170t-197 90q-58 17 -94 29.5t-77 35.5t-64.5 50t-39.5 69t-18 96q0 131 84.5 206t210.5 75q125 -2 206 -75.5t81 -207.5zM37 1475h92l309 -195l307 195h93l-369 -236h-61z" />
    <glyph glyph-name="Ydieresis" unicode="&#x178;" horiz-adv-x="1134" 
d="M537 0v522l-506 994h67l469 -924l467 924h70l-506 -994v-522h-61zM428 1851v-237h-59v237h59zM768 1851v-237h-59v237h59z" />
    <glyph glyph-name="Zcaron" unicode="&#x17d;" horiz-adv-x="1021" 
d="M967 1479l-854 -1424h897v-55h-969v37l854 1423h-883v56h955v-37zM90 1853h92l310 -194l307 194h92l-369 -235h-61z" />
    <glyph glyph-name="zcaron" unicode="&#x17e;" horiz-adv-x="833" 
d="M25 0v49l673 983h-637v53h711v-55l-674 -977h709v-53h-782zM6 1475h92l310 -195l307 195h92l-369 -236h-61z" />
    <glyph glyph-name="florin" unicode="&#x192;" 
d="M698 1028h289v-55h-297l-192 -1020q-30 -176 -86 -256q-88 -131 -289 -131q-68 0 -123 16l12 58q5 -1 23 -6t27.5 -7t26.5 -4t34 -2q41 0 76 7t61 17.5t48.5 29t38 35t29 43t21 45t15.5 49.5t11 47t9 47l195 1032h-295v55h303q2 8 11 63t12.5 71t14.5 62.5t20.5 69
t25 57.5t35.5 60.5t45 48.5q101 82 225 82q31 0 55 -6l-12 -53q-28 4 -49 4q-119 -9 -184 -74q-15 -15 -28.5 -32t-24.5 -40t-19.5 -40.5t-16.5 -47t-12.5 -44.5t-11 -49.5t-8.5 -44.5t-8 -46.5t-7 -40.5z" />
    <glyph glyph-name="circumflex" unicode="&#x2c6;" 
d="M596 1485l373 -240h-92l-310 195l-307 -195h-92l371 240h57z" />
    <glyph glyph-name="caron" unicode="&#x2c7;" 
d="M168 1475h92l309 -195l308 195h92l-369 -236h-61z" />
    <glyph glyph-name="uni02C9" unicode="&#x2c9;" 
d="M932 1382v-61h-729v61h729z" />
    <glyph glyph-name="breve" unicode="&#x2d8;" 
d="M176 1436h78q88 -109 313 -109q235 0 316 109h78q-102 -168 -394 -168q-297 0 -391 168z" />
    <glyph glyph-name="dotaccent" unicode="&#x2d9;" 
d="M600 1483v-238h-63v238h63z" />
    <glyph glyph-name="ring" unicode="&#x2da;" 
d="M567 1561h2q77 0 132 -55.5t55 -131.5q0 -77 -55.5 -131.5t-133.5 -54.5q-77 0 -131.5 55t-54.5 131q0 77 55 132t131 55zM567 1507h-2q-52 0 -89.5 -38.5t-37.5 -92.5q0 -53 37.5 -91t91.5 -38q55 0 93 38t38 91q0 54 -38 92.5t-93 38.5z" />
    <glyph glyph-name="ogonek" unicode="&#x2db;" 
d="M584 0h59q-57 -42 -81 -61t-51 -47t-35.5 -52t-8.5 -57q0 -64 43.5 -104.5t105.5 -40.5q46 0 115 26v-59q-52 -27 -115 -27q-96 0 -154.5 54.5t-58.5 144.5q0 48 18.5 87.5t51.5 66.5t56 40.5t55 28.5z" />
    <glyph glyph-name="tilde" unicode="&#x2dc;" 
d="M901 1403l41 -41q-71 -82 -194 -82q-88 0 -197 41q-93 35 -162 35q-97 0 -153 -66l-41 41q71 82 194 82q88 0 197 -41q93 -35 162 -35q97 0 153 66z" />
    <glyph glyph-name="hungarumlaut" unicode="&#x2dd;" 
d="M233 1251l396 287l33 -41l-396 -289zM522 1251l396 287l32 -41l-395 -289z" />
    <glyph glyph-name="uni03A9" unicode="&#x3a9;" horiz-adv-x="1497" 
d="M453 61v7q-134 121 -218.5 309.5t-84.5 419.5q0 170 48 311t131 233.5t193 143.5t234 51q169 0 304.5 -94.5t211.5 -262.5t76 -378q0 -240 -89.5 -433.5t-216.5 -299.5v-7h332v-61h-454v45q150 108 254 308.5t104 439.5q0 90 -20.5 184t-63.5 184t-103.5 160t-148 113
t-188.5 43q-160 0 -283.5 -93t-188.5 -248t-65 -343q0 -229 107 -437t251 -311v-45h-452v61h330z" />
    <glyph glyph-name="uni03BC" unicode="&#x3bc;" horiz-adv-x="1148" 
d="M160 -371v1456h57v-614q0 -54 2 -88t8.5 -82.5t24 -88t45.5 -71.5q96 -114 272 -114q173 0 271 133q104 135 104 409v516h57v-1085h-57v244q-13 -35 -26.5 -63t-45 -69.5t-69 -69.5t-99 -48.5t-135.5 -20.5q-65 0 -120.5 13.5t-90.5 32t-65.5 47t-45 47.5t-30.5 45v-189
v-340h-57z" />
    <glyph glyph-name="pi" unicode="&#x3c0;" horiz-adv-x="1122" 
d="M1059 1055h-180v-742q0 -215 32 -313h-67q-33 64 -33 297v758h-442q-11 -263 -60 -592.5t-106 -462.5h-70q61 154 108 468.5t58 586.5q-179 0 -250 -31l-18 45q85 47 260 47h780z" />
    <glyph glyph-name="endash" unicode="&#x2013;" horiz-adv-x="1024" 
d="M72 596h880v-59h-880v59z" />
    <glyph glyph-name="emdash" unicode="&#x2014;" horiz-adv-x="2048" 
d="M72 596h1904v-59h-1904v59z" />
    <glyph glyph-name="quoteleft" unicode="&#x2018;" horiz-adv-x="567" 
d="M252 1516l131 -316h-68l-131 316h68z" />
    <glyph glyph-name="quoteright" unicode="&#x2019;" horiz-adv-x="567" 
d="M184 1200l131 316h68l-131 -316h-68z" />
    <glyph glyph-name="quotesinglbase" unicode="&#x201a;" horiz-adv-x="567" 
d="M184 -147l131 315h68l-131 -315h-68z" />
    <glyph glyph-name="quotedblleft" unicode="&#x201c;" horiz-adv-x="757" 
d="M256 1516l131 -316h-68l-131 316h68zM438 1516l131 -316h-67l-131 316h67z" />
    <glyph glyph-name="quotedblright" unicode="&#x201d;" horiz-adv-x="757" 
d="M188 1200l131 316h68l-131 -316h-68zM371 1200l131 316h67l-131 -316h-67z" />
    <glyph glyph-name="quotedblbase" unicode="&#x201e;" horiz-adv-x="757" 
d="M188 -147l131 315h68l-131 -315h-68zM371 -147l131 315h67l-131 -315h-67z" />
    <glyph glyph-name="dagger" unicode="&#x2020;" horiz-adv-x="1173" 
d="M616 1516v-439h390v-61h-390v-1221h-61v1221h-385v61h385v439h61z" />
    <glyph glyph-name="daggerdbl" unicode="&#x2021;" horiz-adv-x="1173" 
d="M621 1516v-379h385v-62h-385v-839h385v-62h-385v-379h-62v379h-389v62h389v839h-389v62h389v379h62z" />
    <glyph glyph-name="bullet" unicode="&#x2022;" horiz-adv-x="768" 
d="M385 938h2q73 0 124.5 -51t51.5 -123t-51.5 -123t-126.5 -51q-76 0 -128 51t-52 123t52 123t128 51z" />
    <glyph glyph-name="ellipsis" unicode="&#x2026;" horiz-adv-x="2048" 
d="M311 0v168h62v-168h-62zM993 0v168h62v-168h-62zM1675 0v168h62v-168h-62z" />
    <glyph glyph-name="perthousand" unicode="&#x2030;" horiz-adv-x="2230" 
d="M41 1208v2q0 143 95 237.5t239 94.5q145 0 239.5 -94.5t94.5 -239.5t-94.5 -239.5t-239.5 -94.5t-239.5 94.5t-94.5 239.5zM98 1208v-2q0 -122 77.5 -201t199.5 -79t199 79t77 203t-77 203.5t-199 79.5t-199.5 -79.5t-77.5 -203.5zM756 307v2q0 143 95 237.5t239 94.5
q145 0 239 -94.5t94 -239.5t-94 -239.5t-239 -94.5t-239.5 94.5t-94.5 239.5zM813 307v-2q0 -122 77.5 -201t199.5 -79t199 79t77 203t-77 203.5t-199 79.5t-199.5 -79.5t-77.5 -203.5zM1524 307v2q0 143 95 237.5t239 94.5q145 0 239 -94.5t94 -239.5t-94 -239.5
t-239 -94.5t-239.5 94.5t-94.5 239.5zM1581 307v-2q0 -122 77.5 -201t199.5 -79t199 79t77 203t-77 203.5t-199 79.5t-199.5 -79.5t-77.5 -203.5zM1231 1516l-936 -1516h-66l936 1516h66z" />
    <glyph glyph-name="guilsinglleft" unicode="&#x2039;" horiz-adv-x="507" 
d="M102 563l234 398h72l-234 -398l234 -391h-72z" />
    <glyph glyph-name="guilsinglright" unicode="&#x203a;" horiz-adv-x="507" 
d="M172 961l234 -398l-234 -391h-72l234 391l-234 398h72z" />
    <glyph glyph-name="fraction" unicode="&#x2044;" horiz-adv-x="176" 
d="M-281 0l674 1516h62l-676 -1516h-60z" />
    <glyph glyph-name="Euro" unicode="&#x20ac;" 
d="M858 662l-10 -54h-561q16 -320 121 -456q93 -123 282 -123q168 0 258 90q65 65 88 192h62q-25 -152 -113 -237q-104 -101 -297 -101q-215 0 -332 146q-117 147 -133 489h-168l11 54h155v77q0 95 2 144h-168l11 53h159q14 276 115 430q60 91 144 133.5t206 42.5
q187 0 293 -106q88 -93 102 -238h-59q-16 130 -92 203q-89 86 -246 86q-199 0 -299 -156q-87 -134 -102 -395h622l-10 -53h-614q-2 -43 -2 -123q0 -15 1 -47.5t1 -50.5h573z" />
    <glyph glyph-name="afii61289" unicode="&#x2113;" horiz-adv-x="956" 
d="M850 254l49 -31q-130 -237 -350 -237q-83 0 -145 34.5t-98.5 96t-54.5 139t-18 170.5v33q-18 -16 -61 -53t-66 -58l-34 51q109 93 161 148v627q0 97 12 175.5t33 131t47.5 90t58.5 58t62 29.5t62 9q111 0 170 -88t59 -229q0 -206 -114.5 -410t-325.5 -420v-57
q0 -113 21 -197t58.5 -132t82.5 -70.5t98 -22.5q98 0 174.5 64t118.5 149zM297 1196v-590q86 95 148.5 176.5t118 174.5t84 189t28.5 191q0 269 -176 269q-80 0 -141.5 -102t-61.5 -308z" />
    <glyph glyph-name="trademark" unicode="&#x2122;" horiz-adv-x="2027" 
d="M713 606v910h75l426 -824l428 824h74v-910h-55v830l-430 -830h-33l-430 828v-828h-55zM272 606v860h-254v50h566v-50h-256v-860h-56z" />
    <glyph glyph-name="Omega" unicode="&#x2126;" horiz-adv-x="1497" 
d="M453 61v7q-134 121 -218.5 309.5t-84.5 419.5q0 170 48 311t131 233.5t193 143.5t234 51q169 0 304.5 -94.5t211.5 -262.5t76 -378q0 -240 -89.5 -433.5t-216.5 -299.5v-7h332v-61h-454v45q150 108 254 308.5t104 439.5q0 90 -20.5 184t-63.5 184t-103.5 160t-148 113
t-188.5 43q-160 0 -283.5 -93t-188.5 -248t-65 -343q0 -229 107 -437t251 -311v-45h-452v61h330z" />
    <glyph glyph-name="estimated" unicode="&#x212e;" horiz-adv-x="1892" 
d="M1817 735h-1411q-13 0 -13 -8v-428q0 -22 19 -49q106 -109 243.5 -170.5t290.5 -61.5q165 0 310 69.5t251 191.5h125q-120 -140 -301 -222t-387 -82q-237 0 -437 105t-316.5 285t-116.5 393q0 159 69 304t185.5 249.5t277.5 166.5t338 62t338.5 -62t278.5 -166.5
t186.5 -249.5t69.5 -304v-23zM1495 791v430q0 31 -20 51q-106 105 -242 164t-287 59t-288.5 -61t-243.5 -168q-21 -24 -21 -54v-421q0 -4 4 -8.5t9 -4.5h1081q8 0 8 13z" />
    <glyph glyph-name="partialdiff" unicode="&#x2202;" horiz-adv-x="1079" 
d="M207 1524l-37 47q136 115 315 115q74 0 143 -29t131.5 -93.5t109.5 -157.5t74.5 -230t27.5 -302q0 -256 -54.5 -453.5t-170 -317t-279.5 -119.5q-91 0 -163 38.5t-116.5 105.5t-68 153.5t-23.5 187.5q0 120 37 223.5t97.5 173t139 109t162.5 39.5q72 0 137.5 -24.5
t110.5 -62.5t74 -73.5t45 -67.5h2q2 31 2 109q0 136 -23 254t-63 204.5t-93 148.5t-114 93t-125 31q-160 0 -278 -102zM469 41h2q111 0 201.5 85.5t144.5 229t70 324.5q-15 46 -46.5 92.5t-75.5 88t-105.5 67.5t-127.5 26q-96 0 -180 -62.5t-135 -172.5t-51 -240
q0 -197 82.5 -317.5t220.5 -120.5z" />
    <glyph glyph-name="Delta" unicode="&#x2206;" horiz-adv-x="1314" 
d="M74 0v68l549 1488h71l549 -1488v-68h-1169zM139 59h1028l-356 992q-14 39 -74.5 191.5t-77.5 213.5h-10q-12 -52 -68.5 -201.5t-64.5 -171.5z" />
    <glyph glyph-name="product" unicode="&#x220f;" horiz-adv-x="1398" 
d="M1339 1448h-235v-1657h-66v1657h-682v-1657h-63v1657h-236v63h1282v-63z" />
    <glyph glyph-name="summation" unicode="&#x2211;" horiz-adv-x="1134" 
d="M1081 -209h-1034v51l602 803l-571 817v49h971v-63h-869v-8l549 -789l-584 -784v-8h936v-68z" />
    <glyph glyph-name="minus" unicode="&#x2212;" horiz-adv-x="1228" 
d="M102 483v58h1024v-58h-1024z" />
    <glyph glyph-name="uni2215" unicode="&#x2215;" horiz-adv-x="176" 
d="M-281 0l674 1516h62l-676 -1516h-60z" />
    <glyph glyph-name="uni2219" unicode="&#x2219;" horiz-adv-x="567" 
d="M315 606v-166h-61v166h61z" />
    <glyph glyph-name="radical" unicode="&#x221a;" horiz-adv-x="1150" 
d="M1135 1784l-455 -2126h-78l-352 1053l-154 -58l-22 54l225 84l305 -893q25 -91 33 -138h2q2 19 11 63.5t12 61.5l411 1899h62z" />
    <glyph glyph-name="infinity" unicode="&#x221e;" horiz-adv-x="1615" 
d="M1505 633v-2q0 -134 -90.5 -220.5t-214.5 -86.5q-41 0 -81.5 13.5t-71 30.5t-77 57t-74.5 67.5t-87 87.5q-35 -38 -43 -46.5t-41 -43.5t-47 -45.5t-45.5 -36.5t-52.5 -36t-51.5 -24t-60 -19t-60.5 -5q-124 0 -210.5 88.5t-86.5 212.5q0 132 87.5 220.5t221.5 88.5
q46 0 93 -17t81.5 -38t81.5 -64t70.5 -68t70.5 -77q110 121 158 162q120 102 244 102q131 0 208.5 -84t77.5 -217zM418 383h2q42 0 82.5 15t81 46t66.5 55t68 68t56 58q-96 111 -143 152q-114 100 -230 100q-102 0 -162.5 -75.5t-58.5 -178.5q0 -102 66 -171t172 -69z
M1210 877h-4q-52 0 -109.5 -30.5t-93 -63t-86.5 -86t-65 -66.5q132 -134 178 -171q95 -77 180 -77q103 0 165.5 73t62.5 171q0 119 -64.5 184.5t-163.5 65.5z" />
    <glyph glyph-name="integral" unicode="&#x222b;" horiz-adv-x="679" 
d="M653 1796l-24 -49q-33 25 -78 25q-26 0 -56.5 -13t-50.5 -39q-45 -51 -63.5 -142.5t-18.5 -260.5q0 -165 13.5 -567t13.5 -564q0 -304 -102 -440q-27 -33 -68.5 -53.5t-87.5 -20.5q-30 0 -64 11.5t-51 23.5l25 53q52 -26 94 -26q28 0 56.5 14.5t46.5 40.5q81 103 81 404
q0 163 -12 567t-12 563q0 173 22.5 274.5t77.5 159.5q69 72 156 72q27 0 56.5 -10t45.5 -23z" />
    <glyph glyph-name="approxequal" unicode="&#x2248;" horiz-adv-x="1185" 
d="M1036 887l41 -33q-89 -186 -256 -186q-12 0 -25 1.5t-23 2.5t-24 5.5t-22 7t-24 9.5t-23 10t-25.5 12.5t-25 13t-29 15t-29.5 15.5q-64 35 -110.5 53t-93.5 18q-70 0 -121 -42.5t-96 -118.5l-46 30q47 92 118 140.5t157 48.5q36 0 75 -11.5t61 -21.5t61.5 -32.5
t46.5 -26.5q9 -5 33.5 -18t34.5 -17.5t30.5 -13.5t35 -13t34.5 -7t40 -3q65 0 112.5 38.5t92.5 123.5zM1036 559l41 -33q-42 -85 -102 -134.5t-152 -49.5q-41 0 -84.5 13.5t-69.5 26.5t-98 52q-3 2 -24.5 13t-26.5 13.5t-24 11.5t-26.5 11.5t-23.5 8.5t-27 8t-25 4t-27 2
q-70 0 -121 -43.5t-96 -118.5l-46 29q96 190 275 190q36 0 74.5 -11t62 -22.5t60 -32t47.5 -26.5q3 -2 20.5 -11.5t21 -11.5t19 -10t20.5 -9.5t19 -7.5t20.5 -8t19.5 -5.5t22.5 -5t21.5 -2.5t24 -1q65 0 112.5 37.5t92.5 122.5z" />
    <glyph glyph-name="notequal" unicode="&#x2260;" horiz-adv-x="1185" 
d="M819 1057l-104 -221h358v-60h-385l-153 -321h538v-60h-565l-119 -252l-49 27l106 225h-335v60h364l152 321h-516v60h542l117 247z" />
    <glyph glyph-name="lessequal" unicode="&#x2264;" horiz-adv-x="1185" 
d="M1067 217l-944 477v60l944 477v-78l-868 -424v-6l868 -430v-76zM1071 61h-960v64h960v-64z" />
    <glyph glyph-name="greaterequal" unicode="&#x2265;" horiz-adv-x="1185" 
d="M123 1231l944 -477v-60l-944 -477v76l868 428v4l-868 428v78zM1071 61h-960v64h960v-64z" />
    <glyph glyph-name="lozenge" unicode="&#x25ca;" horiz-adv-x="1153" 
d="M1030 756l-426 -840h-57l-426 840l426 839h57zM961 754l-347 676q-15 29 -39 98h-4q-26 -70 -41 -98l-340 -672l347 -678q26 -56 38 -96h7q17 57 36 96z" />
    </font>
</defs>
</svg>
