<?xml version="1.0" standalone="no"?>
<!DOCTYPE svg PUBLIC "-//W3C//DTD SVG 1.1//EN" "http://www.w3.org/Graphics/SVG/1.1/DTD/svg11.dtd" >
<svg xmlns="http://www.w3.org/2000/svg" xmlns:xlink="http://www.w3.org/1999/xlink" version="1.1">
<metadata>
Created by FontForge 20170731 at Sat Sep 18 15:59:07 2021
 By Aleksey,,,
Copyright (c) 1993, 1994, 2001 Adobe Systems Incorporated.  All Rights Reserved.
</metadata>
<defs>
<font id="ITCAvantGardeStd-Demi" horiz-adv-x="1232" >
  <font-face 
    font-family="ITC Avant Garde Std Bk"
    font-weight="600"
    font-stretch="normal"
    units-per-em="2048"
    panose-1="2 11 7 2 2 2 2 2 2 4"
    ascent="1516"
    descent="-532"
    x-height="1124"
    cap-height="1516"
    bbox="-252 -547 2425 2044"
    underline-thickness="102"
    underline-position="-307"
    unicode-range="U+0020-FB02"
  />
<missing-glyph horiz-adv-x="1024" 
d="M0 0v1434h1024v-1434h-1024zM512 809l348 522h-696zM573 717l349 -522v1044zM164 102h696l-348 523zM102 1239v-1044l349 522z" />
    <glyph glyph-name="fi" unicode="fi" horiz-adv-x="1124" 
d="M723 918h-305v-918h-268v918h-140v206h140v64q0 54 9.5 100t24.5 79.5t39 60.5t49 45t59 31.5t63.5 20.5t68 11.5t67 6t66.5 1.5v-207q-29 0 -45.5 -1t-45.5 -9t-45 -23.5t-29 -47t-13 -76.5v-56h573v-1124h-268v918zM991 1276h-268v240h268v-240z" />
    <glyph glyph-name="fl" unicode="fl" horiz-adv-x="1124" 
d="M723 918h-305v-918h-268v918h-140v206h140v64q0 54 9.5 100t24.5 79.5t39 60.5t49 45t59 31.5t63.5 20.5t68 11.5t67 6t66.5 1.5v-207q-29 0 -45.5 -1t-45.5 -9t-45 -23.5t-29 -47t-13 -76.5v-56h305v389h268v-1513h-268v918z" />
    <glyph glyph-name=".notdef" horiz-adv-x="1024" 
d="M0 0v1434h1024v-1434h-1024zM512 809l348 522h-696zM573 717l349 -522v1044zM164 102h696l-348 523zM102 1239v-1044l349 522z" />
    <glyph glyph-name=".null" horiz-adv-x="0" 
 />
    <glyph glyph-name="nonmarkingreturn" horiz-adv-x="682" 
 />
    <glyph glyph-name="space" unicode=" " horiz-adv-x="616" 
 />
    <glyph glyph-name="exclam" unicode="!" horiz-adv-x="643" 
d="M461 1516v-1057h-277v1057h277zM461 303v-303h-277v303h277z" />
    <glyph glyph-name="quotedbl" unicode="&#x22;" horiz-adv-x="880" 
d="M369 909h-205v607h205v-607zM719 909h-207v607h207v-607z" />
    <glyph glyph-name="numbersign" unicode="#" 
d="M852 494l-55 -392h-185l54 392h-195l-53 -392h-187l54 392h-230l23 182h233l25 182h-232l23 182h233l52 357h186l-49 -357h192l50 357h188l-51 -357h248l-23 -182h-252l-24 -182h247l-22 -182h-250zM692 676l25 182h-193l-26 -182h194z" />
    <glyph glyph-name="dollar" unicode="$" 
d="M737 1661v-197q136 -28 215.5 -127.5t79.5 -246.5h-252q-4 72 -49 118.5t-110 46.5t-110.5 -46t-45.5 -113q0 -28 7.5 -51.5t18 -41t34 -35t41.5 -29t55.5 -27t61 -24t73.5 -26.5q155 -57 234 -163.5t79 -227.5q0 -138 -87.5 -253t-244.5 -161v-202h-223v202
q-83 11 -150.5 51t-109.5 96.5t-64.5 122.5t-23.5 134h276q4 -86 56 -139.5t123 -53.5q72 0 121 52t49 122q0 42 -19.5 78.5t-46 60t-73.5 47.5t-81 36.5t-90 31.5q-291 95 -291 371q0 85 27 155.5t74 117.5t103 78t120 46v197h223z" />
    <glyph glyph-name="percent" unicode="%" horiz-adv-x="1685" 
d="M66 1184v2q0 151 104.5 254.5t255.5 103.5q152 0 256 -104t104 -256q0 -151 -104.5 -256t-255.5 -105q-150 0 -255 105.5t-105 255.5zM252 1184v-2q0 -72 50.5 -123t123.5 -51t124.5 51t51.5 127q0 75 -50.5 125.5t-125.5 50.5q-74 0 -124 -51t-50 -127zM897 332v2
q0 149 105.5 253.5t257.5 104.5q151 0 255.5 -104.5t104.5 -255.5t-105.5 -256t-254.5 -105q-150 0 -256.5 104t-106.5 257zM1083 332v-2q0 -74 51 -125t126 -51q73 0 123.5 51.5t50.5 126.5q0 76 -50 127t-124 51q-76 0 -126.5 -51.5t-50.5 -126.5zM1288 1516l-704 -1516
h-195l705 1516h194z" />
    <glyph glyph-name="ampersand" unicode="&#x26;" horiz-adv-x="1533" 
d="M1159 907h283l-254 -479l270 -276l-182 -181l-234 240q-129 -240 -428 -240q-115 0 -212 35t-161.5 94t-100.5 138.5t-36 167.5q0 68 21.5 129t51 103.5t76.5 84t81 64.5t82 51q-81 85 -120.5 164t-39.5 167q0 157 114 266t279 109t274 -105.5t109 -256.5
q0 -57 -17.5 -108.5t-40.5 -86t-60.5 -67.5t-63 -50t-62.5 -39l222 -225zM651 1323h-2q-56 0 -93.5 -39.5t-37.5 -99.5q0 -16 3.5 -33t7.5 -29.5t13.5 -29t14.5 -25t19.5 -25.5t18.5 -21.5t20.5 -22t17.5 -19.5q78 49 115.5 94t37.5 111q0 58 -37 98.5t-98 40.5zM864 387
l-282 285q-182 -98 -185 -240q1 -89 66 -146t162 -57q89 0 143.5 40.5t95.5 117.5z" />
    <glyph glyph-name="quotesingle" unicode="'" horiz-adv-x="485" 
d="M346 909h-207v607h207v-607z" />
    <glyph glyph-name="parenleft" unicode="(" horiz-adv-x="944" 
d="M862 1544v-299q-77 -38 -149.5 -106t-133.5 -161.5t-98 -218.5t-37 -261q0 -130 35.5 -252t95 -216t133 -164t154.5 -110v-303q-179 69 -318 187t-222.5 260.5t-125.5 295t-42 306.5q0 152 43 304.5t126.5 295t222.5 260t316 182.5z" />
    <glyph glyph-name="parenright" unicode=")" horiz-adv-x="944" 
d="M82 -547v299q77 39 149.5 107.5t133.5 161.5t98 218t37 261q0 130 -35.5 252t-95 215.5t-133 164t-154.5 111.5v301q179 -69 318 -187t222.5 -260t126 -294.5t42.5 -306.5q0 -120 -26.5 -242t-83 -243.5t-138 -226t-200.5 -192t-261 -139.5z" />
    <glyph glyph-name="asterisk" unicode="*" horiz-adv-x="1323" 
d="M752 1516l-50 -297l236 188l86 -156l-274 -102l276 -102l-94 -164l-234 194l54 -297h-181l50 301l-230 -198l-94 164l276 104l-276 98l88 158l238 -188l-52 297h181z" />
    <glyph glyph-name="plus" unicode="+" horiz-adv-x="1228" 
d="M743 1034v-387h385v-260h-385v-387h-258v387h-385v260h385v387h258z" />
    <glyph glyph-name="comma" unicode="," horiz-adv-x="624" 
d="M453 303l-187 -463h-225l131 463h281z" />
    <glyph glyph-name="hyphen" unicode="-" horiz-adv-x="567" 
d="M0 717h567v-264h-567v264z" />
    <glyph glyph-name="period" unicode="." horiz-adv-x="624" 
d="M453 303v-303h-281v303h281z" />
    <glyph glyph-name="slash" unicode="/" horiz-adv-x="1175" 
d="M145 -205l586 1721h299l-584 -1721h-301z" />
    <glyph glyph-name="zero" unicode="0" 
d="M72 524v463q0 91 20.5 168.5t54.5 133.5t80.5 101t96.5 73t104 47t100.5 26.5t89.5 7.5q68 0 138.5 -17.5t144 -59.5t130.5 -103.5t93.5 -158t36.5 -214.5v-467q0 -119 -36 -216t-92.5 -158t-129.5 -103t-143 -59t-137 -17q-68 0 -139.5 17t-146.5 59t-133 103t-95 158
t-37 216zM377 997v-481q0 -72 24 -132.5t80 -102t135 -41.5q61 0 109 26.5t75.5 68t41.5 88.5t14 93v483q0 30 -5 62t-20.5 72t-40.5 70.5t-71 51.5t-105 21q-61 0 -108.5 -24.5t-74.5 -65.5t-40.5 -89t-13.5 -100z" />
    <glyph glyph-name="one" unicode="1" 
d="M487 0v1257h-270v259h576v-1516h-306z" />
    <glyph glyph-name="two" unicode="2" 
d="M109 0v240q73 67 220.5 199t221.5 198q60 52 88.5 78.5t71 72.5t62.5 80.5t35.5 82t16.5 98.5q0 109 -61 168t-158 59q-104 0 -156.5 -81.5t-54.5 -207.5h-293q4 103 26.5 189.5t80.5 164.5q42 60 99.5 103t117.5 63t110 28.5t97 8.5q116 0 211 -38t157 -103t95.5 -149.5
t33.5 -178.5q-2 -133 -56 -238.5t-187 -232.5q-59 -57 -179.5 -172t-181.5 -174h613v-258h-1030z" />
    <glyph glyph-name="three" unicode="3" 
d="M432 1104h-301q2 95 34 172t80.5 126t112 82t126 46.5t124.5 13.5q196 0 320.5 -115.5t124.5 -283.5q0 -206 -203 -318q66 -22 117 -55t81.5 -71t50.5 -73.5t28.5 -74t11 -61.5t2.5 -46q0 -132 -72 -241.5t-195 -171.5t-270 -62q-132 0 -254.5 52.5t-189.5 150.5
q-78 106 -88 275h307q7 -81 67 -144.5t164 -64.5q107 0 166.5 65t59.5 164q0 71 -41.5 122t-99 73t-120.5 22h-122v227h67q55 0 105.5 19.5t86.5 64t36 105.5q0 73 -40.5 123.5t-111.5 50.5q-46 0 -79 -16.5t-50 -44.5t-25 -55t-10 -56z" />
    <glyph glyph-name="four" unicode="4" 
d="M725 0v274h-700v224l702 1018h291v-1002h164v-240h-164v-274h-293zM334 514h409v631z" />
    <glyph glyph-name="five" unicode="5" 
d="M250 1516h799v-259h-564l-53 -299q29 19 52.5 30.5t73 22.5t110.5 11q122 0 222 -47.5t160 -123.5t92 -163t32 -174q0 -76 -22.5 -152t-69 -146.5t-112 -125t-159 -87t-201.5 -32.5q-219 0 -373.5 124t-185.5 321h307q25 -78 93.5 -127t150.5 -49q108 0 187 79t79 187
t-75 187t-193 79q-153 0 -235 -143l-248 61z" />
    <glyph glyph-name="six" unicode="6" 
d="M584 1516h352l-285 -400q-12 -18 -35 -50t-30 -42q14 7 51.5 15t69.5 8q88 0 172.5 -34t154 -96t112 -162t42.5 -220q0 -160 -76 -290t-205.5 -202t-283.5 -72q-140 0 -257.5 51.5t-189.5 145.5q-65 73 -96 172.5t-31 194.5q0 110 36.5 205.5t100.5 193.5zM350 510v-2
q0 -118 77 -193t185 -75q114 0 192.5 77t78.5 191t-77 192t-192 78q-106 0 -185 -74t-79 -194z" />
    <glyph glyph-name="seven" unicode="7" 
d="M145 1516h940v-236l-567 -1280h-336l588 1257h-625v259z" />
    <glyph glyph-name="eight" unicode="8" 
d="M139 1139v2q0 76 31 147t89 128.5t151 92.5t206 35t206 -34.5t151 -92t89.5 -129.5t31.5 -149q0 -58 -15.5 -109t-42.5 -87t-53 -60t-55 -43q109 -49 163 -147.5t56 -225.5q-2 -214 -151.5 -355t-379.5 -141q-229 0 -378.5 141t-151.5 355q2 127 55.5 225.5t163.5 147.5
q-29 19 -55 43t-53 60t-42.5 87t-15.5 109zM436 1114v-2q0 -74 53 -126t127 -52t127.5 52t53.5 128q0 77 -53 128.5t-128 51.5t-127.5 -51.5t-52.5 -128.5zM391 469v-2q0 -89 64 -158t161 -69q98 0 162 69.5t64 159.5q0 93 -64 162t-162 69t-161.5 -69t-63.5 -162z" />
    <glyph glyph-name="nine" unicode="9" 
d="M653 0h-352l285 399q8 12 21.5 30.5t24 33.5t19.5 29q-14 -7 -51.5 -15t-69.5 -8q-89 0 -173.5 34t-154 96t-111.5 161.5t-42 220.5q0 161 76 290.5t205 201t284 71.5q140 0 257 -51t190 -145q65 -73 96 -172.5t31 -194.5q0 -110 -36.5 -205.5t-100.5 -193.5zM887 1008v2
q0 117 -78 191.5t-188 74.5q-111 0 -189 -76.5t-78 -189.5q0 -116 75.5 -194.5t188.5 -78.5q109 0 189 75t80 196z" />
    <glyph glyph-name="colon" unicode=":" horiz-adv-x="624" 
d="M453 1124v-303h-281v303h281zM453 303v-303h-281v303h281z" />
    <glyph glyph-name="semicolon" unicode=";" horiz-adv-x="624" 
d="M453 1124v-303h-281v303h281zM455 303l-201 -463h-211l129 463h283z" />
    <glyph glyph-name="less" unicode="&#x3c;" horiz-adv-x="1228" 
d="M96 643l1037 449v-283l-762 -293l762 -291v-282l-1037 448v252z" />
    <glyph glyph-name="equal" unicode="=" horiz-adv-x="1228" 
d="M100 899h1028v-260h-1028v260zM100 393h1028v-258h-1028v258z" />
    <glyph glyph-name="greater" unicode="&#x3e;" horiz-adv-x="1228" 
d="M96 225l762 293l-762 291v283l1037 -449v-252l-1037 -448v282z" />
    <glyph glyph-name="question" unicode="?" horiz-adv-x="1183" 
d="M694 446h-282q1 103 48.5 188t157.5 191q85 85 121 138.5t37 115.5q0 81 -48.5 134t-133.5 53q-87 0 -138.5 -52.5t-60.5 -138.5q-4 -32 -4 -49h-295q-2 18 -2 43q9 213 156.5 344t357.5 131q108 0 199.5 -37t151 -98.5t93 -139t33.5 -159.5q0 -52 -15 -102t-34 -86
t-56 -79.5t-61 -66.5t-69 -65q-94 -90 -123 -146.5t-33 -118.5zM694 303v-303h-282v303h282z" />
    <glyph glyph-name="at" unicode="@" horiz-adv-x="1556" 
d="M1296 268l45 -141q-84 -59 -197 -97t-191 -49.5t-136 -11.5q-161 0 -296.5 48t-227 126.5t-155.5 181t-93 209.5t-29 214q0 156 58.5 300.5t160.5 254.5t253.5 176.5t326.5 66.5q150 0 283 -50t229 -137t151.5 -210.5t55.5 -265.5q0 -117 -38 -222.5t-99 -177
t-136 -113.5t-149 -42q-70 0 -122 37t-68 110q-48 -76 -106.5 -110.5t-141.5 -34.5q-117 0 -205 92.5t-88 245.5q0 86 31 173t84 156.5t131 113.5t164 44q157 0 206 -133l27 106h174l-106 -475q-17 -85 -17 -98q-5 -72 70 -72q78 0 154.5 116.5t76.5 281.5
q0 115 -44.5 212.5t-120 163t-176 102t-212.5 36.5q-136 0 -255.5 -53t-202.5 -142t-131 -207.5t-48 -247.5q0 -75 18.5 -154.5t65.5 -165t116 -152t180.5 -109.5t248.5 -43q130 0 256 36.5t225 110.5zM559 674v-2q0 -96 48 -141.5t110 -45.5q75 0 125.5 50t77.5 124
q36 111 36 168q0 71 -39.5 120.5t-105.5 49.5q-98 0 -175 -98.5t-77 -224.5z" />
    <glyph glyph-name="A" unicode="A" horiz-adv-x="1515" 
d="M457 297l-109 -297h-332l615 1516h268l600 -1516h-334l-110 297h-598zM973 541l-221 614l-215 -614h436z" />
    <glyph glyph-name="B" unicode="B" horiz-adv-x="1269" 
d="M143 0v1516h498q220 0 340 -91q147 -98 147 -303q0 -102 -49 -182.5t-137 -128.5q61 -20 107.5 -51.5t74 -67.5t45.5 -70t25.5 -72t9.5 -59.5t2 -44.5q0 -104 -43 -194.5t-121 -145.5q-87 -66 -174.5 -86t-257.5 -20h-467zM449 1247v-338h169q81 0 132 21q86 45 86 151
q0 55 -24 92t-60 52q-48 22 -136 22h-167zM449 653v-385h215q87 0 141 23q108 48 108 174q0 121 -106 168q-49 20 -154 20h-204z" />
    <glyph glyph-name="C" unicode="C" horiz-adv-x="1679" 
d="M1292 508h322q-70 -237 -274.5 -387t-467.5 -150q-169 0 -318.5 64t-253 172t-163 252t-59.5 301q0 151 57.5 292.5t158 250.5t251.5 175t325 66q125 -1 238.5 -36.5t195.5 -92t147.5 -129.5t104.5 -145t58 -142h-322q-16 34 -39 68.5t-61 73t-83.5 67.5t-108.5 48
t-132 20q-143 0 -255.5 -73.5t-171 -190.5t-58.5 -252q0 -138 60.5 -256.5t173.5 -191t253 -72.5q76 0 144.5 23.5t112 54t82 73t54.5 67.5t29 50z" />
    <glyph glyph-name="D" unicode="D" horiz-adv-x="1499" 
d="M143 0v1516h482q68 0 122.5 -3.5t132 -19t140 -42t129.5 -77.5t119 -121q155 -194 155 -493q0 -131 -27.5 -243.5t-87.5 -208.5t-149.5 -164t-219.5 -106t-292 -38h-504zM449 1247v-979h215q119 0 208.5 37.5t142 105t78 154t25.5 191.5q0 207 -102 340
q-116 151 -350 151h-217z" />
    <glyph glyph-name="E" unicode="E" horiz-adv-x="1091" 
d="M143 0v1516h850v-269h-544v-344h534v-268h-534v-367h544v-268h-850z" />
    <glyph glyph-name="F" unicode="F" horiz-adv-x="1021" 
d="M143 0v1516h805v-269h-499v-362h487v-269h-487v-616h-306z" />
    <glyph glyph-name="G" unicode="G" horiz-adv-x="1748" 
d="M1620 1051h-344q-50 76 -113 125q-128 100 -291 100q-93 0 -180 -34.5t-157 -98t-112 -163t-42 -218.5q0 -100 28 -185.5t75.5 -146.5t110 -104.5t133.5 -64.5t144 -21q176 0 302 92q118 84 155 229h-565v246h917q3 -87 -12.5 -190.5t-54.5 -190.5q-51 -114 -136 -203.5
t-185.5 -143t-207 -81t-211.5 -27.5q-167 0 -315.5 62t-254 168t-167 252t-61.5 309q0 166 63.5 312.5t172 249t256 161.5t311.5 59q252 0 459 -141t282 -352z" />
    <glyph glyph-name="H" unicode="H" horiz-adv-x="1478" 
d="M449 0h-306v1516h306v-609h583v609h305v-1516h-305v639h-583v-639z" />
    <glyph glyph-name="I" unicode="I" horiz-adv-x="589" 
d="M143 0v1516h306v-1516h-306z" />
    <glyph glyph-name="J" unicode="J" horiz-adv-x="1120" 
d="M977 1516v-957q0 -226 -47 -334q-23 -47 -64.5 -93t-87.5 -75q-128 -86 -289 -86q-19 0 -43.5 2t-66.5 11t-81.5 23t-85 42t-81.5 65.5t-65.5 95t-42.5 128.5q-8 39 -11 100h326q0 -13 4 -41q17 -73 60 -115t102 -42q113 3 147 98q21 55 21 147v1031h305z" />
    <glyph glyph-name="K" unicode="K" horiz-adv-x="1359" 
d="M180 0v1516h305v-703l502 703h322l-549 -756l604 -760h-373l-506 680v-680h-305z" />
    <glyph glyph-name="L" unicode="L" horiz-adv-x="964" 
d="M150 0v1516h305v-1248h497v-268h-802z" />
    <glyph glyph-name="M" unicode="M" horiz-adv-x="1884" 
d="M424 0h-281v1516h412l389 -1088l383 1088h414v-1516h-283l8 1214l-424 -1214h-200l-426 1214z" />
    <glyph glyph-name="N" unicode="N" horiz-adv-x="1544" 
d="M416 1516l696 -1051l-6 1051h293v-1516h-271l-698 1049l6 -1049h-293v1516h273z" />
    <glyph glyph-name="O" unicode="O" horiz-adv-x="1742" 
d="M76 743v2q0 177 65 328.5t174 253.5t253 159.5t302 57.5q169 0 318 -62.5t253.5 -169t165 -251t60.5 -303.5q0 -160 -60.5 -304.5t-165 -250.5t-254 -169t-319.5 -63t-319 63.5t-252 170t-162 247t-59 291.5zM381 760v-2q0 -103 36 -197.5t99.5 -165.5t156.5 -113
t201 -42q111 0 205 45.5t154.5 119t94.5 165t34 186.5q0 96 -34 188.5t-94.5 166.5t-155 119.5t-206.5 45.5q-146 0 -260 -74t-172.5 -190.5t-58.5 -251.5z" />
    <glyph glyph-name="P" unicode="P" horiz-adv-x="1239" 
d="M137 1516h459q182 0 278.5 -25t167.5 -80q82 -67 127 -170t45 -217q0 -113 -43.5 -219t-115.5 -164q-79 -65 -172 -93t-254 -28h-187v-520h-305v1516zM442 1247v-459h181q126 0 198 39q44 23 72.5 73.5t28.5 119.5t-29 117t-76 71q-72 39 -207 39h-168z" />
    <glyph glyph-name="Q" unicode="Q" horiz-adv-x="1781" 
d="M1767 219v-246q-69 0 -106 2q-210 9 -344 123q-198 -127 -436 -127q-142 0 -269.5 43.5t-222.5 118.5t-165 174t-106 213t-36 232q0 154 58 297.5t160.5 253t253 175.5t323.5 66q139 0 265 -41.5t223 -115.5t168 -171.5t108.5 -213t37.5 -236.5q0 -95 -16 -176t-46 -142
t-49 -91.5t-48 -67.5q48 -36 102.5 -50.5t144.5 -19.5zM879 1276h-2q-176 0 -306 -110.5t-165 -293.5q-6 -67 0 -108l28 8q28 9 37 11.5t37 9.5t47 9.5t47.5 5.5t56.5 3q196 0 355 -104q44 -29 87 -63.5t72 -60.5t109 -100q92 112 92 283q0 149 -68 267t-180.5 180.5
t-246.5 62.5zM879 240h2q66 0 125.5 16t93.5 39q-54 63 -160 149q-138 107 -311 107q-94 0 -187 -33q33 -75 88.5 -131.5t117.5 -87t120 -45t111 -14.5z" />
    <glyph glyph-name="R" unicode="R" horiz-adv-x="1286" 
d="M137 0v1516h459q318 0 453 -97q93 -67 142.5 -175t49.5 -236q0 -164 -82 -283q-84 -122 -250 -164l338 -561h-319l-408 705h60q201 0 272 55q45 37 70.5 95t25.5 126q0 69 -30.5 128t-81.5 91q-74 47 -215 47h-179v-1247h-305z" />
    <glyph glyph-name="S" unicode="S" horiz-adv-x="1144" 
d="M61 471h304q3 -58 20 -103.5t40 -71t52.5 -42t53.5 -22t47 -5.5q86 0 146 60t60 141q0 58 -37 99.5t-80.5 62.5t-159.5 67q-27 11 -42 17q-36 13 -58 21.5t-66.5 30t-74 42t-66.5 55t-59.5 72t-38.5 90t-16 111.5q0 105 43.5 192t115.5 142t160.5 84.5t182.5 29.5
q64 0 126 -13.5t125.5 -46t112 -81.5t80.5 -126.5t35 -174.5h-301q-5 27 -10 47t-18.5 48t-32 46t-51.5 31.5t-76 13.5q-77 0 -132 -48.5t-55 -123.5q-1 -76 55.5 -115.5t249.5 -119.5q20 -9 31 -13q185 -80 272.5 -176t87.5 -250q0 -94 -29.5 -177t-88.5 -149.5
t-158.5 -105.5t-228.5 -39q-252 0 -387.5 137t-133.5 363z" />
    <glyph glyph-name="T" unicode="T" horiz-adv-x="993" 
d="M346 0v1247h-328v269h959v-269h-326v-1247h-305z" />
    <glyph glyph-name="U" unicode="U" horiz-adv-x="1382" 
d="M139 1516h305v-932q0 -48 2 -78.5t12 -73t29 -78.5q64 -114 205 -114q73 0 125 29.5t78 78.5q20 35 30 79t11.5 73.5t1.5 83.5v932h305v-932q0 -171 -36.5 -279.5t-123.5 -187.5q-153 -146 -389 -146q-101 0 -210 33.5t-185 112.5q-98 93 -129 196t-31 271v932z" />
    <glyph glyph-name="V" unicode="V" horiz-adv-x="1449" 
d="M569 0l-540 1516h315l379 -1151l383 1151h315l-542 -1516h-310z" />
    <glyph glyph-name="W" unicode="W" horiz-adv-x="1961" 
d="M432 0l-401 1516h311l258 -1098l264 1098h234l266 -1100l256 1100h309l-409 -1516h-275l-266 1075l-264 -1075h-283z" />
    <glyph glyph-name="X" unicode="X" horiz-adv-x="1449" 
d="M20 0l527 797l-475 719h346l309 -496l305 496h344l-471 -725l525 -791h-349l-366 582l-353 -582h-342z" />
    <glyph glyph-name="Y" unicode="Y" horiz-adv-x="1277" 
d="M487 0v543l-464 973h329l287 -689l289 689h327l-462 -973v-543h-306z" />
    <glyph glyph-name="Z" unicode="Z" horiz-adv-x="1021" 
d="M983 1272l-575 -1004h587v-268h-960v199l606 1048h-614v269h956v-244z" />
    <glyph glyph-name="bracketleft" unicode="[" horiz-adv-x="944" 
d="M797 -203v-219h-580v1938h580v-222h-320v-1497h320z" />
    <glyph glyph-name="backslash" unicode="\" horiz-adv-x="1175" 
d="M731 -205l-586 1721h299l586 -1721h-299z" />
    <glyph glyph-name="bracketright" unicode="]" horiz-adv-x="944" 
d="M145 -422v219h322v1497h-322v222h582v-1938h-582z" />
    <glyph glyph-name="asciicircum" unicode="^" horiz-adv-x="1228" 
d="M123 768l356 748h271l356 -748h-293l-201 512l-198 -512h-291z" />
    <glyph glyph-name="underscore" unicode="_" horiz-adv-x="1024" 
d="M1024 -256h-1024v102h1024v-102z" />
    <glyph glyph-name="grave" unicode="`" horiz-adv-x="1136" 
d="M330 1673l493 -268l-78 -160l-501 238z" />
    <glyph glyph-name="a" unicode="a" horiz-adv-x="1425" 
d="M1292 1124v-1124h-268v162q-52 -95 -154 -146t-225 -51q-131 0 -240.5 49t-181 131.5t-110.5 190.5t-39 227q0 130 45 242t122 189t182 121t222 44q141 0 238.5 -59.5t140.5 -138.5v163h268zM342 559v-2q0 -55 20 -112.5t59.5 -110t108 -86t154.5 -33.5q107 0 182.5 49
t116.5 131q36 66 43 158q3 85 -31 158q-38 87 -118.5 142.5t-194.5 55.5q-104 0 -183.5 -52t-118 -130.5t-38.5 -167.5z" />
    <glyph glyph-name="b" unicode="b" horiz-adv-x="1409" 
d="M133 0v1516h268v-396v-135q75 93 178.5 133.5t196.5 40.5q102 0 200 -37.5t179.5 -108.5t131.5 -187t50 -259q0 -139 -46.5 -254t-125 -190.5t-182 -116.5t-219.5 -41q-128 0 -227.5 55t-145.5 142v-162h-258zM1069 563v2q0 141 -96.5 242.5t-241.5 101.5
q-152 0 -246 -102t-94 -244q0 -145 93 -246.5t241 -101.5q156 0 250 104.5t94 243.5z" />
    <glyph glyph-name="c" unicode="c" horiz-adv-x="1318" 
d="M977 410h274q-49 -193 -206.5 -319t-370.5 -126q-130 0 -243.5 48.5t-191.5 130t-122.5 190.5t-44.5 229q0 164 77.5 300.5t213.5 216t301 79.5q213 0 375.5 -124t211.5 -328h-274q-36 92 -115.5 147t-187.5 55q-137 3 -240 -96q-43 -46 -67.5 -111.5t-24.5 -138.5
q0 -151 94.5 -248.5t237.5 -97.5q115 0 191 56t112 137z" />
    <glyph glyph-name="d" unicode="d" horiz-adv-x="1419" 
d="M1284 1516v-1516h-256v162q-115 -197 -385 -197q-169 0 -300 81.5t-200 217t-69 299.5q0 133 45.5 246.5t122.5 189t180 118t217 42.5q76 0 142.5 -18.5t112 -47.5t75 -57.5t47.5 -56.5v164v373h268zM342 565v-2q0 -146 96 -246t248 -100q148 0 250 102t96 250
q0 145 -100 242q-98 98 -244 98q-157 0 -251.5 -102t-94.5 -242z" />
    <glyph glyph-name="e" unicode="e" horiz-adv-x="1308" 
d="M1237 473h-905q9 -129 105.5 -204.5t219.5 -73.5q187 0 271 151h276q-78 -183 -227 -283q-140 -98 -322 -98q-126 0 -238 49t-189.5 130.5t-122 190t-44.5 224.5q0 159 75.5 296t212 220.5t302.5 83.5q125 0 233 -45t187 -127q202 -208 166 -514zM336 678h637
q-9 92 -96.5 173.5t-223.5 80.5q-71 0 -131.5 -24t-98.5 -62t-60.5 -81.5t-26.5 -86.5z" />
    <glyph glyph-name="f" unicode="f" horiz-adv-x="616" 
d="M150 0v918h-140v206h140v64q0 54 9.5 100t24.5 79.5t39 60.5t49 45t59 31.5t63.5 20.5t68 11.5t67 6t66.5 1.5v-207q-29 0 -45.5 -1t-45.5 -9t-45 -23.5t-29 -47t-13 -76.5v-56h178v-206h-178v-918h-268z" />
    <glyph glyph-name="g" unicode="g" horiz-adv-x="1409" 
d="M1282 1124v-991q0 -257 -104 -397q-76 -102 -213 -167t-303 -65q-101 0 -188.5 23.5t-148.5 61t-108.5 88.5t-74.5 103t-40 107h312q36 -73 116 -114q69 -39 148 -39q62 0 120 21.5t106.5 62t78 106.5t29.5 148v94q-47 -85 -140 -143t-225 -58q-120 0 -226 44
t-182.5 121.5t-120.5 188.5t-44 238q0 134 46 248t124 190.5t182.5 119t220.5 42.5q121 0 219 -50t146 -134v151h270zM342 565v-2q0 -148 95 -247t241 -99q147 0 240 96q93 93 96 240q0 144 -82 242q-87 112 -254 112q-139 0 -237.5 -97t-98.5 -245z" />
    <glyph glyph-name="h" unicode="h" horiz-adv-x="1298" 
d="M133 0v1516h268v-365v-160q45 85 135.5 127.5t196.5 40.5q242 0 348 -158q88 -127 88 -383v-618h-268v606q0 140 -51 213q-65 88 -195 88q-140 0 -206 -98q-48 -71 -48 -180v-629h-268z" />
    <glyph glyph-name="i" unicode="i" horiz-adv-x="532" 
d="M133 1276v240h268v-240h-268zM133 0v1124h268v-1124h-268z" />
    <glyph glyph-name="j" unicode="j" horiz-adv-x="604" 
d="M182 1276v240h269v-240h-269zM451 1124v-1104q0 -81 -6.5 -137.5t-29 -116.5t-62.5 -97t-110.5 -62.5t-170.5 -28.5h-70v209h39q39 3 66.5 17.5t41.5 33t22 50.5t9.5 57.5t1.5 66.5v1112h269z" />
    <glyph glyph-name="k" unicode="k" horiz-adv-x="1146" 
d="M141 0v1516h269v-820l387 428h321l-467 -495l469 -629h-307l-403 561v-561h-269z" />
    <glyph glyph-name="l" unicode="l" horiz-adv-x="532" 
d="M133 0v1516h268v-1516h-268z" />
    <glyph glyph-name="m" unicode="m" horiz-adv-x="1974" 
d="M133 0v1124h252v-141q11 23 35.5 50t64 57t100 49.5t128.5 19.5q169 0 276 -115q39 -42 68 -102q37 64 82 107q117 110 286 110q190 0 299 -112q75 -78 99 -165.5t24 -265.5v-616h-268v606q0 141 -45 209q-49 92 -176 92q-136 0 -195 -102q-39 -68 -39 -189v-616h-268
v616q0 118 -35 187q-57 101 -184 104q-133 0 -193 -104q-43 -77 -43 -195v-608h-268z" />
    <glyph glyph-name="n" unicode="n" horiz-adv-x="1298" 
d="M133 0v1124h252q0 -96 -2 -149q104 186 350 184q105 -1 185.5 -32.5t127 -79.5t75.5 -115t38.5 -127t9.5 -127v-678h-268v610q0 297 -244 297q-134 -1 -195 -79t-61 -207v-621h-268z" />
    <glyph glyph-name="o" unicode="o" horiz-adv-x="1351" 
d="M74 563v2q0 110 40 214t113.5 189t190.5 137t258 52t258 -52t190.5 -137t113.5 -190t40 -215q0 -111 -40 -216t-113.5 -190.5t-190.5 -137.5t-258 -52t-258 52t-190.5 137.5t-113.5 190.5t-40 216zM342 563v-2q0 -146 97.5 -244t236.5 -98t235.5 98t96.5 246t-96.5 246
t-235.5 98q-140 0 -237 -98t-97 -246z" />
    <glyph glyph-name="p" unicode="p" horiz-adv-x="1417" 
d="M133 -393v1517h252v-163q64 91 164 144.5t233 53.5q114 0 209 -37t158.5 -98t107.5 -140.5t64 -163t20 -167.5q0 -159 -69.5 -293t-198 -214.5t-289.5 -80.5q-78 0 -145 18t-113 48t-76 59t-49 60v-150v-393h-268zM1073 561v2q0 62 -22.5 122.5t-64 111t-108.5 81.5
t-149 31q-145 0 -244 -102q-96 -99 -96 -248q0 -146 98 -244q100 -100 244 -100q150 0 246 102t96 244z" />
    <glyph glyph-name="q" unicode="q" horiz-adv-x="1417" 
d="M1284 1124v-1517h-268v393v158q-20 -33 -49.5 -63t-75.5 -61.5t-114 -50t-148 -18.5q-161 0 -289 79t-197 211t-69 290q0 273 162.5 443.5t408.5 170.5q79 0 146 -19t112.5 -51t74 -62.5t48.5 -63.5v161h258zM342 557v-2q0 -132 95 -235t249 -103q142 0 242 100
q98 98 98 242q6 145 -94 248q-48 48 -113 75t-135 27q-107 0 -186.5 -52.5t-117.5 -131t-38 -168.5z" />
    <glyph glyph-name="r" unicode="r" horiz-adv-x="712" 
d="M131 0v1124h254v-147q88 179 311 182v-270h-12q-143 0 -214 -69t-71 -214v-606h-268z" />
    <glyph glyph-name="s" unicode="s" horiz-adv-x="985" 
d="M885 821h-264q-2 51 -34 86t-104 35q-63 0 -98 -34t-35 -79q1 -50 50.5 -82t140.5 -59q40 -11 61 -17t58.5 -18.5t58.5 -22t52 -26.5t49 -33.5t39 -40.5t32 -50.5t19 -61.5t8 -74q3 -169 -120.5 -274t-305.5 -105q-70 0 -139 19.5t-133.5 59.5t-108 113.5t-50.5 170.5
h269q4 -43 22.5 -73.5t45.5 -45t51 -21t47 -6.5q64 0 109 37.5t44 93.5q0 65 -54.5 98.5t-222.5 91.5q-9 3 -14 5q-273 85 -276 293q0 161 117.5 259.5t285.5 98.5q50 0 98.5 -9t101 -32.5t93.5 -60.5t70.5 -97.5t36.5 -138.5z" />
    <glyph glyph-name="t" unicode="t" horiz-adv-x="690" 
d="M207 0v918h-187v206h187v392h268v-392h193v-206h-193v-918h-268z" />
    <glyph glyph-name="u" unicode="u" horiz-adv-x="1302" 
d="M1169 1124v-1124h-251v150q-27 -50 -66.5 -88.5t-114.5 -68t-170 -28.5q-77 0 -140.5 17t-108 44.5t-78.5 66.5t-55 80.5t-34 90t-17.5 91.5t-4.5 89v680h268v-612q0 -138 56.5 -217t189.5 -78q136 0 197 78t61 209v620h268z" />
    <glyph glyph-name="v" unicode="v" horiz-adv-x="1155" 
d="M1126 1124l-417 -1124h-263l-417 1124h278l271 -786l270 786h278z" />
    <glyph glyph-name="w" unicode="w" horiz-adv-x="1693" 
d="M377 0l-361 1124h279l223 -782l215 745h228l219 -745l219 782h278l-360 -1124h-252l-221 760l-215 -760h-252z" />
    <glyph glyph-name="x" unicode="x" horiz-adv-x="1175" 
d="M6 0l416 592l-379 532h324l219 -346l219 346h319l-376 -532l419 -592h-329l-252 387l-254 -387h-326z" />
    <glyph glyph-name="y" unicode="y" horiz-adv-x="1128" 
d="M248 -393l184 436l-424 1081h287l274 -747l271 747h286l-591 -1517h-287z" />
    <glyph glyph-name="z" unicode="z" horiz-adv-x="890" 
d="M29 0v186l528 732h-518v206h811v-206l-502 -711h510v-207h-829z" />
    <glyph glyph-name="braceleft" unicode="{" horiz-adv-x="1069" 
d="M918 1522v-207h-113q-39 0 -64.5 -11.5t-37 -35.5t-15.5 -48.5t-4 -62.5v-416q0 -43 -14 -81t-32 -63t-46.5 -49t-46.5 -34.5t-43 -23.5l-25 -13q34 -7 67 -22.5t66 -42t53.5 -71t20.5 -99.5v-420q0 -82 23 -121t98 -39h113v-207h-230q-123 0 -200.5 69.5t-77.5 207.5
v420q0 145 -189 188v278q26 3 55.5 14.5t61 33.5t52 62t20.5 91v428q0 136 77.5 205.5t200.5 69.5h230z" />
    <glyph glyph-name="bar" unicode="|" horiz-adv-x="1136" 
d="M420 1536h297v-2048h-297v2048z" />
    <glyph glyph-name="braceright" unicode="}" horiz-adv-x="1069" 
d="M152 1315v207h229q121 0 198.5 -69.5t77.5 -205.5v-428q0 -51 20.5 -91t52.5 -62t62 -33.5t56 -14.5v-278q-191 -44 -191 -188v-420q0 -138 -77 -207.5t-199 -69.5h-229v207h110q76 0 98.5 38.5t22.5 121.5v420q1 44 19 82.5t48.5 66t55.5 45t54 32.5l30 15
q-36 9 -67.5 24.5t-65 44t-53.5 77t-21 112.5v416q0 38 -3.5 62.5t-15 48.5t-37 35.5t-65.5 11.5h-110z" />
    <glyph glyph-name="asciitilde" unicode="~" horiz-adv-x="1228" 
d="M1022 727l63 -252q-57 -82 -112 -127t-131 -45q-53 0 -101 17.5t-114 52.5q-138 73 -236 73q-106 0 -184 -139l-66 250q97 175 258 172q83 0 232 -67q14 -6 44.5 -20t47.5 -21t41 -16t43 -13t35 -4q29 0 54 10.5t49.5 35.5t37.5 41t39 52z" />
    <glyph glyph-name="uni00A0" unicode="&#xa0;" horiz-adv-x="616" 
 />
    <glyph glyph-name="exclamdown" unicode="&#xa1;" horiz-adv-x="643" 
d="M184 821v303h277v-303h-277zM184 -391v1057h277v-1057h-277z" />
    <glyph glyph-name="cent" unicode="&#xa2;" 
d="M737 68h-225v217q-85 23 -152.5 65.5t-109.5 92t-69.5 107.5t-38.5 110t-11 102q0 71 21.5 142.5t65 140.5t119.5 123t175 79v211h217v-205q152 -39 249 -142t126 -226h-281q-31 57 -84 83.5t-110 26.5q-97 0 -163.5 -66.5t-66.5 -162.5q0 -94 64.5 -161.5t165.5 -67.5
q120 0 188 98h287q-38 -129 -136.5 -226t-230.5 -124v-217z" />
    <glyph glyph-name="sterling" unicode="&#xa3;" 
d="M842 842v-217h-244q31 -32 49 -54.5t36.5 -65.5t18.5 -87q0 -79 -84 -176h111q104 0 156 37q76 63 76 155q0 28 -15 80h262q1 -5 6 -22.5t7.5 -27.5t5 -30.5t2.5 -42.5q0 -63 -28 -131.5t-75 -124.5q-62 -66 -145.5 -100.5t-210.5 -34.5h-684v242h152q165 17 165 155
q0 108 -124 228h-254v217h118q-62 84 -65 207q0 93 37.5 181.5t104 158.5t168 112.5t220.5 42.5q136 0 249 -55t187 -163t86 -253h-282q-7 36 -23 69t-42.5 64.5t-70.5 50.5t-100 19q-100 0 -163.5 -69t-65.5 -165q2 -110 78 -200h381z" />
    <glyph glyph-name="currency" unicode="&#xa4;" 
d="M1077 113l-166 166q-135 -95 -295 -95q-156 0 -294 95l-166 -164l-136 133l170 170q-88 131 -88 280q0 158 93 289l-175 172l136 137l176 -174q127 88 284 88q158 0 283 -86l174 170l133 -135l-170 -170q94 -131 94 -291q0 -152 -88 -280l170 -168zM356 700v-2
q0 -107 77 -184.5t183 -77.5t183.5 77t77.5 187q0 108 -76.5 185.5t-184.5 77.5q-107 0 -183.5 -77.5t-76.5 -185.5z" />
    <glyph glyph-name="yen" unicode="&#xa5;" 
d="M1180 1012v-226h-367l-47 -88v-88h414v-225h-416v-385h-299v385h-412v225h412v84l-47 92h-361v226h246l-285 504h324l274 -543l283 543h318l-283 -504h246z" />
    <glyph glyph-name="brokenbar" unicode="&#xa6;" horiz-adv-x="1136" 
d="M420 1382h297v-716h-297v716zM420 358h297v-716h-297v716z" />
    <glyph glyph-name="section" unicode="&#xa7;" horiz-adv-x="1323" 
d="M1141 1143h-264q-31 157 -213 157q-74 0 -129.5 -36.5t-55.5 -112.5q0 -26 10.5 -49.5t21.5 -37t36 -30t35 -22t39 -19.5l356 -162q35 -16 61 -29.5t65.5 -43t64.5 -62.5t44 -85t19 -113q0 -103 -48.5 -177.5t-133.5 -144.5q114 -123 114 -280q0 -82 -31 -157.5t-90 -136
t-153 -96.5t-211 -36q-60 0 -123.5 11.5t-137.5 45t-132 84t-99.5 138t-46.5 198.5h267q6 -68 33 -115.5t67.5 -71t80.5 -33.5t85 -10q112 0 168.5 51t58.5 123q-1 62 -49.5 105t-138.5 84l-363 168q-29 13 -43 20t-45.5 26t-50 35.5t-44 45.5t-39 60t-24 74.5t-10.5 92.5
q0 28 6 59t24.5 77t61.5 96t107 94q-72 102 -72 225q0 97 39.5 174t106 123t146.5 70t167 24q208 0 333 -116.5t130 -284.5zM991 455v2q-1 58 -42 95t-118 71l-385 176q-108 -53 -108 -156t121 -158l426 -196q43 24 74 68t32 98z" />
    <glyph glyph-name="dieresis" unicode="&#xa8;" horiz-adv-x="1136" 
d="M475 1591v-291h-258v291h258zM918 1591v-291h-259v291h259z" />
    <glyph glyph-name="copyright" unicode="&#xa9;" horiz-adv-x="1638" 
d="M823 1542h2q160 0 304.5 -62.5t248 -168.5t164 -250.5t60.5 -302.5q0 -161 -62 -306.5t-167 -250t-249 -166.5t-303 -62q-160 0 -305 62t-250 166.5t-167 250t-62 306.5q0 158 60.5 302t164 250t250 169t311.5 63zM821 1411h-2q-134 0 -253.5 -52.5t-204 -140.5
t-134 -208t-49.5 -252q0 -179 86.5 -330t234.5 -237.5t322 -86.5q130 0 248 51t204 138t136.5 208.5t50.5 256.5q0 131 -49 251t-133 208.5t-203.5 141t-253.5 52.5zM1221 901h-174q-12 50 -36.5 84.5t-56 52t-61 24.5t-62.5 7q-87 0 -147.5 -45.5t-86.5 -113.5t-26 -150
q0 -137 70.5 -220t189.5 -83q13 0 26 1.5t38.5 7.5t47.5 20.5t45 37t41 61.5t26 89h178q-13 -172 -126 -272.5t-282 -100.5q-192 0 -313 126.5t-121 334.5q0 126 50.5 229.5t152 167.5t237.5 64q167 0 273.5 -96.5t116.5 -225.5z" />
    <glyph glyph-name="ordfeminine" unicode="&#xaa;" horiz-adv-x="817" 
d="M723 1524v-611h-166v88q-56 -106 -195 -106q-132 0 -219.5 94.5t-87.5 229.5q0 146 91.5 235.5t220.5 89.5q130 0 190 -108v88h166zM221 1217v-3q0 -56 44.5 -108.5t123.5 -52.5q107 0 152 92q16 40 16 74q0 37 -14 75q-16 40 -57 66t-97 26q-73 0 -120.5 -50t-47.5 -119
z" />
    <glyph glyph-name="guillemotleft" unicode="&#xab;" horiz-adv-x="827" 
d="M61 578l209 378h195l-209 -378l209 -377h-195zM397 578l209 378h195l-209 -378l209 -377h-195z" />
    <glyph glyph-name="logicalnot" unicode="&#xac;" horiz-adv-x="1228" 
d="M96 868h1037v-630h-261v370h-776v260z" />
    <glyph glyph-name="uni00AD" unicode="&#xad;" horiz-adv-x="567" 
d="M0 717h567v-264h-567v264z" />
    <glyph glyph-name="registered" unicode="&#xae;" horiz-adv-x="1638" 
d="M823 1542h2q160 0 304.5 -63t248 -169t164 -250.5t60.5 -301.5q0 -161 -62 -306.5t-167 -250t-249 -166.5t-303 -62q-160 0 -305 62t-250 166.5t-167 250t-62 306.5q0 157 60.5 301t163.5 250.5t250 169.5t312 63zM821 1411h-2q-134 0 -253.5 -52.5t-204 -140.5
t-134 -208t-49.5 -252q0 -178 86.5 -328.5t234.5 -238t322 -87.5q130 0 248 51t204 138t136.5 208.5t50.5 256.5q0 131 -48.5 250.5t-132.5 208t-203.5 141.5t-254.5 53zM483 1204h373q57 0 109 -12t101 -38t78.5 -76.5t29.5 -119.5q0 -151 -150 -215q63 -23 95 -68.5
t38 -133.5q8 -124 11.5 -156t15.5 -63h-172q-5 8 -8.5 25.5t-7 43.5t-5.5 46t-4.5 51t-3.5 42q-3 33 -8.5 53t-22.5 45t-55.5 37.5t-97.5 12.5h-137v-356h-179v882zM827 1077h-165v-280h149q80 3 116 21q70 34 70 128q0 37 -13.5 63.5t-30.5 39.5t-45 19.5t-43 7.5t-38 1z
" />
    <glyph glyph-name="macron" unicode="&#xaf;" horiz-adv-x="1136" 
d="M934 1550v-209h-733v209h733z" />
    <glyph glyph-name="degree" unicode="&#xb0;" horiz-adv-x="819" 
d="M702 1163v-2q0 -122 -84.5 -206.5t-207.5 -84.5t-208 85t-85 208t85 208t208 85t207.5 -85t84.5 -208zM260 1163v-2q0 -61 44 -105t106 -44t105.5 44t43.5 107q0 62 -44 108t-105 46t-105.5 -46t-44.5 -108z" />
    <glyph glyph-name="plusminus" unicode="&#xb1;" horiz-adv-x="1228" 
d="M485 803v309h258v-309h387v-260h-387v-301h-258v301h-387v260h387zM98 -125v258h1032v-258h-1032z" />
    <glyph glyph-name="twosuperior" unicode="&#xb2;" horiz-adv-x="804" 
d="M735 782v-176h-663v160q153 135 303 270q68 60 97.5 105.5t29.5 95.5q0 119 -111 119q-61 0 -91 -49.5t-30 -116.5h-202q4 132 59 213q94 131 276 131q158 0 242 -71t84 -203q0 -84 -30 -144t-101 -125q-37 -35 -110.5 -104.5t-110.5 -104.5h358z" />
    <glyph glyph-name="threesuperior" unicode="&#xb3;" horiz-adv-x="804" 
d="M51 885h211q6 -54 40.5 -86.5t94.5 -32.5q62 0 96.5 33.5t34.5 91.5q0 44 -34.5 79.5t-102.5 35.5h-98v151h51q55 0 97 28t42 79q0 36 -23 63.5t-67 28.5q-89 0 -98 -96h-207q3 152 119 221q81 53 192 53q127 0 207 -72t80 -172q0 -50 -28 -102.5t-89 -85.5
q79 -26 125.5 -87.5t46.5 -137.5q0 -121 -101.5 -205t-244.5 -84q-87 0 -166.5 33t-122.5 92q-51 70 -55 172z" />
    <glyph glyph-name="acute" unicode="&#xb4;" horiz-adv-x="1136" 
d="M313 1417l492 271l88 -195l-500 -238z" />
    <glyph glyph-name="mu" unicode="&#xb5;" horiz-adv-x="1261" 
d="M121 -385v1509h268v-575q0 -156 51 -234q62 -98 187 -98t188 102q59 95 59 254v551h269v-1124h-256v168q-84 -191 -256 -191q-164 0 -242 129v-120v-371h-268z" />
    <glyph glyph-name="paragraph" unicode="&#xb6;" horiz-adv-x="1363" 
d="M438 -223v944q-198 0 -320 99.5t-122 291.5q0 74 19.5 135.5t50.5 102.5t75.5 72t89 48.5t97 28t94 14t84.5 3.5h678v-195h-109v-1544h-211v1542h-215v-1542h-211z" />
    <glyph glyph-name="periodcentered" unicode="&#xb7;" horiz-adv-x="624" 
d="M453 670v-301h-281v301h281z" />
    <glyph glyph-name="cedilla" unicode="&#xb8;" horiz-adv-x="1136" 
d="M627 0l-58 -111q17 7 39 7q67 0 117.5 -47.5t50.5 -129.5q0 -78 -55 -138t-154 -60q-15 0 -32.5 2t-47 12.5t-53.5 27.5t-45.5 52t-28.5 82h132q19 -62 75 -62q34 0 56 23t22 61q0 34 -22 55t-54 21q-40 0 -63 -37l-111 58l88 184h144z" />
    <glyph glyph-name="onesuperior" unicode="&#xb9;" horiz-adv-x="804" 
d="M516 1516v-910h-203v733h-170v177h373z" />
    <glyph glyph-name="ordmasculine" unicode="&#xba;" horiz-adv-x="817" 
d="M80 1217v2q0 82 36.5 154.5t113 121t178.5 49.5q78 0 141.5 -28.5t103 -75t61 -104t21.5 -117.5q0 -129 -89.5 -226.5t-237.5 -97.5q-101 0 -177.5 48t-113.5 120.5t-37 153.5zM246 1219v-2q0 -67 48 -115.5t114 -48.5t113.5 47.5t47.5 118.5q0 70 -46.5 118.5
t-114.5 48.5q-66 0 -114 -47.5t-48 -119.5z" />
    <glyph glyph-name="guillemotright" unicode="&#xbb;" horiz-adv-x="827" 
d="M559 956l209 -378l-209 -379h-197l209 379l-209 378h197zM221 956l209 -378l-209 -379h-194l209 379l-209 378h194z" />
    <glyph glyph-name="onequarter" unicode="&#xbc;" horiz-adv-x="1740" 
d="M1233 1516l-647 -1516h-224l644 1516h227zM1341 651l-221 -332h221v332zM467 1516v-910h-203v733h-168v177h371zM1542 909v-590h100v-157h-100v-162h-203v162h-438v143l442 604h199z" />
    <glyph glyph-name="onehalf" unicode="&#xbd;" horiz-adv-x="1796" 
d="M467 1516v-910h-203v733h-168v177h371zM1233 1516l-647 -1516h-224l644 1516h227zM1702 176v-176h-664v160q50 45 151.5 135t151.5 135q68 60 97.5 105.5t29.5 95.5q0 55 -27 87t-83 32q-61 0 -91 -49.5t-30 -116.5h-203q4 128 58 209q92 135 278 135q158 0 242 -71.5
t84 -203.5q0 -84 -30 -143.5t-101 -124.5q-37 -35 -111 -104.5t-111 -104.5h359z" />
    <glyph glyph-name="threequarters" unicode="&#xbe;" horiz-adv-x="1949" 
d="M1563 657l-228 -338h228v338zM1460 1516l-645 -1516h-225l645 1516h225zM1763 909v-590h101v-157h-101v-162h-202v162h-439v143l443 604h198zM84 885h211q6 -54 40.5 -86.5t94.5 -32.5q61 0 96 34t35 91q0 44 -34.5 79.5t-102.5 35.5h-98v151h51q55 0 97 28t42 79
q0 36 -23 63.5t-67 28.5q-89 0 -98 -96h-207q3 152 119 221q81 53 192 53q127 0 207 -72t80 -172q0 -50 -28 -102.5t-89 -85.5q79 -26 125.5 -87.5t46.5 -137.5q0 -121 -101.5 -205t-244.5 -84q-89 0 -168.5 33t-122.5 94q-49 68 -53 170z" />
    <glyph glyph-name="questiondown" unicode="&#xbf;" horiz-adv-x="1183" 
d="M489 821v303h283v-303h-283zM489 676h283q-1 -102 -48.5 -187.5t-158.5 -191.5q-84 -84 -120 -138.5t-37 -115.5q0 -81 48.5 -133.5t133.5 -52.5q87 0 138 52.5t60 139.5q5 35 5 47h294q3 -25 0 -41q-4 -107 -46 -197.5t-111.5 -151t-161 -94.5t-193.5 -34
q-108 0 -199.5 37t-151 98.5t-93 139t-33.5 159.5q0 52 15 102.5t34 86t56.5 79t61.5 67t69 65.5q94 89 122.5 145t32.5 119z" />
    <glyph glyph-name="Agrave" unicode="&#xc0;" horiz-adv-x="1515" 
d="M457 297l-109 -297h-332l615 1516h268l600 -1516h-334l-110 297h-598zM973 541l-221 614l-215 -614h436zM518 1993l492 -267l-76 -161l-502 237z" />
    <glyph glyph-name="Aacute" unicode="&#xc1;" horiz-adv-x="1515" 
d="M457 297l-109 -297h-332l615 1516h268l600 -1516h-334l-110 297h-598zM973 541l-221 614l-215 -614h436zM506 1739l491 268l88 -192l-499 -238z" />
    <glyph glyph-name="Acircumflex" unicode="&#xc2;" horiz-adv-x="1515" 
d="M457 297l-109 -297h-332l615 1516h268l600 -1516h-334l-110 297h-598zM973 541l-221 614l-215 -614h436zM852 1929l340 -315h-268l-164 137l-164 -137h-272l348 315h180z" />
    <glyph glyph-name="Atilde" unicode="&#xc3;" horiz-adv-x="1515" 
d="M457 297l-109 -297h-332l615 1516h268l600 -1516h-334l-110 297h-598zM973 541l-221 614l-215 -614h436zM1069 1915l94 -180q-110 -76 -223 -76q-46 0 -172 29q-110 28 -162 28q-85 0 -157 -53l-95 184q42 31 101 52.5t116 21.5q60 0 174 -29q96 -28 164 -28
q100 0 160 51z" />
    <glyph glyph-name="Adieresis" unicode="&#xc4;" horiz-adv-x="1515" 
d="M457 297l-109 -297h-332l615 1516h268l600 -1516h-334l-110 297h-598zM973 541l-221 614l-215 -614h436zM666 1911v-291h-258v291h258zM1108 1911v-291h-258v291h258z" />
    <glyph glyph-name="Aring" unicode="&#xc5;" horiz-adv-x="1515" 
d="M457 297l-109 -297h-332l615 1516h268l600 -1516h-334l-110 297h-598zM973 541l-221 614l-215 -614h436zM758 2044h2q98 0 167.5 -70.5t69.5 -169.5t-70 -169t-169 -70q-100 0 -170 70.5t-70 168.5q0 99 70.5 169.5t169.5 70.5zM758 1907h-2q-41 0 -70 -30.5t-29 -72.5
q0 -40 30 -69t71 -29t70.5 29.5t29.5 70.5q0 42 -29 71.5t-71 29.5z" />
    <glyph glyph-name="AE" unicode="&#xc6;" horiz-adv-x="1980" 
d="M-18 0l1050 1516h834v-269h-512v-344h501v-268h-501v-367h512v-268h-807v326h-494l-215 -326h-368zM696 563h363v531z" />
    <glyph glyph-name="Ccedilla" unicode="&#xc7;" horiz-adv-x="1679" 
d="M897 -27l-45 -84q21 7 41 7q63 0 115.5 -48t52.5 -129q0 -78 -55.5 -138t-155.5 -60q-14 0 -31 2t-47 12.5t-53.5 27.5t-45 52t-28.5 82h131q19 -62 74 -62q36 0 58 23t22 61q0 34 -22 55t-54 21q-40 0 -63 -37l-111 58l80 164q-198 26 -354.5 138t-242 280.5
t-85.5 361.5q0 151 57.5 292.5t158 250.5t251.5 175t325 66q125 -1 238.5 -36.5t195.5 -92t147.5 -129.5t104.5 -145t58 -142h-322q-16 34 -39 68.5t-61 73t-83.5 67.5t-108.5 48t-132 20q-143 0 -255.5 -73.5t-171 -190.5t-58.5 -252q0 -138 60.5 -256.5t173.5 -191
t253 -72.5q76 0 144.5 23.5t112 54t82 73t54.5 67.5t29 50h322q-68 -230 -264.5 -379t-452.5 -156z" />
    <glyph glyph-name="Egrave" unicode="&#xc8;" horiz-adv-x="1091" 
d="M143 0v1516h850v-269h-544v-344h534v-268h-534v-367h544v-268h-850zM307 2025l494 -266l-78 -160l-500 236z" />
    <glyph glyph-name="Eacute" unicode="&#xc9;" horiz-adv-x="1091" 
d="M143 0v1516h850v-269h-544v-344h534v-268h-534v-367h544v-268h-850zM293 1772l489 268l88 -193l-499 -237z" />
    <glyph glyph-name="Ecircumflex" unicode="&#xca;" horiz-adv-x="1091" 
d="M143 0v1516h850v-269h-544v-344h534v-268h-534v-367h544v-268h-850zM639 1962l340 -315h-268l-164 137l-164 -137h-270l348 315h178z" />
    <glyph glyph-name="Edieresis" unicode="&#xcb;" horiz-adv-x="1091" 
d="M143 0v1516h850v-269h-544v-344h534v-268h-534v-367h544v-268h-850zM453 1946v-293h-258v293h258zM897 1946v-293h-260v293h260z" />
    <glyph glyph-name="Igrave" unicode="&#xcc;" horiz-adv-x="589" 
d="M143 0v1516h306v-1516h-306zM8 2023l494 -266l-78 -162l-502 238z" />
    <glyph glyph-name="Iacute" unicode="&#xcd;" horiz-adv-x="589" 
d="M143 0v1516h306v-1516h-306zM90 1769l490 269l88 -193l-500 -239z" />
    <glyph glyph-name="Icircumflex" unicode="&#xce;" horiz-adv-x="589" 
d="M143 0v1516h306v-1516h-306zM389 1958l338 -316h-268l-164 138l-162 -138h-272l348 316h180z" />
    <glyph glyph-name="Idieresis" unicode="&#xcf;" horiz-adv-x="589" 
d="M143 0v1516h306v-1516h-306zM203 1942v-291h-258v291h258zM645 1942v-291h-258v291h258z" />
    <glyph glyph-name="Eth" unicode="&#xd0;" horiz-adv-x="1499" 
d="M143 907v609h488q56 0 101 -3t106 -11t114 -26t109.5 -46t109.5 -73t97 -104q155 -194 155 -493q0 -162 -47.5 -299.5t-138.5 -240.5t-234.5 -161.5t-324.5 -58.5h-535v639h-143v268h143zM449 1247v-340h292v-268h-292v-371h215q119 0 208.5 37.5t142 105t78 154
t25.5 191.5q0 207 -102 340q-116 151 -350 151h-217z" />
    <glyph glyph-name="Ntilde" unicode="&#xd1;" horiz-adv-x="1544" 
d="M416 1516l696 -1051l-6 1051h293v-1516h-271l-698 1049l6 -1049h-293v1516h273zM1081 1911l95 -178q-105 -78 -222 -78q-34 0 -174 31q-107 28 -162 28q-86 0 -155 -53l-94 184q108 74 217 74q60 0 174 -29q93 -28 164 -28q99 0 157 49z" />
    <glyph glyph-name="Ograve" unicode="&#xd2;" horiz-adv-x="1742" 
d="M76 743v2q0 177 65 328.5t174 253.5t253 159.5t302 57.5q169 0 318 -62.5t253.5 -169t165 -251t60.5 -303.5q0 -160 -60.5 -304.5t-165 -250.5t-254 -169t-319.5 -63t-319 63.5t-252 170t-162 247t-59 291.5zM381 760v-2q0 -103 36 -197.5t99.5 -165.5t156.5 -113
t201 -42q111 0 205 45.5t154.5 119t94.5 165t34 186.5q0 96 -34 188.5t-94.5 166.5t-155 119.5t-206.5 45.5q-146 0 -260 -74t-172.5 -190.5t-58.5 -251.5zM633 2025l493 -266l-77 -160l-502 236z" />
    <glyph glyph-name="Oacute" unicode="&#xd3;" horiz-adv-x="1742" 
d="M76 743v2q0 177 65 328.5t174 253.5t253 159.5t302 57.5q169 0 318 -62.5t253.5 -169t165 -251t60.5 -303.5q0 -160 -60.5 -304.5t-165 -250.5t-254 -169t-319.5 -63t-319 63.5t-252 170t-162 247t-59 291.5zM381 760v-2q0 -103 36 -197.5t99.5 -165.5t156.5 -113
t201 -42q111 0 205 45.5t154.5 119t94.5 165t34 186.5q0 96 -34 188.5t-94.5 166.5t-155 119.5t-206.5 45.5q-146 0 -260 -74t-172.5 -190.5t-58.5 -251.5zM616 1772l492 268l88 -193l-500 -237z" />
    <glyph glyph-name="Ocircumflex" unicode="&#xd4;" horiz-adv-x="1742" 
d="M76 743v2q0 177 65 328.5t174 253.5t253 159.5t302 57.5q169 0 318 -62.5t253.5 -169t165 -251t60.5 -303.5q0 -160 -60.5 -304.5t-165 -250.5t-254 -169t-319.5 -63t-319 63.5t-252 170t-162 247t-59 291.5zM381 760v-2q0 -103 36 -197.5t99.5 -165.5t156.5 -113
t201 -42q111 0 205 45.5t154.5 119t94.5 165t34 186.5q0 96 -34 188.5t-94.5 166.5t-155 119.5t-206.5 45.5q-146 0 -260 -74t-172.5 -190.5t-58.5 -251.5zM965 1960l340 -315h-269l-164 137l-163 -137h-271l346 315h181z" />
    <glyph glyph-name="Otilde" unicode="&#xd5;" horiz-adv-x="1742" 
d="M76 743v2q0 177 65 328.5t174 253.5t253 159.5t302 57.5q169 0 318 -62.5t253.5 -169t165 -251t60.5 -303.5q0 -160 -60.5 -304.5t-165 -250.5t-254 -169t-319.5 -63t-319 63.5t-252 170t-162 247t-59 291.5zM381 760v-2q0 -103 36 -197.5t99.5 -165.5t156.5 -113
t201 -42q111 0 205 45.5t154.5 119t94.5 165t34 186.5q0 96 -34 188.5t-94.5 166.5t-155 119.5t-206.5 45.5q-146 0 -260 -74t-172.5 -190.5t-58.5 -251.5zM1182 1911l94 -178q-108 -78 -223 -78q-37 0 -172 31q-110 28 -162 28q-86 0 -158 -53l-94 184q108 74 217 74
q60 0 174 -29q96 -28 166 -28q100 0 158 49z" />
    <glyph glyph-name="Odieresis" unicode="&#xd6;" horiz-adv-x="1742" 
d="M76 743v2q0 177 65 328.5t174 253.5t253 159.5t302 57.5q169 0 318 -62.5t253.5 -169t165 -251t60.5 -303.5q0 -160 -60.5 -304.5t-165 -250.5t-254 -169t-319.5 -63t-319 63.5t-252 170t-162 247t-59 291.5zM381 760v-2q0 -103 36 -197.5t99.5 -165.5t156.5 -113
t201 -42q111 0 205 45.5t154.5 119t94.5 165t34 186.5q0 96 -34 188.5t-94.5 166.5t-155 119.5t-206.5 45.5q-146 0 -260 -74t-172.5 -190.5t-58.5 -251.5zM778 1946v-293h-258v293h258zM1221 1946v-293h-258v293h258z" />
    <glyph glyph-name="multiply" unicode="&#xd7;" horiz-adv-x="1228" 
d="M295 0l-184 184l317 318l-317 315l184 184l317 -315l320 318l186 -187l-319 -315l315 -318l-184 -184l-316 317z" />
    <glyph glyph-name="Oslash" unicode="&#xd8;" horiz-adv-x="1742" 
d="M1241 1456l84 117h297l-188 -256q41 -39 78.5 -88.5t74 -119t58.5 -161t22 -190.5q0 -159 -60.5 -303.5t-165 -251t-254 -169.5t-319.5 -63q-201 0 -364 86l-86 -114h-297l188 254q-97 92 -165 232t-68 329q0 165 61.5 310.5t167 250t253.5 165t314 60.5q197 0 369 -88z
M492 440l579 789q-78 47 -199 47q-112 0 -206.5 -44.5t-155.5 -117.5t-95 -164.5t-34 -187.5q0 -93 30 -178.5t81 -143.5zM1253 1075l-579 -788q85 -47 198 -47t208 46t155 120t93.5 165t33.5 185q0 174 -109 319z" />
    <glyph glyph-name="Ugrave" unicode="&#xd9;" horiz-adv-x="1382" 
d="M139 1516h305v-932q0 -48 2 -78.5t12 -73t29 -78.5q64 -114 205 -114q73 0 125 29.5t78 78.5q20 35 30 79t11.5 73.5t1.5 83.5v932h305v-932q0 -171 -36.5 -279.5t-123.5 -187.5q-153 -146 -389 -146q-101 0 -210 33.5t-185 112.5q-98 93 -129 196t-31 271v932zM383 2019
l494 -268l-78 -160l-500 236z" />
    <glyph glyph-name="Uacute" unicode="&#xda;" horiz-adv-x="1382" 
d="M139 1516h305v-932q0 -48 2 -78.5t12 -73t29 -78.5q64 -114 205 -114q73 0 125 29.5t78 78.5q20 35 30 79t11.5 73.5t1.5 83.5v932h305v-932q0 -171 -36.5 -279.5t-123.5 -187.5q-153 -146 -389 -146q-101 0 -210 33.5t-185 112.5q-98 93 -129 196t-31 271v932zM492 1763
l489 269l88 -193l-500 -237z" />
    <glyph glyph-name="Ucircumflex" unicode="&#xdb;" horiz-adv-x="1382" 
d="M139 1516h305v-932q0 -48 2 -78.5t12 -73t29 -78.5q64 -114 205 -114q73 0 125 29.5t78 78.5q20 35 30 79t11.5 73.5t1.5 83.5v932h305v-932q0 -171 -36.5 -279.5t-123.5 -187.5q-153 -146 -389 -146q-101 0 -210 33.5t-185 112.5q-98 93 -129 196t-31 271v932zM784 1954
l340 -314h-268l-164 136l-164 -136h-270l346 314h180z" />
    <glyph glyph-name="Udieresis" unicode="&#xdc;" horiz-adv-x="1382" 
d="M139 1516h305v-932q0 -48 2 -78.5t12 -73t29 -78.5q64 -114 205 -114q73 0 125 29.5t78 78.5q20 35 30 79t11.5 73.5t1.5 83.5v932h305v-932q0 -171 -36.5 -279.5t-123.5 -187.5q-153 -146 -389 -146q-101 0 -210 33.5t-185 112.5q-98 93 -129 196t-31 271v932zM598 1937
v-290h-258v290h258zM1042 1937v-290h-260v290h260z" />
    <glyph glyph-name="Yacute" unicode="&#xdd;" horiz-adv-x="1277" 
d="M487 0v543l-464 973h329l287 -689l289 689h327l-462 -973v-543h-306zM453 1763l491 269l88 -193l-500 -237z" />
    <glyph glyph-name="Thorn" unicode="&#xde;" horiz-adv-x="1239" 
d="M137 0v1516h305v-230l154 2q185 0 280 -25t166 -81q82 -67 127 -169t45 -216q0 -113 -43.5 -219t-115.5 -164q-80 -66 -171.5 -93.5t-254.5 -27.5h-187v-293h-305zM442 1020v-459h181q126 0 198 39q45 25 73 74t28 117q0 133 -105 190q-72 39 -207 39h-168z" />
    <glyph glyph-name="germandbls" unicode="&#xdf;" horiz-adv-x="1351" 
d="M129 0v899q0 186 23.5 284t93.5 179q77 91 188.5 139.5t224.5 48.5q102 0 189.5 -34.5t147 -92t93 -134t33.5 -159.5q0 -193 -166 -290q138 -30 230 -141t92 -255q0 -92 -37 -178.5t-102 -153t-161 -107t-206 -40.5q-141 1 -235.5 61.5t-139.5 161.5v-188h-268zM397 971
v-553h156q11 -88 68.5 -144.5t152.5 -56.5q104 0 170 66t66 157q0 104 -64 164q-73 70 -258 70h-113v205h66q91 0 151 58t60 148q0 99 -61 157t-160 58q-138 0 -197 -118q-37 -74 -37 -211z" />
    <glyph glyph-name="agrave" unicode="&#xe0;" horiz-adv-x="1425" 
d="M1292 1124v-1124h-268v162q-52 -95 -154 -146t-225 -51q-131 0 -240.5 49t-181 131.5t-110.5 190.5t-39 227q0 130 45 242t122 189t182 121t222 44q141 0 238.5 -59.5t140.5 -138.5v163h268zM342 559v-2q0 -55 20 -112.5t59.5 -110t108 -86t154.5 -33.5q107 0 182.5 49
t116.5 131q36 66 43 158q3 85 -31 158q-38 87 -118.5 142.5t-194.5 55.5q-104 0 -183.5 -52t-118 -130.5t-38.5 -167.5zM453 1673l493 -268l-78 -160l-501 238z" />
    <glyph glyph-name="aacute" unicode="&#xe1;" horiz-adv-x="1425" 
d="M1292 1124v-1124h-268v162q-52 -95 -154 -146t-225 -51q-131 0 -240.5 49t-181 131.5t-110.5 190.5t-39 227q0 130 45 242t122 189t182 121t222 44q141 0 238.5 -59.5t140.5 -138.5v163h268zM342 559v-2q0 -55 20 -112.5t59.5 -110t108 -86t154.5 -33.5q107 0 182.5 49
t116.5 131q36 66 43 158q3 85 -31 158q-38 87 -118.5 142.5t-194.5 55.5q-104 0 -183.5 -52t-118 -130.5t-38.5 -167.5zM457 1417l489 271l90 -195l-499 -238z" />
    <glyph glyph-name="acircumflex" unicode="&#xe2;" horiz-adv-x="1425" 
d="M1292 1124v-1124h-268v162q-52 -95 -154 -146t-225 -51q-131 0 -240.5 49t-181 131.5t-110.5 190.5t-39 227q0 130 45 242t122 189t182 121t222 44q141 0 238.5 -59.5t140.5 -138.5v163h268zM342 559v-2q0 -55 20 -112.5t59.5 -110t108 -86t154.5 -33.5q107 0 182.5 49
t116.5 131q36 66 43 158q3 85 -31 158q-38 87 -118.5 142.5t-194.5 55.5q-104 0 -183.5 -52t-118 -130.5t-38.5 -167.5zM784 1610l340 -316h-268l-164 138l-164 -138h-270l346 316h180z" />
    <glyph glyph-name="atilde" unicode="&#xe3;" horiz-adv-x="1425" 
d="M1292 1124v-1124h-268v162q-52 -95 -154 -146t-225 -51q-131 0 -240.5 49t-181 131.5t-110.5 190.5t-39 227q0 130 45 242t122 189t182 121t222 44q141 0 238.5 -59.5t140.5 -138.5v163h268zM342 559v-2q0 -55 20 -112.5t59.5 -110t108 -86t154.5 -33.5q107 0 182.5 49
t116.5 131q36 66 43 158q3 85 -31 158q-38 87 -118.5 142.5t-194.5 55.5q-104 0 -183.5 -52t-118 -130.5t-38.5 -167.5zM1010 1561l94 -179q-107 -77 -223 -77q-39 0 -174 30q-126 29 -162 29q-82 0 -156 -53l-94 182q43 31 101.5 53.5t115.5 22.5q60 0 174 -29
q100 -29 164 -29q98 0 160 50z" />
    <glyph glyph-name="adieresis" unicode="&#xe4;" horiz-adv-x="1425" 
d="M1292 1124v-1124h-268v162q-52 -95 -154 -146t-225 -51q-131 0 -240.5 49t-181 131.5t-110.5 190.5t-39 227q0 130 45 242t122 189t182 121t222 44q141 0 238.5 -59.5t140.5 -138.5v163h268zM342 559v-2q0 -55 20 -112.5t59.5 -110t108 -86t154.5 -33.5q107 0 182.5 49
t116.5 131q36 66 43 158q3 85 -31 158q-38 87 -118.5 142.5t-194.5 55.5q-104 0 -183.5 -52t-118 -130.5t-38.5 -167.5zM594 1591v-291h-260v291h260zM1036 1591v-291h-258v291h258z" />
    <glyph glyph-name="aring" unicode="&#xe5;" horiz-adv-x="1425" 
d="M1292 1124v-1124h-268v162q-52 -95 -154 -146t-225 -51q-131 0 -240.5 49t-181 131.5t-110.5 190.5t-39 227q0 130 45 242t122 189t182 121t222 44q141 0 238.5 -59.5t140.5 -138.5v163h268zM342 559v-2q0 -55 20 -112.5t59.5 -110t108 -86t154.5 -33.5q107 0 182.5 49
t116.5 131q36 66 43 158q3 85 -31 158q-38 87 -118.5 142.5t-194.5 55.5q-104 0 -183.5 -52t-118 -130.5t-38.5 -167.5zM678 1698h2q98 0 168 -71t70 -169t-70 -168.5t-170 -70.5t-170 70.5t-70 168.5q0 100 70 170t170 70zM678 1561h-2q-42 0 -70 -30.5t-28 -72.5
q0 -40 29.5 -69t70.5 -29t70.5 29.5t29.5 70.5q0 42 -29 71.5t-71 29.5z" />
    <glyph glyph-name="ae" unicode="&#xe6;" horiz-adv-x="2267" 
d="M2191 481h-907q8 -66 34.5 -117.5t60.5 -82.5t76.5 -51t79.5 -27.5t73 -7.5q165 0 278 151h273q-72 -169 -207 -275t-326 -106q-117 0 -211 54t-147 149v-168h-246v168q-47 -94 -147.5 -148.5t-225.5 -54.5q-112 0 -208 37.5t-162 98.5t-113.5 139.5t-69.5 160t-22 160.5
q0 167 73.5 303.5t206.5 215.5t299 79q123 0 225 -54t144 -144v163h246v-161q58 95 152 145.5t208 50.5q112 0 214.5 -43t180.5 -123q87 -87 135.5 -219.5t32.5 -292.5zM342 567v-2q0 -152 99 -250t247 -98q140 0 237 100.5t97 241.5q0 151 -94 248q-99 102 -250 102
q-81 0 -147.5 -33.5t-106 -85.5t-61 -110.5t-21.5 -112.5zM1290 664h639q-31 136 -115 201t-200 65q-149 0 -238 -96q-66 -69 -86 -170z" />
    <glyph glyph-name="ccedilla" unicode="&#xe7;" horiz-adv-x="1318" 
d="M698 -31l-41 -80q21 7 41 7q63 0 114.5 -48t51.5 -129q0 -78 -55 -138t-154 -60q-15 0 -32 2t-46.5 12.5t-53 27.5t-44.5 52t-28 82h131q19 -62 73 -62q35 0 56.5 23t23.5 61q-1 35 -23 55.5t-53 20.5q-40 0 -63 -37l-111 58l76 161q-212 36 -350.5 199.5t-138.5 386.5
q0 164 77.5 300.5t213.5 216t301 79.5q213 0 375.5 -124t211.5 -328h-274q-37 88 -116.5 142t-186.5 54q-137 3 -240 -96q-43 -43 -67.5 -107.5t-24.5 -136.5q0 -151 94.5 -248.5t237.5 -97.5q115 0 191 56t112 137h274q-49 -187 -198 -310.5t-355 -130.5z" />
    <glyph glyph-name="egrave" unicode="&#xe8;" horiz-adv-x="1308" 
d="M1237 473h-905q9 -129 105.5 -204.5t219.5 -73.5q187 0 271 151h276q-78 -183 -227 -283q-140 -98 -322 -98q-126 0 -238 49t-189.5 130.5t-122 190t-44.5 224.5q0 159 75.5 296t212 220.5t302.5 83.5q125 0 233 -45t187 -127q202 -208 166 -514zM336 678h637
q-9 92 -96.5 173.5t-223.5 80.5q-71 0 -131.5 -24t-98.5 -62t-60.5 -81.5t-26.5 -86.5zM416 1673l493 -268l-75 -160l-502 238z" />
    <glyph glyph-name="eacute" unicode="&#xe9;" horiz-adv-x="1308" 
d="M1237 473h-905q9 -129 105.5 -204.5t219.5 -73.5q187 0 271 151h276q-78 -183 -227 -283q-140 -98 -322 -98q-126 0 -238 49t-189.5 130.5t-122 190t-44.5 224.5q0 159 75.5 296t212 220.5t302.5 83.5q125 0 233 -45t187 -127q202 -208 166 -514zM336 678h637
q-9 92 -96.5 173.5t-223.5 80.5q-71 0 -131.5 -24t-98.5 -62t-60.5 -81.5t-26.5 -86.5zM397 1417l492 271l88 -195l-500 -238z" />
    <glyph glyph-name="ecircumflex" unicode="&#xea;" horiz-adv-x="1308" 
d="M1237 473h-905q9 -129 105.5 -204.5t219.5 -73.5q187 0 271 151h276q-78 -183 -227 -283q-140 -98 -322 -98q-126 0 -238 49t-189.5 130.5t-122 190t-44.5 224.5q0 159 75.5 296t212 220.5t302.5 83.5q125 0 233 -45t187 -127q202 -208 166 -514zM336 678h637
q-9 92 -96.5 173.5t-223.5 80.5q-71 0 -131.5 -24t-98.5 -62t-60.5 -81.5t-26.5 -86.5zM750 1610l337 -316h-268l-164 138l-161 -138h-273l348 316h181z" />
    <glyph glyph-name="edieresis" unicode="&#xeb;" horiz-adv-x="1308" 
d="M1237 473h-905q9 -129 105.5 -204.5t219.5 -73.5q187 0 271 151h276q-78 -183 -227 -283q-140 -98 -322 -98q-126 0 -238 49t-189.5 130.5t-122 190t-44.5 224.5q0 159 75.5 296t212 220.5t302.5 83.5q125 0 233 -45t187 -127q202 -208 166 -514zM336 678h637
q-9 92 -96.5 173.5t-223.5 80.5q-71 0 -131.5 -24t-98.5 -62t-60.5 -81.5t-26.5 -86.5zM559 1591v-291h-258v291h258zM1004 1591v-291h-261v291h261z" />
    <glyph glyph-name="igrave" unicode="&#xec;" horiz-adv-x="532" 
d="M133 0v1124h268v-1124h-268zM-14 1673l493 -268l-78 -160l-501 238z" />
    <glyph glyph-name="iacute" unicode="&#xed;" horiz-adv-x="532" 
d="M133 0v1124h268v-1124h-268zM51 1417l492 271l88 -195l-500 -238z" />
    <glyph glyph-name="icircumflex" unicode="&#xee;" horiz-adv-x="532" 
d="M133 0v1124h268v-1124h-268zM360 1610l340 -316h-268l-164 138l-164 -138h-270l346 316h180z" />
    <glyph glyph-name="idieresis" unicode="&#xef;" horiz-adv-x="532" 
d="M133 0v1124h268v-1124h-268zM174 1591v-291h-258v291h258zM618 1591v-291h-260v291h260z" />
    <glyph glyph-name="eth" unicode="&#xf0;" horiz-adv-x="1351" 
d="M676 1247l-477 -119v177l278 67q-68 37 -229 90l278 78q125 -46 234 -104l426 104v-176l-240 -55q63 -44 126.5 -115.5t107.5 -157.5q47 -88 72.5 -198t25.5 -217q0 -287 -170 -469.5t-432 -184.5q-123 0 -232.5 41.5t-191.5 117t-130 187.5t-48 246q1 137 46 250
t120 185t170.5 111.5t199.5 39.5q77 0 152.5 -29.5t128.5 -83.5q-18 40 -55 86q-76 83 -160 129zM342 563v-2q0 -140 90.5 -241t245.5 -101q64 0 119 20t93.5 54.5t66 79t40.5 93.5t13 99q0 85 -38 162.5t-114.5 129.5t-173.5 52q-161 0 -251.5 -102t-90.5 -244z" />
    <glyph glyph-name="ntilde" unicode="&#xf1;" horiz-adv-x="1298" 
d="M133 0v1124h252q0 -96 -2 -149q104 186 350 184q105 -1 185.5 -32.5t127 -79.5t75.5 -115t38.5 -127t9.5 -127v-678h-268v610q0 297 -244 297q-134 -1 -195 -79t-61 -207v-621h-268zM961 1561l94 -179q-107 -77 -221 -77q-44 0 -175 30q-131 29 -161 29q-81 0 -158 -53
l-94 182q43 31 101.5 53.5t115.5 22.5q60 0 174 -29q100 -29 166 -29q99 0 158 50z" />
    <glyph glyph-name="ograve" unicode="&#xf2;" horiz-adv-x="1351" 
d="M74 563v2q0 110 40 214t113.5 189t190.5 137t258 52t258 -52t190.5 -137t113.5 -190t40 -215q0 -111 -40 -216t-113.5 -190.5t-190.5 -137.5t-258 -52t-258 52t-190.5 137.5t-113.5 190.5t-40 216zM342 563v-2q0 -146 97.5 -244t236.5 -98t235.5 98t96.5 246t-96.5 246
t-235.5 98q-140 0 -237 -98t-97 -246zM438 1673l492 -268l-76 -160l-502 238z" />
    <glyph glyph-name="oacute" unicode="&#xf3;" horiz-adv-x="1351" 
d="M74 563v2q0 110 40 214t113.5 189t190.5 137t258 52t258 -52t190.5 -137t113.5 -190t40 -215q0 -111 -40 -216t-113.5 -190.5t-190.5 -137.5t-258 -52t-258 52t-190.5 137.5t-113.5 190.5t-40 216zM342 563v-2q0 -146 97.5 -244t236.5 -98t235.5 98t96.5 246t-96.5 246
t-235.5 98q-140 0 -237 -98t-97 -246zM420 1417l489 271l88 -195l-499 -238z" />
    <glyph glyph-name="ocircumflex" unicode="&#xf4;" horiz-adv-x="1351" 
d="M74 563v2q0 110 40 214t113.5 189t190.5 137t258 52t258 -52t190.5 -137t113.5 -190t40 -215q0 -111 -40 -216t-113.5 -190.5t-190.5 -137.5t-258 -52t-258 52t-190.5 137.5t-113.5 190.5t-40 216zM342 563v-2q0 -146 97.5 -244t236.5 -98t235.5 98t96.5 246t-96.5 246
t-235.5 98q-140 0 -237 -98t-97 -246zM770 1610l338 -316h-268l-164 138l-162 -138h-272l348 316h180z" />
    <glyph glyph-name="otilde" unicode="&#xf5;" horiz-adv-x="1351" 
d="M74 563v2q0 110 40 214t113.5 189t190.5 137t258 52t258 -52t190.5 -137t113.5 -190t40 -215q0 -111 -40 -216t-113.5 -190.5t-190.5 -137.5t-258 -52t-258 52t-190.5 137.5t-113.5 190.5t-40 216zM342 563v-2q0 -146 97.5 -244t236.5 -98t235.5 98t96.5 246t-96.5 246
t-235.5 98q-140 0 -237 -98t-97 -246zM987 1561l94 -179q-107 -77 -223 -77q-39 0 -174 30q-126 29 -162 29q-81 0 -155 -53l-95 182q43 31 101.5 53.5t115.5 22.5q61 0 175 -29q100 -29 163 -29q98 0 160 50z" />
    <glyph glyph-name="odieresis" unicode="&#xf6;" horiz-adv-x="1351" 
d="M74 563v2q0 110 40 214t113.5 189t190.5 137t258 52t258 -52t190.5 -137t113.5 -190t40 -215q0 -111 -40 -216t-113.5 -190.5t-190.5 -137.5t-258 -52t-258 52t-190.5 137.5t-113.5 190.5t-40 216zM342 563v-2q0 -146 97.5 -244t236.5 -98t235.5 98t96.5 246t-96.5 246
t-235.5 98q-140 0 -237 -98t-97 -246zM584 1591v-291h-258v291h258zM1026 1591v-291h-258v291h258z" />
    <glyph glyph-name="divide" unicode="&#xf7;" horiz-adv-x="1228" 
d="M741 1120v-286h-256v286h256zM100 387v260h1028v-260h-1028zM741 199v-287h-256v287h256z" />
    <glyph glyph-name="oslash" unicode="&#xf8;" horiz-adv-x="1351" 
d="M1008 1192h268l-160 -217q77 -84 119.5 -190t42.5 -222q0 -113 -40.5 -219t-114.5 -191t-190.5 -136.5t-256.5 -51.5q-151 0 -264 60l-68 -95h-270l159 215q-73 75 -116 184t-43 230q0 89 24.5 175.5t75 162.5t121 134t169 92t212.5 34q163 0 266 -57zM410 367l378 516
q-50 24 -112 24q-141 0 -237.5 -99t-96.5 -245q0 -124 68 -196zM944 754l-379 -512q55 -25 111 -25q148 0 240 101.5t92 244.5q0 120 -64 191z" />
    <glyph glyph-name="ugrave" unicode="&#xf9;" horiz-adv-x="1302" 
d="M1169 1124v-1124h-251v150q-27 -50 -66.5 -88.5t-114.5 -68t-170 -28.5q-77 0 -140.5 17t-108 44.5t-78.5 66.5t-55 80.5t-34 90t-17.5 91.5t-4.5 89v680h268v-612q0 -138 56.5 -217t189.5 -78q136 0 197 78t61 209v620h268zM344 1673l494 -268l-78 -160l-502 238z" />
    <glyph glyph-name="uacute" unicode="&#xfa;" horiz-adv-x="1302" 
d="M1169 1124v-1124h-251v150q-27 -50 -66.5 -88.5t-114.5 -68t-170 -28.5q-77 0 -140.5 17t-108 44.5t-78.5 66.5t-55 80.5t-34 90t-17.5 91.5t-4.5 89v680h268v-612q0 -138 56.5 -217t189.5 -78q136 0 197 78t61 209v620h268zM451 1417l489 271l90 -195l-500 -238z" />
    <glyph glyph-name="ucircumflex" unicode="&#xfb;" horiz-adv-x="1302" 
d="M1169 1124v-1124h-251v150q-27 -50 -66.5 -88.5t-114.5 -68t-170 -28.5q-77 0 -140.5 17t-108 44.5t-78.5 66.5t-55 80.5t-34 90t-17.5 91.5t-4.5 89v680h268v-612q0 -138 56.5 -217t189.5 -78q136 0 197 78t61 209v620h268zM745 1610l338 -316h-268l-162 138l-164 -138
h-272l348 316h180z" />
    <glyph glyph-name="udieresis" unicode="&#xfc;" horiz-adv-x="1302" 
d="M1169 1124v-1124h-251v150q-27 -50 -66.5 -88.5t-114.5 -68t-170 -28.5q-77 0 -140.5 17t-108 44.5t-78.5 66.5t-55 80.5t-34 90t-17.5 91.5t-4.5 89v680h268v-612q0 -138 56.5 -217t189.5 -78q136 0 197 78t61 209v620h268zM559 1591v-291h-258v291h258zM1001 1591v-291
h-258v291h258z" />
    <glyph glyph-name="yacute" unicode="&#xfd;" horiz-adv-x="1128" 
d="M248 -393l184 436l-424 1081h287l274 -747l271 747h286l-591 -1517h-287zM379 1417l489 271l90 -195l-499 -238z" />
    <glyph glyph-name="thorn" unicode="&#xfe;" horiz-adv-x="1415" 
d="M131 -393v1909h268v-412v-129q57 84 156.5 133t226.5 49q112 0 206.5 -36t159 -95.5t110.5 -138.5t67 -163.5t21 -170.5q0 -162 -71.5 -296.5t-200.5 -213t-288 -78.5q-77 0 -143.5 17.5t-113 47t-77 58.5t-53.5 62v-144v-399h-268zM1077 561v2q0 138 -95 241t-249 103
q-151 0 -250 -106q-96 -99 -96 -242q0 -135 94 -235q97 -109 252 -109q152 0 248 102t96 244z" />
    <glyph glyph-name="ydieresis" unicode="&#xff;" horiz-adv-x="1128" 
d="M248 -393l184 436l-424 1081h287l274 -747l271 747h286l-591 -1517h-287zM471 1591v-291h-258v291h258zM915 1591v-291h-260v291h260z" />
    <glyph glyph-name="dotlessi" unicode="&#x131;" horiz-adv-x="532" 
d="M133 0v1124h268v-1124h-268z" />
    <glyph glyph-name="Lslash" unicode="&#x141;" horiz-adv-x="964" 
d="M10 387v305l142 103v721h305v-500l248 178v-305l-248 -180v-441h497v-268h-802v489z" />
    <glyph glyph-name="lslash" unicode="&#x142;" horiz-adv-x="636" 
d="M180 543l-133 -90v280l133 90v693h271v-521l149 101v-279l-149 -102v-715h-271v543z" />
    <glyph glyph-name="OE" unicode="&#x152;" horiz-adv-x="2269" 
d="M1647 1247v-344h503v-268h-503v-367h516v-268h-811v98v95q-98 -112 -227.5 -167t-264.5 -55q-165 0 -311.5 62.5t-249.5 168t-163 250t-60 304.5q0 155 56.5 297.5t156.5 251.5t250 174t325 65q180 0 303 -63.5t185 -157.5v96v97h811v-269h-516zM381 756v-2
q0 -91 31.5 -181t90 -165t152.5 -121.5t207 -46.5q112 0 205.5 44t155 117t95.5 166.5t34 194.5q-2 143 -62 259.5t-171.5 185.5t-254.5 69q-148 0 -260 -75.5t-167.5 -192t-55.5 -252.5z" />
    <glyph glyph-name="oe" unicode="&#x153;" horiz-adv-x="2244" 
d="M2169 481h-905q10 -130 99 -208t218 -78q187 0 279 149h276q-65 -151 -182 -250q-160 -129 -367 -129q-94 0 -173.5 24t-133 63.5t-88.5 79.5t-57 83q-27 -48 -65.5 -89.5t-94.5 -79.5t-135.5 -59.5t-171.5 -21.5q-106 0 -200.5 33t-165.5 90t-123 132.5t-78.5 162
t-26.5 176.5q0 161 73 296.5t213 219.5t320 84q148 0 272 -70t181 -176q58 96 178 170t274 74q122 0 230.5 -46.5t189.5 -129.5q96 -98 141 -232t23 -268zM342 561v-2q0 -142 97.5 -243t238.5 -101q75 0 139 31t105 81.5t63.5 111t22.5 122.5q0 87 -40 166t-117.5 130.5
t-174.5 51.5q-134 0 -234 -96.5t-100 -251.5zM1272 666h633q-18 107 -104.5 184.5t-211.5 77.5q-120 0 -209.5 -72t-107.5 -190z" />
    <glyph glyph-name="Scaron" unicode="&#x160;" horiz-adv-x="1144" 
d="M61 471h304q3 -58 20 -103.5t40 -71t52.5 -42t53.5 -22t47 -5.5q86 0 146 60t60 141q0 58 -37 99.5t-80.5 62.5t-159.5 67q-27 11 -42 17q-36 13 -58 21.5t-66.5 30t-74 42t-66.5 55t-59.5 72t-38.5 90t-16 111.5q0 105 43.5 192t115.5 142t160.5 84.5t182.5 29.5
q64 0 126 -13.5t125.5 -46t112 -81.5t80.5 -126.5t35 -174.5h-301q-5 27 -10 47t-18.5 48t-32 46t-51.5 31.5t-76 13.5q-77 0 -132 -48.5t-55 -123.5q-1 -76 55.5 -115.5t249.5 -119.5q20 -9 31 -13q185 -80 272.5 -176t87.5 -250q0 -94 -29.5 -177t-88.5 -149.5
t-158.5 -105.5t-228.5 -39q-252 0 -387.5 137t-133.5 363zM139 1944h271l161 -136l164 136h271l-347 -314h-180z" />
    <glyph glyph-name="scaron" unicode="&#x161;" horiz-adv-x="985" 
d="M885 821h-264q-2 51 -34 86t-104 35q-63 0 -98 -34t-35 -79q1 -50 50.5 -82t140.5 -59q40 -11 61 -17t58.5 -18.5t58.5 -22t52 -26.5t49 -33.5t39 -40.5t32 -50.5t19 -61.5t8 -74q3 -169 -120.5 -274t-305.5 -105q-70 0 -139 19.5t-133.5 59.5t-108 113.5t-50.5 170.5
h269q4 -43 22.5 -73.5t45.5 -45t51 -21t47 -6.5q64 0 109 37.5t44 93.5q0 65 -54.5 98.5t-222.5 91.5q-9 3 -14 5q-273 85 -276 293q0 161 117.5 259.5t285.5 98.5q50 0 98.5 -9t101 -32.5t93.5 -60.5t70.5 -97.5t36.5 -138.5zM57 1595h271l164 -135l163 135h271l-346 -313
h-181z" />
    <glyph glyph-name="Ydieresis" unicode="&#x178;" horiz-adv-x="1277" 
d="M487 0v543l-464 973h329l287 -689l289 689h327l-462 -973v-543h-306zM547 1937v-290h-260v290h260zM989 1937v-290h-260v290h260z" />
    <glyph glyph-name="Zcaron" unicode="&#x17d;" horiz-adv-x="1021" 
d="M983 1272l-575 -1004h587v-268h-960v199l606 1048h-614v269h956v-244zM80 1929h270l162 -137l164 137h270l-346 -313h-180z" />
    <glyph glyph-name="zcaron" unicode="&#x17e;" horiz-adv-x="890" 
d="M29 0v186l528 732h-518v206h811v-206l-502 -711h510v-207h-829zM39 1587h270l162 -135l164 135h270l-346 -313h-180z" />
    <glyph glyph-name="florin" unicode="&#x192;" 
d="M825 1067h185v-207h-219l-132 -737q-18 -95 -28.5 -142t-37 -113t-65.5 -116q-69 -88 -171 -131t-216 -43q-75 0 -114 12l43 242q4 0 22.5 -3t32.5 -3q56 0 98 14.5t67 35.5t43 58.5t26.5 69.5t17.5 82l137 774h-184v207h219q36 238 156 358q122 119 311 119q40 0 78 -6
l-35 -217q-19 0 -55 -4q-77 -14 -119 -68q-8 -9 -14.5 -20t-12 -25.5t-9 -25t-7.5 -29.5t-6 -26.5t-6 -29t-5 -26.5z" />
    <glyph glyph-name="circumflex" unicode="&#x2c6;" horiz-adv-x="1136" 
d="M662 1610l339 -316h-268l-164 138l-163 -138h-271l346 316h181z" />
    <glyph glyph-name="caron" unicode="&#x2c7;" horiz-adv-x="1136" 
d="M135 1595h268l164 -135l164 135h270l-346 -313h-180z" />
    <glyph glyph-name="uni02C9" unicode="&#x2c9;" horiz-adv-x="1136" 
d="M934 1550v-209h-733v209h733z" />
    <glyph glyph-name="breve" unicode="&#x2d8;" horiz-adv-x="1136" 
d="M154 1569h206q37 -43 84 -61.5t131 -18.5q62 0 118 20.5t81 59.5h207q-10 -87 -70.5 -151t-149.5 -95t-194 -31q-160 0 -275 73.5t-138 203.5z" />
    <glyph glyph-name="dotaccent" unicode="&#x2d9;" horiz-adv-x="1136" 
d="M698 1591v-291h-260v291h260z" />
    <glyph glyph-name="ring" unicode="&#x2da;" horiz-adv-x="1136" 
d="M567 1698h2q98 0 168 -71t70 -169t-70.5 -168.5t-169.5 -70.5t-169 70t-70 169q0 100 69.5 170t169.5 70zM567 1561h-2q-41 0 -69.5 -30.5t-28.5 -72.5q0 -40 29.5 -69t70.5 -29t71 29.5t30 70.5q0 42 -29.5 71.5t-71.5 29.5z" />
    <glyph glyph-name="ogonek" unicode="&#x2db;" horiz-adv-x="1136" 
d="M543 0h143q-70 -47 -93 -71q-38 -42 -38 -89q0 -44 33 -76t78 -32q41 0 100 24v-147q-95 -31 -160 -31q-112 0 -173.5 56.5t-61.5 142.5q0 64 40 113.5t132 109.5z" />
    <glyph glyph-name="tilde" unicode="&#x2dc;" horiz-adv-x="1136" 
d="M879 1561l94 -179q-107 -77 -223 -77q-41 0 -172 30q-131 29 -162 29q-81 0 -158 -53l-94 182q43 31 101.5 53.5t115.5 22.5q60 0 174 -29q100 -29 166 -29q99 0 158 50z" />
    <glyph glyph-name="hungarumlaut" unicode="&#x2dd;" horiz-adv-x="1136" 
d="M180 1389l320 301l153 -156l-342 -281zM621 1389l319 301l154 -156l-340 -281z" />
    <glyph glyph-name="uni03A9" unicode="&#x3a9;" horiz-adv-x="1566" 
d="M385 221v6q-116 105 -193 262t-77 351q0 143 49.5 271t136 223t213.5 150.5t274 55.5q154 0 281.5 -61.5t208 -161t124.5 -220t44 -245.5q0 -197 -79 -359t-196 -266v-6h306v-221h-582v164q118 76 195 234t77 397q0 137 -42.5 253t-131 190.5t-207.5 74.5
q-176 0 -284.5 -149.5t-108.5 -379.5q0 -222 79.5 -387t193.5 -233v-164h-582v221h301z" />
    <glyph glyph-name="uni03BC" unicode="&#x3bc;" horiz-adv-x="1261" 
d="M121 -385v1509h268v-575q0 -156 51 -234q62 -98 187 -98t188 102q59 95 59 254v551h269v-1124h-256v168q-84 -191 -256 -191q-164 0 -242 129v-120v-371h-268z" />
    <glyph glyph-name="pi" unicode="&#x3c0;" horiz-adv-x="1320" 
d="M1270 907h-156v-581q0 -203 29 -326h-266q-39 65 -39 311v596h-308q-9 -207 -48 -480.5t-93 -426.5h-268q54 183 94 452t43 455q-140 0 -217 -22l-31 180q95 74 359 74h923z" />
    <glyph glyph-name="endash" unicode="&#x2013;" horiz-adv-x="1024" 
d="M72 717h880v-264h-880v264z" />
    <glyph glyph-name="emdash" unicode="&#x2014;" horiz-adv-x="2048" 
d="M72 717h1904v-264h-1904v264z" />
    <glyph glyph-name="quoteleft" unicode="&#x2018;" horiz-adv-x="624" 
d="M414 1516l161 -463h-202l-195 463h236z" />
    <glyph glyph-name="quoteright" unicode="&#x2019;" horiz-adv-x="624" 
d="M49 1053l162 463h235l-196 -463h-201z" />
    <glyph glyph-name="quotesinglbase" unicode="&#x201a;" horiz-adv-x="624" 
d="M49 -193l162 461h235l-196 -461h-201z" />
    <glyph glyph-name="quotedblleft" unicode="&#x201c;" horiz-adv-x="1042" 
d="M471 1516l162 -463h-201l-196 463h235zM801 1516l162 -463h-201l-197 463h236z" />
    <glyph glyph-name="quotedblright" unicode="&#x201d;" horiz-adv-x="1042" 
d="M80 1053l162 463h233l-194 -463h-201zM410 1053l161 463h234l-195 -463h-200z" />
    <glyph glyph-name="quotedblbase" unicode="&#x201e;" horiz-adv-x="1042" 
d="M80 -193l162 461h233l-194 -461h-201zM410 -193l161 461h234l-195 -461h-200z" />
    <glyph glyph-name="dagger" unicode="&#x2020;" horiz-adv-x="1323" 
d="M797 1516v-381h333v-232h-333v-1329h-269v1329h-335v232h335v381h269z" />
    <glyph glyph-name="daggerdbl" unicode="&#x2021;" horiz-adv-x="1323" 
d="M797 1516v-322h333v-229h-333v-711h333v-229h-333v-451h-269v451h-335v229h335v711h-335v229h335v322h269z" />
    <glyph glyph-name="bullet" unicode="&#x2022;" horiz-adv-x="1327" 
d="M666 1051h2q114 0 194 -82.5t80 -198.5q0 -117 -81 -199t-197 -82t-197.5 82.5t-81.5 198.5q0 115 81 198t200 83z" />
    <glyph glyph-name="ellipsis" unicode="&#x2026;" horiz-adv-x="2048" 
d="M203 0v303h280v-303h-280zM885 0v303h280v-303h-280zM1567 0v303h280v-303h-280z" />
    <glyph glyph-name="perthousand" unicode="&#x2030;" horiz-adv-x="2490" 
d="M66 1184v2q0 151 104.5 254.5t255.5 103.5t254.5 -104t103.5 -256q0 -151 -104.5 -256t-253.5 -105q-150 0 -255 105.5t-105 255.5zM250 1184v-2q0 -72 51 -123t125 -51q73 0 123.5 51t50.5 127q0 75 -50 125.5t-124 50.5q-75 0 -125.5 -51t-50.5 -127zM897 332v2
q0 149 104.5 253.5t255.5 104.5t256 -104.5t105 -255.5q0 -152 -105.5 -256.5t-255.5 -104.5t-255 104t-105 257zM1081 332v-2q0 -74 50.5 -125t125.5 -51q74 0 125.5 51.5t51.5 126.5q0 76 -51.5 127t-125.5 51q-76 0 -126 -51t-50 -127zM1704 332v2q0 149 104.5 253.5
t255.5 104.5t256 -104.5t105 -255.5t-106 -256t-255 -105q-150 0 -255 104t-105 257zM1888 332v-2q0 -74 50.5 -125t125.5 -51q74 0 125.5 51.5t51.5 126.5q0 76 -51.5 127t-125.5 51q-76 0 -126 -51t-50 -127zM1288 1516l-706 -1516h-193l705 1516h194z" />
    <glyph glyph-name="guilsinglleft" unicode="&#x2039;" horiz-adv-x="468" 
d="M39 578l209 378h194l-209 -378l209 -379h-194z" />
    <glyph glyph-name="guilsinglright" unicode="&#x203a;" horiz-adv-x="468" 
d="M221 956l209 -378l-209 -379h-196l208 379l-208 378h196z" />
    <glyph glyph-name="fraction" unicode="&#x2044;" horiz-adv-x="368" 
d="M-252 0l645 1516h225l-647 -1516h-223z" />
    <glyph glyph-name="Euro" unicode="&#x20ac;" horiz-adv-x="1146" 
d="M1149 1333l-88 -248q-87 203 -352 203q-63 0 -111.5 -26.5t-77 -71t-43 -97.5t-14.5 -110h559l-70 -195h-489v-112h448l-71 -195h-371q8 -49 25 -91.5t44.5 -80.5t71.5 -60t99 -22q103 0 194.5 40.5t130.5 107.5v-299q-32 -35 -119.5 -71t-205.5 -36t-213 40.5
t-157.5 111.5t-98.5 162t-45 198h-187l70 195h112v112h-182l70 195h115q0 112 38.5 220.5t100.5 180.5q143 162 377 162q84 0 162 -22t132.5 -56.5t91 -69t54.5 -65.5z" />
    <glyph glyph-name="afii61289" unicode="&#x2113;" horiz-adv-x="1130" 
d="M977 397l113 -114q-82 -159 -200 -231t-257 -72q-95 0 -168.5 28t-119.5 78t-72 112t-35 138q-2 8 -2 24q-20 -14 -58.5 -44.5t-56.5 -43.5l-70 146q16 13 59.5 46.5t70 56t50.5 46.5v545q0 141 31 249.5t86.5 173.5t125 97.5t151.5 32.5q152 0 229.5 -107.5t77.5 -277.5
q0 -185 -111 -368t-323 -386v-90q3 -114 58 -175.5t138 -61.5q84 0 157.5 57t125.5 141zM498 1122v-348q260 294 260 516q0 180 -121 180q-58 0 -98.5 -81.5t-40.5 -266.5z" />
    <glyph glyph-name="trademark" unicode="&#x2122;" horiz-adv-x="2027" 
d="M770 606v910h264l244 -631l240 631h262v-910h-195v670l-242 -670h-137l-241 666v-666h-195zM240 606v735h-203v175h612v-175h-203v-735h-206z" />
    <glyph glyph-name="Omega" unicode="&#x2126;" horiz-adv-x="1566" 
d="M385 221v6q-116 105 -193 262t-77 351q0 143 49.5 271t136 223t213.5 150.5t274 55.5q154 0 281.5 -61.5t208 -161t124.5 -220t44 -245.5q0 -197 -79 -359t-196 -266v-6h306v-221h-582v164q118 76 195 234t77 397q0 137 -42.5 253t-131 190.5t-207.5 74.5
q-176 0 -284.5 -149.5t-108.5 -379.5q0 -222 79.5 -387t193.5 -233v-164h-582v221h301z" />
    <glyph glyph-name="estimated" unicode="&#x212e;" horiz-adv-x="1896" 
d="M1821 735h-1415q-11 0 -11 -8v-428q0 -27 19 -49q106 -109 244 -171.5t290 -62.5q165 0 311.5 69.5t251.5 190.5h125q-120 -139 -301.5 -221t-388.5 -82q-237 0 -437.5 105t-317.5 286t-117 394q0 160 69 305.5t186 250.5t278.5 167.5t338.5 62.5q178 0 340 -62.5
t279 -167.5t186.5 -250.5t69.5 -305.5v-23zM1499 793v430q0 31 -20 51q-106 104 -243 163.5t-288 59.5t-288.5 -61.5t-243.5 -169.5q-21 -21 -21 -54v-419q0 -5 3.5 -10t7.5 -5h1085q8 0 8 15z" />
    <glyph glyph-name="partialdiff" unicode="&#x2202;" horiz-adv-x="1263" 
d="M225 1380l-78 203q167 125 404 125q98 0 187.5 -33t166 -101t132.5 -165t88 -232.5t32 -295.5q0 -268 -72 -470t-213 -315.5t-333 -113.5q-89 0 -165.5 31t-129 82.5t-90 119t-55 139t-17.5 142.5q0 127 37.5 234t102 179.5t151 113t184.5 40.5q64 0 122.5 -19t98.5 -49
t66.5 -57.5t40.5 -52.5h2q2 18 2 73q0 141 -46 260t-132.5 192t-194.5 73q-156 0 -291 -103zM565 207h2q60 0 113 40.5t89 106.5t59.5 144t33.5 159q-9 28 -29.5 59t-51.5 60.5t-75.5 48.5t-93.5 19q-111 0 -184.5 -106t-73.5 -251q0 -119 58.5 -199.5t152.5 -80.5z" />
    <glyph glyph-name="Delta" unicode="&#x2206;" horiz-adv-x="1447" 
d="M57 0v160l508 1388h328l491 -1384v-164h-1327zM342 221h748l-244 647q-14 46 -62.5 190.5t-62.5 196.5h-6q-10 -40 -54.5 -170t-60.5 -184z" />
    <glyph glyph-name="product" unicode="&#x220f;" horiz-adv-x="1585" 
d="M1530 1268h-225v-1477h-273v1477h-483v-1477h-270v1477h-226v248h1477v-248z" />
    <glyph glyph-name="summation" unicode="&#x2211;" horiz-adv-x="1228" 
d="M1188 -209h-1139v174l535 688l-514 672v191h1081v-232h-711v-8l453 -580l-502 -647v-6h797v-252z" />
    <glyph glyph-name="minus" unicode="&#x2212;" horiz-adv-x="1228" 
d="M100 387v260h1028v-260h-1028z" />
    <glyph glyph-name="uni2215" unicode="&#x2215;" horiz-adv-x="368" 
d="M-252 0l645 1516h225l-647 -1516h-223z" />
    <glyph glyph-name="uni2219" unicode="&#x2219;" horiz-adv-x="624" 
d="M453 670v-301h-281v301h281z" />
    <glyph glyph-name="radical" unicode="&#x221a;" horiz-adv-x="1300" 
d="M1321 1817l-496 -2122h-219l-330 952l-161 -63l-45 151l370 150l232 -699q38 -162 43 -186h4q1 5 14 79.5t21 119.5l376 1618h191z" />
    <glyph glyph-name="infinity" unicode="&#x221e;" horiz-adv-x="1699" 
d="M1595 627v-2q0 -86 -29.5 -158t-78.5 -119.5t-112 -73.5t-130 -26q-100 0 -193.5 56.5t-197.5 191.5q-102 -122 -193.5 -185t-211.5 -63q-139 0 -242 104t-103 262q0 163 103.5 268t259.5 105q114 0 207 -62.5t186 -181.5q2 2 28 31.5t31.5 35.5t30.5 32t35 34t35 29
t40.5 28.5t42 21t48 18.5t49.5 9.5t57 4.5q147 0 242.5 -99.5t95.5 -260.5zM467 397h4q44 0 85 17t82.5 54t65.5 63.5t66 76.5q-84 112 -122 150q-88 84 -189 84q-92 0 -146.5 -65t-54.5 -165q0 -89 59.5 -152t149.5 -63zM1243 842h-4q-32 0 -64.5 -11.5t-56.5 -27t-54 -43
t-46 -45.5t-43.5 -50t-36.5 -42q103 -128 167.5 -177t143.5 -49q86 0 139.5 68t53.5 149q0 100 -55 164t-144 64z" />
    <glyph glyph-name="integral" unicode="&#x222b;" horiz-adv-x="860" 
d="M815 1847l-29 -186q-36 18 -79 18q-71 0 -109 -55q-61 -77 -61 -364q0 -172 16 -508.5t16 -534.5q0 -290 -80 -436q-42 -79 -117 -117.5t-161 -38.5q-102 0 -170 37l35 193q58 -23 96 -23q64 0 96 43q62 84 62 338q0 201 -16.5 546.5t-16.5 526.5q0 189 30.5 302
t100.5 186q44 50 111.5 75t142.5 25q77 0 133 -27z" />
    <glyph glyph-name="approxequal" unicode="&#x2248;" horiz-adv-x="1210" 
d="M1026 981l96 -90q-55 -103 -131 -163t-166 -60q-62 0 -113 19.5t-134 68.5q-39 24 -62.5 36.5t-58 23.5t-68.5 11q-35 0 -65 -12t-56.5 -37.5t-43.5 -47t-42 -58.5l-98 88q49 99 134 161t183 62q22 0 42.5 -2.5t41 -8.5t34 -10t34.5 -15t28 -14.5t29.5 -17t24.5 -14.5
q11 -6 35.5 -20.5t34 -20t28.5 -15t30.5 -13t28 -6.5t33.5 -3q60 0 106 39.5t95 118.5zM1026 575l96 -90q-121 -223 -299 -223q-61 0 -110.5 19t-134.5 67q-46 29 -65.5 40t-55 23.5t-68.5 12.5q-46 0 -87 -26t-63.5 -54.5t-56.5 -79.5l-98 90q49 99 134.5 161.5t182.5 62.5
q25 0 51 -4.5t42.5 -8.5t42.5 -16t33.5 -15.5t34.5 -19.5t28 -16q13 -7 47.5 -27.5t49.5 -28t42.5 -16t52.5 -8.5q60 0 104 38t97 119z" />
    <glyph glyph-name="notequal" unicode="&#x2260;" horiz-adv-x="1210" 
d="M889 1116l-86 -194h301v-158h-363l-129 -297h492v-158h-553l-111 -250l-125 52l88 198h-297v158h359l129 297h-488v158h549l109 245z" />
    <glyph glyph-name="lessequal" unicode="&#x2264;" horiz-adv-x="1210" 
d="M1098 215l-981 487v170l981 488v-184l-824 -385v-5l824 -387v-184zM1106 -27h-997v162h997v-162z" />
    <glyph glyph-name="greaterequal" unicode="&#x2265;" horiz-adv-x="1210" 
d="M121 1360l981 -488v-170l-981 -487v184l821 387v5l-821 385v184zM1102 -27h-991v162h991v-162z" />
    <glyph glyph-name="lozenge" unicode="&#x25ca;" horiz-adv-x="1300" 
d="M1192 756l-438 -862h-217l-426 862l436 864h217zM950 750l-254 524q-29 70 -41 127h-8q-16 -64 -41 -127l-256 -512l256 -531q32 -86 39 -120h8q21 82 39 116z" />
    </font>
</defs>
</svg>
